<?xml version="1.0" encoding="iso-8859-1"?>
<!-- Generator: Adobe Illustrator 19.0.0, SVG Export Plug-In . SVG Version: 6.00 Build 0)  -->
<svg xmlns="http://www.w3.org/2000/svg" xmlns:xlink="http://www.w3.org/1999/xlink" version="1.1" id="Capa_1" x="0px" y="0px" viewBox="0 0 512.08 512.08" style="enable-background:new 0 0 512.08 512.08;" xml:space="preserve" width="512px" height="512px">
<g transform="translate(0 -1)">
	<g>
		<g>
			<path d="M486.44,257.08H321.994c54.54-30.09,81.8-93.279,66.264-153.6S318.33,1,256.04,1S139.357,43.159,123.822,103.48     c-15.536,60.321,11.724,123.51,66.264,153.6H25.64c-14.138,0-25.6,11.462-25.6,25.6v170.667c0,14.138,11.461,25.6,25.6,25.6     h17.067v25.6c0,4.713,3.82,8.533,8.533,8.533h68.267c4.713,0,8.533-3.821,8.533-8.533v-25.6h256v25.6     c0,4.713,3.821,8.533,8.533,8.533h68.267c4.713,0,8.533-3.821,8.533-8.533v-25.6h17.067c14.138,0,25.6-11.462,25.6-25.6V282.68     C512.04,268.542,500.579,257.08,486.44,257.08z M136.573,137.613c0-65.98,53.487-119.467,119.467-119.467     s119.467,53.487,119.467,119.467S322.02,257.08,256.04,257.08C190.09,257.009,136.644,203.564,136.573,137.613z M110.973,496.013     h-51.2v-17.067h51.2V496.013z M452.307,496.013h-51.2v-17.067h51.2V496.013z M494.973,453.347c0,4.713-3.82,8.533-8.533,8.533     H25.64c-4.713,0-8.533-3.821-8.533-8.533V282.68c0-4.713,3.82-8.533,8.533-8.533h460.8c4.713,0,8.533,3.821,8.533,8.533V453.347z     " fill="#FFFFFF"/>
			<path d="M93.907,427.747H51.24V308.28h42.667c4.713,0,8.533-3.82,8.533-8.533s-3.821-8.533-8.533-8.533H51.24     c-9.426,0-17.067,7.641-17.067,17.067v119.467c0,9.426,7.641,17.067,17.067,17.067h42.667c4.713,0,8.533-3.82,8.533-8.533     S98.619,427.747,93.907,427.747z" fill="#FFFFFF"/>
			<path d="M460.84,291.213H162.173c-4.713,0-8.533,3.82-8.533,8.533s3.82,8.533,8.533,8.533H460.84v119.467H162.173     c-4.713,0-8.533,3.82-8.533,8.533s3.82,8.533,8.533,8.533H460.84c9.426,0,17.067-7.641,17.067-17.067V308.28     C477.907,298.854,470.266,291.213,460.84,291.213z" fill="#FFFFFF"/>
			<path d="M170.167,410.141c3.292-3.292,3.338-8.614,0.104-11.962l-6.673-6.673c3.029-4.537,5.153-9.616,6.255-14.959h9.387     c4.713,0,8.533-3.82,8.533-8.533s-3.82-8.533-8.533-8.533h-9.387c-1.099-5.342-3.22-10.422-6.246-14.959l6.673-6.673     c3.234-3.348,3.188-8.671-0.104-11.962c-3.292-3.292-8.614-3.338-11.962-0.104l-6.673,6.673     c-4.539-3.03-9.622-5.154-14.967-6.255v-9.387c0-4.713-3.82-8.533-8.533-8.533s-8.533,3.82-8.533,8.533v9.387     c-5.342,1.099-10.422,3.22-14.959,6.246l-6.673-6.673c-2.143-2.218-5.315-3.108-8.299-2.327s-5.313,3.111-6.094,6.094     s0.109,6.156,2.327,8.299l6.673,6.673c-3.03,4.539-5.154,9.622-6.255,14.967H76.84c-4.713,0-8.533,3.82-8.533,8.533     s3.82,8.533,8.533,8.533h9.387c1.099,5.342,3.22,10.422,6.246,14.959l-6.673,6.673c-2.218,2.143-3.108,5.315-2.327,8.299     c0.781,2.984,3.111,5.313,6.094,6.094s6.156-0.109,8.299-2.327l6.673-6.673c4.539,3.03,9.622,5.154,14.967,6.255v9.387     c0,4.713,3.82,8.533,8.533,8.533s8.533-3.82,8.533-8.533v-9.387c5.343-1.102,10.422-3.226,14.959-6.255l6.673,6.673     C161.554,413.479,166.876,413.432,170.167,410.141z M128.04,393.613c-14.138,0-25.6-11.461-25.6-25.6s11.461-25.6,25.6-25.6     s25.6,11.461,25.6,25.6S142.178,393.613,128.04,393.613z" fill="#FFFFFF"/>
			<path d="M290.173,342.413h25.6c4.713,0,8.533-3.821,8.533-8.533c0-4.713-3.82-8.533-8.533-8.533h-25.6     c-4.713,0-8.533,3.821-8.533,8.533C281.64,338.593,285.461,342.413,290.173,342.413z" fill="#FFFFFF"/>
			<path d="M290.173,376.547h25.6c4.713,0,8.533-3.82,8.533-8.533s-3.82-8.533-8.533-8.533h-25.6c-4.713,0-8.533,3.82-8.533,8.533     S285.461,376.547,290.173,376.547z" fill="#FFFFFF"/>
			<path d="M290.173,410.68h25.6c4.713,0,8.533-3.82,8.533-8.533s-3.82-8.533-8.533-8.533h-25.6c-4.713,0-8.533,3.821-8.533,8.533     S285.461,410.68,290.173,410.68z" fill="#FFFFFF"/>
			<path d="M349.907,342.413h25.6c4.713,0,8.533-3.821,8.533-8.533c0-4.713-3.82-8.533-8.533-8.533h-25.6     c-4.713,0-8.533,3.821-8.533,8.533C341.373,338.593,345.194,342.413,349.907,342.413z" fill="#FFFFFF"/>
			<path d="M349.907,376.547h25.6c4.713,0,8.533-3.82,8.533-8.533s-3.82-8.533-8.533-8.533h-25.6c-4.713,0-8.533,3.82-8.533,8.533     S345.194,376.547,349.907,376.547z" fill="#FFFFFF"/>
			<path d="M349.907,410.68h25.6c4.713,0,8.533-3.82,8.533-8.533s-3.82-8.533-8.533-8.533h-25.6c-4.713,0-8.533,3.821-8.533,8.533     S345.194,410.68,349.907,410.68z" fill="#FFFFFF"/>
			<path d="M409.64,342.413h25.6c4.713,0,8.533-3.821,8.533-8.533c0-4.713-3.82-8.533-8.533-8.533h-25.6     c-4.713,0-8.533,3.821-8.533,8.533C401.107,338.593,404.927,342.413,409.64,342.413z" fill="#FFFFFF"/>
			<path d="M409.64,376.547h25.6c4.713,0,8.533-3.82,8.533-8.533s-3.82-8.533-8.533-8.533h-25.6c-4.713,0-8.533,3.82-8.533,8.533     S404.927,376.547,409.64,376.547z" fill="#FFFFFF"/>
			<path d="M409.64,410.68h25.6c4.713,0,8.533-3.82,8.533-8.533s-3.82-8.533-8.533-8.533h-25.6c-4.713,0-8.533,3.821-8.533,8.533     S404.927,410.68,409.64,410.68z" fill="#FFFFFF"/>
			<path d="M264.573,77.88c0-4.713-3.82-8.533-8.533-8.533c-4.713,0-8.533,3.82-8.533,8.533v59.733c0,2.263,0.9,4.433,2.5,6.033     l42.667,42.667c3.348,3.234,8.671,3.188,11.962-0.104c3.292-3.292,3.338-8.614,0.104-11.962l-40.166-40.166V77.88z" fill="#FFFFFF"/>
			<path d="M247.507,52.28h17.067c4.713,0,8.533-3.82,8.533-8.533s-3.821-8.533-8.533-8.533h-17.067     c-4.713,0-8.533,3.82-8.533,8.533S242.794,52.28,247.507,52.28z" fill="#FFFFFF"/>
			<path d="M273.107,231.48c0-4.713-3.821-8.533-8.533-8.533h-17.067c-4.713,0-8.533,3.82-8.533,8.533s3.82,8.533,8.533,8.533     h17.067C269.286,240.013,273.107,236.193,273.107,231.48z" fill="#FFFFFF"/>
			<path d="M197.966,56.848c-2.984-0.781-6.156,0.109-8.299,2.327l-12.066,12.066c-2.218,2.143-3.108,5.315-2.327,8.299     c0.781,2.984,3.111,5.314,6.094,6.094c2.983,0.781,6.156-0.109,8.299-2.327l12.066-12.066c2.218-2.143,3.108-5.315,2.327-8.299     C203.28,59.959,200.95,57.629,197.966,56.848z" fill="#FFFFFF"/>
			<path d="M314.114,218.379c2.984,0.781,6.156-0.109,8.299-2.327l12.066-12.066c2.218-2.143,3.108-5.315,2.327-8.299     s-3.111-5.313-6.094-6.094c-2.984-0.781-6.156,0.109-8.299,2.327l-12.066,12.066c-2.218,2.142-3.108,5.315-2.327,8.299     S311.13,217.598,314.114,218.379z" fill="#FFFFFF"/>
			<path d="M162.173,129.08c-4.713,0-8.533,3.82-8.533,8.533v17.067c0,4.713,3.82,8.533,8.533,8.533s8.533-3.821,8.533-8.533     v-17.067C170.707,132.9,166.886,129.08,162.173,129.08z" fill="#FFFFFF"/>
			<path d="M349.907,154.68c4.713,0,8.533-3.821,8.533-8.533V129.08c0-4.713-3.82-8.533-8.533-8.533s-8.533,3.82-8.533,8.533v17.067     C341.373,150.859,345.194,154.68,349.907,154.68z" fill="#FFFFFF"/>
			<path d="M189.668,191.919c-2.143-2.218-5.315-3.108-8.299-2.327c-2.984,0.781-5.314,3.111-6.094,6.094     c-0.781,2.984,0.109,6.156,2.327,8.299l12.066,12.066c2.143,2.218,5.315,3.108,8.299,2.327s5.314-3.111,6.094-6.094     c0.781-2.984-0.109-6.156-2.327-8.299L189.668,191.919z" fill="#FFFFFF"/>
			<path d="M322.412,83.307c3.348,3.234,8.671,3.188,11.962-0.104c3.292-3.292,3.338-8.614,0.104-11.962l-12.066-12.066     c-3.348-3.234-8.671-3.188-11.962,0.104c-3.292,3.292-3.338,8.614-0.104,11.962L322.412,83.307z" fill="#FFFFFF"/>
		</g>
	</g>
</g>
<g>
</g>
<g>
</g>
<g>
</g>
<g>
</g>
<g>
</g>
<g>
</g>
<g>
</g>
<g>
</g>
<g>
</g>
<g>
</g>
<g>
</g>
<g>
</g>
<g>
</g>
<g>
</g>
<g>
</g>
</svg>
