<svg xmlns="http://www.w3.org/2000/svg" xmlns:xlink="http://www.w3.org/1999/xlink" viewBox="0 0 582.76 618.49"><defs><style>.cls-1,.cls-16{fill:none;}.cls-2{isolation:isolate;}.cls-3{fill:#287e7f;}.cls-4{fill:#313a3f;}.cls-5{fill:#42b4bc;}.cls-6{fill:#ce5ba6;}.cls-7{clip-path:url(#clip-path);}.cls-8{fill:#8e3f72;}.cls-9{fill:#421d35;}.cls-10{fill:#4f233f;}.cls-11{fill:#153b3c;}.cls-12{mix-blend-mode:multiply;}.cls-13{fill:#726658;}.cls-14{fill:#2b2b2b;}.cls-15{fill:#fff;}.cls-16{stroke:#fff;stroke-miterlimit:10;stroke-width:7px;}</style><clipPath id="clip-path" transform="translate(-4.93 -14.81)"><path class="cls-1" d="M371.33,260.85c-7.9,7.32-14.84,5.89-18.21,4.38-4.27-1.93-5.43-3.23-8.34-5.94l-.2-.21a20.17,20.17,0,0,0-28.53,0l-25,25a20.18,20.18,0,0,1-28.53-28.54l82-82a20.18,20.18,0,0,0,1-27.48h.08c-3.57-4-4.95-4.79-7.13-9.64C337,133,335.56,126,342.88,118.14l30.24-30.26a20.18,20.18,0,1,0-28.54-28.54L324.9,79c-7.9,7.32-14.85,5.9-18.22,4.38a22.37,22.37,0,0,1-7.4-5.06c-.34-.4-.69-.79-1.07-1.16a20.17,20.17,0,0,0-28.53,0L5.74,341.12a20.17,20.17,0,0,0,28.53,28.53l23.2-23.2A20.18,20.18,0,0,1,86,375L37.84,423.15a20.17,20.17,0,0,0,28.53,28.53l42.8-42.8a20.18,20.18,0,1,1,28.54,28.54L37.84,537.29a20.17,20.17,0,1,0,28.53,28.53l82-82a20.17,20.17,0,0,1,28.53,28.53l3.17-3.17a20.18,20.18,0,1,0,28.54,28.53l5.76-5.76a20.18,20.18,0,0,1,28.53,28.54l1.77-1.77a20.18,20.18,0,0,0,28.54,28.53L537.19,323.28a20.18,20.18,0,1,0-28.54-28.53l-7.13,7.13A20.17,20.17,0,0,1,473,273.35l46.76-46.77a20.17,20.17,0,1,0-28.53-28.53l-2.29,2.29c-7.05,5.36-13.12,4.06-16.2,2.67-4.08-1.84-5.32-3.12-8-5.6-.22-.25-.45-.5-.69-.74a20.19,20.19,0,0,0-28.54,0Z"/></clipPath></defs><title>logo_movie_night</title><g class="cls-2"><g id="Calque_1" data-name="Calque 1"><path class="cls-3" d="M372,262.35c-7.8,7.25-14.67,5.85-18,4.35-4.22-1.89-5.37-3.17-8.25-5.85l-.2-.21a20,20,0,0,0-28.21.05l-24.64,24.73a19.95,19.95,0,0,1-28.26-28.16l81-81.24a20,20,0,0,0,.91-27.17h.08c-3.53-3.91-4.9-4.73-7.07-9.52-1.51-3.33-2.93-10.19,4.29-18l29.84-30a19.95,19.95,0,0,0-28.26-28.16L325.8,82.67c-7.8,7.25-14.67,5.86-18,4.36a22.13,22.13,0,0,1-7.33-5c-.34-.39-.68-.78-1.06-1.15a19.94,19.94,0,0,0-28.2.06L10.75,342.35A19.95,19.95,0,0,0,39,370.51l22.89-23a19.95,19.95,0,1,1,28.26,28.16l-47.53,47.7a19.95,19.95,0,0,0,28.26,28.16l42.23-42.39a19.95,19.95,0,1,1,28.26,28.16L42.83,536.23a19.94,19.94,0,1,0,28.26,28.15l81-81.24a19.95,19.95,0,1,1,28.26,28.16l3.13-3.14a19.94,19.94,0,0,0,28.25,28.15l5.69-5.7a19.95,19.95,0,1,1,28.26,28.16l1.75-1.76a19.95,19.95,0,0,0,28.26,28.16L536.1,323.77a19.95,19.95,0,0,0-28.26-28.16l-7,7.06a19.94,19.94,0,1,1-28.25-28.15l46.14-46.32A19.95,19.95,0,1,0,490.43,200l-2.25,2.27c-7,5.32-13,4-16,2.67-4-1.81-5.27-3.07-7.9-5.52-.22-.25-.45-.49-.69-.73a20,20,0,0,0-28.21.05Z" transform="translate(-4.93 -14.81)"/><path class="cls-1" d="M343.75,178.18l.07-32.37a20.77,20.77,0,0,1-4.08-6.32c-1.49-3.3-2.87-10.07,4.13-17.79L344,65.12,336.2,72.9,336,186Z" transform="translate(-4.93 -14.81)"/><path class="cls-1" d="M329.22,192.71l.23-113.06-3.16,3.16a23.54,23.54,0,0,1-4.62,3.39l-.23,114.29Z" transform="translate(-4.93 -14.81)"/><polygon class="cls-1" points="69.38 489.22 69.27 545.75 77.05 537.97 77.16 481.44 69.38 489.22"/><path class="cls-1" d="M372.93,92.59,373,62.47a19.87,19.87,0,0,0-7.76-4.21l-.08,42.12Z" transform="translate(-4.93 -14.81)"/><polygon class="cls-1" points="83.92 474.69 83.8 531.22 91.58 523.44 91.69 466.91 83.92 474.69"/><polygon class="cls-1" points="98.44 460.16 98.33 516.69 106.11 508.91 106.22 452.38 98.44 460.16"/><path class="cls-1" d="M358.4,107.13l.09-49.56a19.82,19.82,0,0,0-7.76,2.15l-.12,55.2Z" transform="translate(-4.93 -14.81)"/><path class="cls-1" d="M350.53,155.7l0,12.83A20.05,20.05,0,0,0,350.53,155.7Z" transform="translate(-4.93 -14.81)"/><path class="cls-1" d="M285.63,236.3,286,75.14a20,20,0,0,0-7.76,1.51l-.34,167.43Z" transform="translate(-4.93 -14.81)"/><polygon class="cls-1" points="396.71 218.31 396.71 218.3 388.94 226.08 388.94 226.09 396.71 218.31"/><polygon class="cls-1" points="382.19 232.84 382.19 232.83 374.41 240.61 374.41 240.62 382.19 232.84"/><path class="cls-1" d="M59.78,518.57l-.1,51.07a19.78,19.78,0,0,0,7.77-2.95l.11-55.9Z" transform="translate(-4.93 -14.81)"/><path class="cls-1" d="M435.69,199.08l0,0L408.4,226.37h0Z" transform="translate(-4.93 -14.81)"/><path class="cls-1" d="M300.16,221.77l.28-140.21c-.17-.19-.34-.39-.53-.58a19.92,19.92,0,0,0-7.22-4.6l-.31,153.17Z" transform="translate(-4.93 -14.81)"/><path class="cls-1" d="M379.7,75.46v4A20.2,20.2,0,0,0,379.7,75.46Z" transform="translate(-4.93 -14.81)"/><path class="cls-1" d="M264.65,257.29l6.45-6.46.34-169.59L263.66,89l-.34,169.73C263.74,258.25,264.18,257.76,264.65,257.29Z" transform="translate(-4.93 -14.81)"/><polygon class="cls-1" points="69.61 376.16 69.5 432.69 77.28 424.91 77.39 368.38 69.61 376.16"/><path class="cls-1" d="M45.25,533.1l-.06,33.18A19.72,19.72,0,0,0,53,569.55L53,525.32Z" transform="translate(-4.93 -14.81)"/><path class="cls-1" d="M60,405.5l-.1,51.27a20,20,0,0,0,7.77-3.06l.11-56Z" transform="translate(-4.93 -14.81)"/><path class="cls-1" d="M45.48,420l-.07,33.58a19.73,19.73,0,0,0,7.76,3.14l.09-44.5Z" transform="translate(-4.93 -14.81)"/><path class="cls-1" d="M16.65,336l-.08,38.1a20,20,0,0,0,7.76,1.81l.1-47.69Z" transform="translate(-4.93 -14.81)"/><path class="cls-1" d="M132.89,219.79l-.37,184a19.66,19.66,0,0,1,7.75,4.22l.4-196Z" transform="translate(-4.93 -14.81)"/><polygon class="cls-1" points="112.97 445.63 112.86 502.16 120.64 494.38 120.75 437.85 112.97 445.63"/><polygon class="cls-1" points="127.5 431.1 127.39 487.63 135.17 479.85 135.28 423.32 127.5 431.1"/><path class="cls-1" d="M38.69,445.85l0-17.55A20,20,0,0,0,38.69,445.85Z" transform="translate(-4.93 -14.81)"/><path class="cls-1" d="M9.84,369.1l.06-26.22A19.92,19.92,0,0,0,9.84,369.1Z" transform="translate(-4.93 -14.81)"/><polygon class="cls-1" points="98.9 234.04 98.56 403.63 106.34 395.85 106.68 226.26 98.9 234.04"/><path class="cls-1" d="M118.36,234.32l-.34,171a20,20,0,0,1,7.76-2.14l.36-176.59Z" transform="translate(-4.93 -14.81)"/><path class="cls-1" d="M89.3,263.38l-.17,82.92c.33.29.67.57,1,.89a20,20,0,0,1,0,28.21l-1.05,1L89,433l7.78-7.78.34-169.59Z" transform="translate(-4.93 -14.81)"/><path class="cls-1" d="M74.77,277.91l-.13,63.5a19.91,19.91,0,0,1,7.76,1l.15-72.29Z" transform="translate(-4.93 -14.81)"/><polygon class="cls-1" points="40.78 292.16 40.66 348.69 48.44 340.91 48.56 284.38 40.78 292.16"/><path class="cls-1" d="M31.18,321.5,31.07,375a19.77,19.77,0,0,0,7.77-4.72L39,313.72Z" transform="translate(-4.93 -14.81)"/><path class="cls-1" d="M60.24,292.44,60.12,349l1.79-1.78a19.75,19.75,0,0,1,6-4.1L68,284.66Z" transform="translate(-4.93 -14.81)"/><path class="cls-1" d="M314.69,207.24l.24-118.94a13.89,13.89,0,0,1-6.65-1.17l-1.11-.52L306.91,215Z" transform="translate(-4.93 -14.81)"/><polygon class="cls-1" points="236.88 378.14 237.45 95.48 229.67 103.27 229.1 385.92 236.88 378.14"/><polygon class="cls-1" points="251.41 363.61 251.98 80.95 244.2 88.73 243.63 371.39 251.41 363.61"/><polygon class="cls-1" points="222.35 392.67 222.92 110.02 215.14 117.8 214.57 400.45 222.35 392.67"/><polygon class="cls-1" points="207.82 407.2 208.39 124.54 200.61 132.32 200.04 414.98 207.82 407.2"/><path class="cls-1" d="M285.4,349.37l.12-59.24a20,20,0,0,1-7.76,1.16l-.14,65.86Z" transform="translate(-4.93 -14.81)"/><path class="cls-1" d="M270.87,363.9l.15-74.13a19.75,19.75,0,0,1-6.37-4.28c-.49-.49-.95-1-1.38-1.52l-.18,87.71Z" transform="translate(-4.93 -14.81)"/><polygon class="cls-1" points="164.23 450.79 164.8 168.13 157.02 175.91 156.45 458.57 164.23 450.79"/><path class="cls-1" d="M155.2,197.48l-7.78,7.78L147,421.13a20.53,20.53,0,0,1,0,3.84l-.13,62.94,5-5,0,0,2.79-2.79Z" transform="translate(-4.93 -14.81)"/><path class="cls-1" d="M536.16,296.07a20,20,0,0,0-28.21,0l-7.05,7.05a19.94,19.94,0,0,1-28.21-28.2l46.23-46.24a19.94,19.94,0,0,0-28.21-28.2l-2.26,2.26c-7,5.3-13,4-16,2.64-4-1.82-5.27-3.08-7.89-5.54-.22-.24-.45-.49-.69-.72a19.94,19.94,0,0,0-28.17,0L408.4,226.37l-6.75,6.76-7.78,7.77-6.75,6.76-7.78,7.77-6.75,6.75L364.81,270l-6.75,6.75-7.79,7.78-6.74,6.74L335.74,299,329,305.78l-7.78,7.78-6.75,6.75-7.78,7.78-6.74,6.75-7.79,7.78-6.75,6.75-7.78,7.78-6.75,6.75-7.78,7.78-6.75,6.75-7.78,7.78L241.81,393,234,400.74l-6.75,6.75-7.78,7.78L212.75,422,205,429.8l-6.75,6.75-7.78,7.78-6.75,6.75-7.78,7.78-6.75,6.75-7.78,7.78-6.75,6.75-2.79,2.79A19.94,19.94,0,0,1,180,511.16l3.14-3.13a19.94,19.94,0,1,0,28.2,28.21l5.7-5.7a19.95,19.95,0,0,1,28.21,28.21L247,557a19.95,19.95,0,1,0,28.21,28.21L536.16,324.28A20,20,0,0,0,536.16,296.07Z" transform="translate(-4.93 -14.81)"/><polygon class="cls-1" points="193.29 421.73 193.86 139.07 186.08 146.85 185.51 429.51 193.29 421.73"/><path class="cls-1" d="M372.59,262.18h0l-.39.39a21.36,21.36,0,0,1-7.39,4.66V270Z" transform="translate(-4.93 -14.81)"/><path class="cls-1" d="M299.94,334.84l.11-56.54-7.19,7.19c-.19.19-.4.36-.59.54l-.12,56.59Z" transform="translate(-4.93 -14.81)"/><polygon class="cls-1" points="178.76 436.26 179.33 153.61 171.55 161.38 170.98 444.04 178.76 436.26"/><path class="cls-1" d="M358.06,276.72V268a14.12,14.12,0,0,1-3.88-1.09,24.91,24.91,0,0,1-3.88-2.11l0,19.72Z" transform="translate(-4.93 -14.81)"/><polygon class="cls-1" points="309.54 305.49 309.65 248.96 301.87 256.74 301.75 313.27 309.54 305.49"/><path class="cls-1" d="M343.53,291.24l.06-32.27a19.73,19.73,0,0,0-7.76-3.54l-.09,43.6Z" transform="translate(-4.93 -14.81)"/><path class="cls-1" d="M329,305.78l.11-50.63a19.86,19.86,0,0,0-7.77,2.72l-.12,55.69Z" transform="translate(-4.93 -14.81)"/><path class="cls-1" d="M38.47,558.2l0-16.57A20,20,0,0,0,38.47,558.2Z" transform="translate(-4.93 -14.81)"/><path class="cls-4" d="M10.77,341.91c-.31.31-.59.64-.87,1L9.84,369.1c.3.34.6.69.93,1a19.8,19.8,0,0,0,5.8,4l.08-38.1Z" transform="translate(-4.93 -14.81)"/><path class="cls-4" d="M24.43,328.25l-.1,47.69a20.1,20.1,0,0,0,6.74-1l.11-53.46Z" transform="translate(-4.93 -14.81)"/><path class="cls-4" d="M39,313.72l-.12,56.52.14-.12,6.61-6.62L45.71,307Z" transform="translate(-4.93 -14.81)"/><path class="cls-4" d="M42.5,423a20,20,0,0,0-3.77,5.29l0,17.55a19.52,19.52,0,0,0,6.72,7.76L45.48,420Z" transform="translate(-4.93 -14.81)"/><path class="cls-4" d="M42.5,535.85a19.87,19.87,0,0,0-4,5.78l0,16.57a19.12,19.12,0,0,0,6.72,8.08l.06-33.18Z" transform="translate(-4.93 -14.81)"/><path class="cls-4" d="M53,525.32,53,569.55a19.75,19.75,0,0,0,6.73.09l.1-51.07Z" transform="translate(-4.93 -14.81)"/><polygon class="cls-4" points="48.56 284.38 48.44 340.91 55.19 334.16 55.31 277.63 48.56 284.38"/><path class="cls-4" d="M53.26,412.25l-.09,44.5a20.07,20.07,0,0,0,6.74,0L60,405.5Z" transform="translate(-4.93 -14.81)"/><path class="cls-4" d="M68,284.66l-.12,58.43a19.89,19.89,0,0,1,6.74-1.68l.13-63.5Z" transform="translate(-4.93 -14.81)"/><path class="cls-4" d="M67.56,510.79l-.11,55.9a19.78,19.78,0,0,0,3.26-2.63l3.49-3.49L74.31,504Z" transform="translate(-4.93 -14.81)"/><path class="cls-4" d="M67.79,397.72l-.11,56a20.35,20.35,0,0,0,3-2.49l3.72-3.72L74.54,391Z" transform="translate(-4.93 -14.81)"/><polygon class="cls-4" points="77.39 368.38 77.28 424.91 84.03 418.16 84.14 361.63 77.39 368.38"/><polygon class="cls-4" points="77.16 481.44 77.05 537.97 83.8 531.22 83.92 474.69 77.16 481.44"/><path class="cls-4" d="M82.55,270.13l-.15,72.29a19.69,19.69,0,0,1,6.73,3.88l.17-82.92Z" transform="translate(-4.93 -14.81)"/><polygon class="cls-4" points="92.15 240.79 91.81 410.38 98.56 403.63 98.9 234.04 92.15 240.79"/><polygon class="cls-4" points="91.69 466.91 91.58 523.44 98.33 516.69 98.44 460.16 91.69 466.91"/><polygon class="cls-4" points="106.22 452.38 106.11 508.91 112.86 502.16 112.97 445.63 106.22 452.38"/><path class="cls-4" d="M111.61,241.07l-.34,169.59,1.75-1.75a20.05,20.05,0,0,1,5-3.64l.34-170.95Z" transform="translate(-4.93 -14.81)"/><path class="cls-4" d="M126.14,226.54l-.36,176.59a19.94,19.94,0,0,1,6.74.69l.37-184Z" transform="translate(-4.93 -14.81)"/><polygon class="cls-4" points="120.75 437.85 120.64 494.38 127.39 487.63 127.5 431.1 120.75 437.85"/><path class="cls-4" d="M141.23,437.12l-1,1-.11,56.53,6.75-6.76L147,425A19.91,19.91,0,0,1,141.23,437.12Z" transform="translate(-4.93 -14.81)"/><path class="cls-4" d="M140.67,212l-.4,196c.33.28.66.56,1,.87A19.83,19.83,0,0,1,147,421.13l.43-215.87Z" transform="translate(-4.93 -14.81)"/><polygon class="cls-4" points="156.45 458.57 157.02 175.91 150.27 182.67 149.7 465.32 156.45 458.57"/><polygon class="cls-4" points="170.98 444.04 171.55 161.38 164.8 168.13 164.23 450.79 170.98 444.04"/><polygon class="cls-4" points="185.51 429.51 186.08 146.85 179.33 153.61 178.76 436.26 185.51 429.51"/><polygon class="cls-4" points="200.04 414.98 200.61 132.32 193.86 139.07 193.29 421.73 200.04 414.98"/><polygon class="cls-4" points="214.57 400.45 215.14 117.8 208.39 124.54 207.82 407.2 214.57 400.45"/><polygon class="cls-4" points="229.1 385.92 229.67 103.27 222.92 110.02 222.35 392.67 229.1 385.92"/><polygon class="cls-4" points="243.63 371.39 244.2 88.73 237.45 95.48 236.88 378.14 243.63 371.39"/><path class="cls-4" d="M263.09,371.68l.18-87.71a20,20,0,0,1,.05-25.22L263.66,89l-6.75,6.75-.57,282.66Z" transform="translate(-4.93 -14.81)"/><path class="cls-4" d="M277.85,244.08l.34-167.43A19.8,19.8,0,0,0,271.7,81l-.26.26-.34,169.59Z" transform="translate(-4.93 -14.81)"/><path class="cls-4" d="M277.62,357.15l.14-65.86a20,20,0,0,1-6.74-1.52l-.15,74.13Z" transform="translate(-4.93 -14.81)"/><path class="cls-4" d="M292.38,229.55l.31-153.17A20,20,0,0,0,286,75.14l-.32,161.16Z" transform="translate(-4.93 -14.81)"/><path class="cls-4" d="M292.15,342.62l.12-56.59a19.79,19.79,0,0,1-6.75,4.1l-.12,59.24Z" transform="translate(-4.93 -14.81)"/><polygon class="cls-4" points="301.75 313.27 301.87 256.74 295.12 263.49 295 320.02 301.75 313.27"/><path class="cls-4" d="M306.91,215l.26-128.41A22,22,0,0,1,301,82.13c-.16-.2-.34-.38-.52-.57l-.28,140.21Z" transform="translate(-4.93 -14.81)"/><path class="cls-4" d="M321.21,313.56l.12-55.69a19.59,19.59,0,0,0-3.79,2.94l-3,3-.12,56.54Z" transform="translate(-4.93 -14.81)"/><path class="cls-4" d="M321.44,200.49l.23-114.29a16.07,16.07,0,0,1-6.74,2.1l-.24,118.94Z" transform="translate(-4.93 -14.81)"/><path class="cls-4" d="M335.74,299l.09-43.6a19.77,19.77,0,0,0-6.73-.28L329,305.78Z" transform="translate(-4.93 -14.81)"/><polygon class="cls-4" points="331.04 171.15 331.27 58.08 324.52 64.83 324.29 177.9 331.04 171.15"/><path class="cls-4" d="M345.75,176.18a19.94,19.94,0,0,0,4.76-7.65l0-12.83a19.57,19.57,0,0,0-3.82-6.68h.08c-1.2-1.34-2.15-2.32-3-3.21l-.07,32.37Z" transform="translate(-4.93 -14.81)"/><path class="cls-4" d="M350.27,284.5l0-19.72a38.25,38.25,0,0,1-4.37-3.76l-.19-.21a19.65,19.65,0,0,0-2.16-1.84l-.06,32.27Z" transform="translate(-4.93 -14.81)"/><path class="cls-4" d="M344.06,121.48l6.55-6.56.12-55.2a19.73,19.73,0,0,0-5,3.63L344,65.12l-.11,56.58C343.94,121.63,344,121.55,344.06,121.48Z" transform="translate(-4.93 -14.81)"/><path class="cls-4" d="M364.81,270v-2.75a14.51,14.51,0,0,1-6.74.76v8.74Z" transform="translate(-4.93 -14.81)"/><path class="cls-4" d="M365.15,100.38l.08-42.12a19.94,19.94,0,0,0-6.74-.69l-.09,49.56Z" transform="translate(-4.93 -14.81)"/><path class="cls-4" d="M374,91.56a19.89,19.89,0,0,0,5.73-12.06v-4A19.85,19.85,0,0,0,374,63.35c-.32-.31-.65-.59-1-.88l-.06,30.12Z" transform="translate(-4.93 -14.81)"/><polygon class="cls-4" points="374.41 240.62 374.41 240.61 367.66 247.36 367.66 247.37 374.41 240.62"/><polygon class="cls-4" points="388.94 226.09 388.94 226.08 382.19 232.83 382.19 232.84 388.94 226.09"/><polygon class="cls-4" points="403.47 211.56 403.47 211.55 396.71 218.3 396.71 218.31 403.47 211.56"/><path class="cls-5" d="M562.62,225.67c-1.71,1.71-4.09,1-6.4.24-2.14-.67-4.17-1.31-5.5,0s-.7,3.36,0,5.51c.72,2.3,1.47,4.68-.24,6.39s-4.09,1-6.4.24c-2.14-.68-4.17-1.31-5.5,0s-.7,3.36,0,5.5c.72,2.31,1.47,4.69-.24,6.4s-4.09,1-6.39.24c-2.15-.68-4.18-1.31-5.51,0s-.69,3.35,0,5.5c.72,2.31,1.47,4.69-.23,6.4s-4.1,1-6.4.23-4.18-1.31-5.51,0-.69,3.36,0,5.51,1.48,4.69-.23,6.39-4.09,1-6.4.24c-2.14-.67-4.17-1.31-5.5,0s-.7,3.36,0,5.51c.72,2.3,1.47,4.68-.24,6.39s-4.09,1-6.39.24c-2.15-.68-4.18-1.32-5.51,0l-.62-.62c1.71-1.71,4.09-1,6.39-.24s4.18,1.32,5.51,0,.69-3.36,0-5.51c-.73-2.31-1.48-4.69.23-6.4s4.09-1,6.4-.23c2.15.67,4.17,1.31,5.5,0s.7-3.36,0-5.51c-.72-2.3-1.47-4.68.24-6.39s4.09-1,6.39-.24,4.18,1.31,5.51,0,.69-3.35,0-5.5c-.72-2.31-1.47-4.69.23-6.4s4.1-1,6.4-.24,4.18,1.32,5.51,0,.69-3.36,0-5.51c-.73-2.3-1.48-4.69.23-6.4s4.09-1,6.4-.23c2.15.67,4.18,1.31,5.51,0s.69-3.36,0-5.51-1.47-4.69.24-6.4,4.09-1,6.4-.23c2.15.67,4.17,1.31,5.51,0s.69-3.36,0-5.51-1.47-4.69.24-6.4l.63.63c-1.33,1.33-.7,3.36,0,5.51C563.58,221.58,564.33,224,562.62,225.67Z" transform="translate(-4.93 -14.81)"/><path class="cls-6" d="M85.77,574.72c1.71-1.71,4.09-1,6.39-.24s4.18,1.31,5.51,0,.69-3.36,0-5.5c-.73-2.31-1.47-4.69.24-6.4s4.09-1,6.39-.24,4.18,1.32,5.51,0,.69-3.36,0-5.51c-.73-2.31-1.47-4.69.23-6.4s4.1-1,6.4-.23c2.15.67,4.18,1.31,5.51,0s.69-3.36,0-5.51-1.48-4.69.23-6.4,4.09-1,6.4-.23c2.14.67,4.17,1.31,5.5,0s.7-3.36,0-5.51c-.72-2.3-1.47-4.68.24-6.39s4.09-1,6.39-.24,4.18,1.32,5.51,0,.69-3.35,0-5.5c-.73-2.31-1.48-4.69.23-6.4s4.09-1,6.4-.23c2.15.67,4.18,1.31,5.51,0l.62.62c-1.71,1.71-4.09,1-6.4.24-2.14-.68-4.17-1.31-5.5,0s-.69,3.36,0,5.5c.72,2.31,1.47,4.69-.24,6.4s-4.09,1-6.39.23c-2.15-.67-4.18-1.31-5.51,0s-.69,3.36,0,5.51,1.47,4.69-.24,6.4-4.09,1-6.4.23c-2.15-.67-4.17-1.31-5.5,0s-.7,3.36,0,5.5c.72,2.31,1.47,4.69-.24,6.4s-4.09,1-6.39.24-4.18-1.31-5.51,0-.69,3.36,0,5.5c.73,2.31,1.47,4.69-.24,6.4s-4.09,1-6.39.24-4.18-1.32-5.51,0-.69,3.36,0,5.51c.73,2.31,1.47,4.69-.23,6.4s-4.1,1-6.4.24-4.18-1.32-5.51,0-.69,3.36,0,5.51c.73,2.31,1.48,4.69-.24,6.4l-.62-.63c1.33-1.33.69-3.36,0-5.5C84.81,578.81,84.06,576.43,85.77,574.72Z" transform="translate(-4.93 -14.81)"/><g class="cls-7"><rect class="cls-6" x="127.57" y="384.67" width="501.61" height="83.51" transform="translate(-195.64 377.64) rotate(-45)"/><path class="cls-8" d="M555.55,304.3a3.75,3.75,0,1,1,5.3,0A3.76,3.76,0,0,1,555.55,304.3Z" transform="translate(-4.93 -14.81)"/><path class="cls-8" d="M548.47,311.37a3.75,3.75,0,1,1,5.31,0A3.75,3.75,0,0,1,548.47,311.37Z" transform="translate(-4.93 -14.81)"/><path class="cls-8" d="M541.4,318.44a3.75,3.75,0,1,1,5.3,0A3.75,3.75,0,0,1,541.4,318.44Z" transform="translate(-4.93 -14.81)"/><path class="cls-8" d="M534.33,325.51a3.75,3.75,0,1,1,5.3,0A3.75,3.75,0,0,1,534.33,325.51Z" transform="translate(-4.93 -14.81)"/><path class="cls-8" d="M527.26,332.59a3.75,3.75,0,1,1,5.3,0A3.75,3.75,0,0,1,527.26,332.59Z" transform="translate(-4.93 -14.81)"/><path class="cls-8" d="M520.19,339.66a3.75,3.75,0,1,1,5.3,0A3.75,3.75,0,0,1,520.19,339.66Z" transform="translate(-4.93 -14.81)"/><path class="cls-8" d="M513.12,346.73a3.75,3.75,0,1,1,5.3,0A3.75,3.75,0,0,1,513.12,346.73Z" transform="translate(-4.93 -14.81)"/><path class="cls-8" d="M506,353.8a3.75,3.75,0,1,1,5.31,0A3.75,3.75,0,0,1,506,353.8Z" transform="translate(-4.93 -14.81)"/><path class="cls-8" d="M499,360.87a3.75,3.75,0,1,1,5.31,0A3.75,3.75,0,0,1,499,360.87Z" transform="translate(-4.93 -14.81)"/><path class="cls-8" d="M491.9,367.94a3.75,3.75,0,1,1,5.3,0A3.75,3.75,0,0,1,491.9,367.94Z" transform="translate(-4.93 -14.81)"/><path class="cls-8" d="M484.83,375a3.75,3.75,0,1,1,5.3,0A3.74,3.74,0,0,1,484.83,375Z" transform="translate(-4.93 -14.81)"/><path class="cls-8" d="M477.76,382.09a3.75,3.75,0,1,1,5.3,0A3.75,3.75,0,0,1,477.76,382.09Z" transform="translate(-4.93 -14.81)"/><path class="cls-8" d="M470.69,389.16a3.75,3.75,0,1,1,5.3,0A3.76,3.76,0,0,1,470.69,389.16Z" transform="translate(-4.93 -14.81)"/><path class="cls-8" d="M463.61,396.23a3.75,3.75,0,1,1,5.31,0A3.75,3.75,0,0,1,463.61,396.23Z" transform="translate(-4.93 -14.81)"/><path class="cls-8" d="M456.54,403.3a3.75,3.75,0,1,1,5.31,0A3.75,3.75,0,0,1,456.54,403.3Z" transform="translate(-4.93 -14.81)"/><path class="cls-8" d="M449.47,410.37a3.75,3.75,0,1,1,5.31,0A3.75,3.75,0,0,1,449.47,410.37Z" transform="translate(-4.93 -14.81)"/><path class="cls-8" d="M442.4,417.44a3.75,3.75,0,1,1,5.3,0A3.74,3.74,0,0,1,442.4,417.44Z" transform="translate(-4.93 -14.81)"/><path class="cls-8" d="M435.33,424.52a3.75,3.75,0,1,1,5.3,0A3.75,3.75,0,0,1,435.33,424.52Z" transform="translate(-4.93 -14.81)"/><path class="cls-8" d="M428.26,431.59a3.75,3.75,0,1,1,5.3,0A3.74,3.74,0,0,1,428.26,431.59Z" transform="translate(-4.93 -14.81)"/><path class="cls-8" d="M421.18,438.66a3.75,3.75,0,1,1,5.31,0A3.75,3.75,0,0,1,421.18,438.66Z" transform="translate(-4.93 -14.81)"/><path class="cls-8" d="M414.11,445.73a3.75,3.75,0,1,1,5.31,0A3.75,3.75,0,0,1,414.11,445.73Z" transform="translate(-4.93 -14.81)"/><path class="cls-8" d="M407,452.8a3.75,3.75,0,1,1,5.3,0A3.74,3.74,0,0,1,407,452.8Z" transform="translate(-4.93 -14.81)"/><path class="cls-8" d="M400,459.87a3.75,3.75,0,1,1,5.3,0A3.75,3.75,0,0,1,400,459.87Z" transform="translate(-4.93 -14.81)"/><path class="cls-8" d="M392.9,467a3.75,3.75,0,1,1,5.3,0A3.75,3.75,0,0,1,392.9,467Z" transform="translate(-4.93 -14.81)"/><path class="cls-8" d="M385.83,474a3.75,3.75,0,1,1,5.3,0A3.75,3.75,0,0,1,385.83,474Z" transform="translate(-4.93 -14.81)"/><path class="cls-8" d="M378.75,481.09a3.75,3.75,0,1,1,5.31,0A3.75,3.75,0,0,1,378.75,481.09Z" transform="translate(-4.93 -14.81)"/><path class="cls-8" d="M371.68,488.16a3.75,3.75,0,1,1,5.3,0A3.77,3.77,0,0,1,371.68,488.16Z" transform="translate(-4.93 -14.81)"/><path class="cls-8" d="M364.61,495.23a3.75,3.75,0,1,1,5.3,0A3.75,3.75,0,0,1,364.61,495.23Z" transform="translate(-4.93 -14.81)"/><path class="cls-8" d="M357.54,502.3a3.75,3.75,0,1,1,5.3,0A3.74,3.74,0,0,1,357.54,502.3Z" transform="translate(-4.93 -14.81)"/><path class="cls-8" d="M350.47,509.38a3.75,3.75,0,1,1,5.3,0A3.75,3.75,0,0,1,350.47,509.38Z" transform="translate(-4.93 -14.81)"/><path class="cls-8" d="M343.4,516.45a3.75,3.75,0,1,1,5.3,0A3.75,3.75,0,0,1,343.4,516.45Z" transform="translate(-4.93 -14.81)"/><path class="cls-8" d="M336.32,523.52a3.75,3.75,0,1,1,5.31,0A3.76,3.76,0,0,1,336.32,523.52Z" transform="translate(-4.93 -14.81)"/><path class="cls-8" d="M329.25,530.59a3.75,3.75,0,1,1,5.3,0A3.75,3.75,0,0,1,329.25,530.59Z" transform="translate(-4.93 -14.81)"/><path class="cls-8" d="M322.18,537.66a3.75,3.75,0,1,1,5.3,0A3.75,3.75,0,0,1,322.18,537.66Z" transform="translate(-4.93 -14.81)"/><path class="cls-8" d="M315.11,544.73a3.75,3.75,0,1,1,5.3,0A3.75,3.75,0,0,1,315.11,544.73Z" transform="translate(-4.93 -14.81)"/><path class="cls-8" d="M308,551.8a3.75,3.75,0,1,1,5.3,0A3.74,3.74,0,0,1,308,551.8Z" transform="translate(-4.93 -14.81)"/><path class="cls-8" d="M301,558.88a3.75,3.75,0,1,1,5.3,0A3.75,3.75,0,0,1,301,558.88Z" transform="translate(-4.93 -14.81)"/><path class="cls-8" d="M293.89,566a3.75,3.75,0,1,1,5.31,0A3.75,3.75,0,0,1,293.89,566Z" transform="translate(-4.93 -14.81)"/><path class="cls-8" d="M286.82,573a3.75,3.75,0,1,1,5.31,0A3.77,3.77,0,0,1,286.82,573Z" transform="translate(-4.93 -14.81)"/><path class="cls-8" d="M279.75,580.09a3.75,3.75,0,1,1,5.3,0A3.75,3.75,0,0,1,279.75,580.09Z" transform="translate(-4.93 -14.81)"/><path class="cls-8" d="M272.68,587.16a3.75,3.75,0,1,1,5.3,0A3.75,3.75,0,0,1,272.68,587.16Z" transform="translate(-4.93 -14.81)"/><path class="cls-8" d="M265.61,594.24a3.75,3.75,0,1,1,5.3,0A3.75,3.75,0,0,1,265.61,594.24Z" transform="translate(-4.93 -14.81)"/><path class="cls-8" d="M258.54,601.31a3.75,3.75,0,1,1,5.3,0A3.75,3.75,0,0,1,258.54,601.31Z" transform="translate(-4.93 -14.81)"/><path class="cls-8" d="M251.47,608.38a3.75,3.75,0,1,1,5.3,0A3.74,3.74,0,0,1,251.47,608.38Z" transform="translate(-4.93 -14.81)"/><path class="cls-8" d="M548.47,297.23a3.75,3.75,0,1,1,5.31,0A3.77,3.77,0,0,1,548.47,297.23Z" transform="translate(-4.93 -14.81)"/><path class="cls-8" d="M541.4,304.3a3.75,3.75,0,1,1,5.31,0A3.77,3.77,0,0,1,541.4,304.3Z" transform="translate(-4.93 -14.81)"/><path class="cls-8" d="M534.33,311.37a3.75,3.75,0,1,1,5.3,0A3.75,3.75,0,0,1,534.33,311.37Z" transform="translate(-4.93 -14.81)"/><path class="cls-8" d="M527.26,318.44a3.75,3.75,0,1,1,5.3,0A3.74,3.74,0,0,1,527.26,318.44Z" transform="translate(-4.93 -14.81)"/><path class="cls-8" d="M520.19,325.51a3.75,3.75,0,1,1,5.3,0A3.74,3.74,0,0,1,520.19,325.51Z" transform="translate(-4.93 -14.81)"/><path class="cls-8" d="M513.11,332.58a3.75,3.75,0,1,1,5.31,0A3.75,3.75,0,0,1,513.11,332.58Z" transform="translate(-4.93 -14.81)"/><path class="cls-8" d="M506,339.66a3.75,3.75,0,1,1,5.31,0A3.77,3.77,0,0,1,506,339.66Z" transform="translate(-4.93 -14.81)"/><path class="cls-8" d="M499,346.73a3.75,3.75,0,1,1,5.31,0A3.77,3.77,0,0,1,499,346.73Z" transform="translate(-4.93 -14.81)"/><path class="cls-8" d="M491.9,353.8a3.75,3.75,0,1,1,5.3,0A3.76,3.76,0,0,1,491.9,353.8Z" transform="translate(-4.93 -14.81)"/><path class="cls-8" d="M484.83,360.87a3.75,3.75,0,1,1,5.3,0A3.74,3.74,0,0,1,484.83,360.87Z" transform="translate(-4.93 -14.81)"/><path class="cls-8" d="M477.76,367.94a3.75,3.75,0,1,1,5.3,0A3.74,3.74,0,0,1,477.76,367.94Z" transform="translate(-4.93 -14.81)"/><path class="cls-8" d="M470.68,375a3.75,3.75,0,1,1,5.31,0A3.77,3.77,0,0,1,470.68,375Z" transform="translate(-4.93 -14.81)"/><path class="cls-8" d="M463.61,382.09a3.75,3.75,0,1,1,5.31,0A3.77,3.77,0,0,1,463.61,382.09Z" transform="translate(-4.93 -14.81)"/><path class="cls-8" d="M456.54,389.16a3.75,3.75,0,1,1,5.31,0A3.77,3.77,0,0,1,456.54,389.16Z" transform="translate(-4.93 -14.81)"/><path class="cls-8" d="M449.47,396.23a3.75,3.75,0,1,1,5.3,0A3.75,3.75,0,0,1,449.47,396.23Z" transform="translate(-4.93 -14.81)"/><path class="cls-8" d="M442.4,403.3a3.75,3.75,0,1,1,5.3,0A3.75,3.75,0,0,1,442.4,403.3Z" transform="translate(-4.93 -14.81)"/><path class="cls-8" d="M435.33,410.37a3.75,3.75,0,1,1,5.3,0A3.74,3.74,0,0,1,435.33,410.37Z" transform="translate(-4.93 -14.81)"/><path class="cls-8" d="M428.25,417.44a3.75,3.75,0,1,1,5.31,0A3.75,3.75,0,0,1,428.25,417.44Z" transform="translate(-4.93 -14.81)"/><path class="cls-8" d="M421.18,424.52a3.75,3.75,0,1,1,5.31,0A3.77,3.77,0,0,1,421.18,424.52Z" transform="translate(-4.93 -14.81)"/><path class="cls-8" d="M414.11,431.59a3.75,3.75,0,1,1,5.31,0A3.77,3.77,0,0,1,414.11,431.59Z" transform="translate(-4.93 -14.81)"/><path class="cls-8" d="M407,438.66a3.75,3.75,0,1,1,5.31,0A3.76,3.76,0,0,1,407,438.66Z" transform="translate(-4.93 -14.81)"/><path class="cls-8" d="M400,445.73a3.75,3.75,0,1,1,5.3,0A3.75,3.75,0,0,1,400,445.73Z" transform="translate(-4.93 -14.81)"/><path class="cls-8" d="M392.9,452.8a3.75,3.75,0,1,1,5.3,0A3.74,3.74,0,0,1,392.9,452.8Z" transform="translate(-4.93 -14.81)"/><path class="cls-8" d="M385.83,459.87a3.75,3.75,0,1,1,5.3,0A3.75,3.75,0,0,1,385.83,459.87Z" transform="translate(-4.93 -14.81)"/><path class="cls-8" d="M378.75,467a3.75,3.75,0,1,1,5.31,0A3.77,3.77,0,0,1,378.75,467Z" transform="translate(-4.93 -14.81)"/><path class="cls-8" d="M371.68,474a3.75,3.75,0,1,1,5.31,0A3.77,3.77,0,0,1,371.68,474Z" transform="translate(-4.93 -14.81)"/><path class="cls-8" d="M364.61,481.09a3.75,3.75,0,1,1,5.3,0A3.75,3.75,0,0,1,364.61,481.09Z" transform="translate(-4.93 -14.81)"/><path class="cls-8" d="M357.54,488.16a3.75,3.75,0,1,1,5.3,0A3.75,3.75,0,0,1,357.54,488.16Z" transform="translate(-4.93 -14.81)"/><path class="cls-8" d="M350.47,495.23a3.75,3.75,0,1,1,5.3,0A3.74,3.74,0,0,1,350.47,495.23Z" transform="translate(-4.93 -14.81)"/><path class="cls-8" d="M343.4,502.3a3.75,3.75,0,1,1,5.3,0A3.75,3.75,0,0,1,343.4,502.3Z" transform="translate(-4.93 -14.81)"/><path class="cls-8" d="M336.32,509.38a3.75,3.75,0,1,1,5.31,0A3.77,3.77,0,0,1,336.32,509.38Z" transform="translate(-4.93 -14.81)"/><path class="cls-8" d="M329.25,516.45a3.75,3.75,0,1,1,5.3,0A3.77,3.77,0,0,1,329.25,516.45Z" transform="translate(-4.93 -14.81)"/><path class="cls-8" d="M322.18,523.52a3.75,3.75,0,1,1,5.3,0A3.75,3.75,0,0,1,322.18,523.52Z" transform="translate(-4.93 -14.81)"/><path class="cls-8" d="M315.11,530.59a3.75,3.75,0,1,1,5.3,0A3.75,3.75,0,0,1,315.11,530.59Z" transform="translate(-4.93 -14.81)"/><path class="cls-8" d="M308,537.66a3.75,3.75,0,1,1,5.3,0A3.74,3.74,0,0,1,308,537.66Z" transform="translate(-4.93 -14.81)"/><path class="cls-8" d="M301,544.73a3.75,3.75,0,1,1,5.3,0A3.74,3.74,0,0,1,301,544.73Z" transform="translate(-4.93 -14.81)"/><path class="cls-8" d="M293.89,551.8a3.75,3.75,0,1,1,5.31,0A3.75,3.75,0,0,1,293.89,551.8Z" transform="translate(-4.93 -14.81)"/><path class="cls-8" d="M286.82,558.88a3.75,3.75,0,1,1,5.3,0A3.77,3.77,0,0,1,286.82,558.88Z" transform="translate(-4.93 -14.81)"/><path class="cls-8" d="M279.75,566a3.75,3.75,0,1,1,5.3,0A3.77,3.77,0,0,1,279.75,566Z" transform="translate(-4.93 -14.81)"/><path class="cls-8" d="M272.68,573a3.75,3.75,0,1,1,5.3,0A3.75,3.75,0,0,1,272.68,573Z" transform="translate(-4.93 -14.81)"/><path class="cls-8" d="M265.61,580.09a3.75,3.75,0,1,1,5.3,0A3.75,3.75,0,0,1,265.61,580.09Z" transform="translate(-4.93 -14.81)"/><path class="cls-8" d="M258.53,587.16a3.75,3.75,0,1,1,5.31,0A3.75,3.75,0,0,1,258.53,587.16Z" transform="translate(-4.93 -14.81)"/><path class="cls-8" d="M251.47,594.24a3.75,3.75,0,1,1,5.3,0A3.75,3.75,0,0,1,251.47,594.24Z" transform="translate(-4.93 -14.81)"/><path class="cls-8" d="M244.39,601.31a3.75,3.75,0,1,1,5.31,0A3.77,3.77,0,0,1,244.39,601.31Z" transform="translate(-4.93 -14.81)"/><path class="cls-8" d="M541.4,290.15a3.75,3.75,0,1,1,5.3,0A3.75,3.75,0,0,1,541.4,290.15Z" transform="translate(-4.93 -14.81)"/><path class="cls-8" d="M534.33,297.23a3.75,3.75,0,1,1,5.31,0A3.77,3.77,0,0,1,534.33,297.23Z" transform="translate(-4.93 -14.81)"/><path class="cls-8" d="M527.26,304.3a3.75,3.75,0,1,1,5.3,0A3.74,3.74,0,0,1,527.26,304.3Z" transform="translate(-4.93 -14.81)"/><path class="cls-8" d="M520.19,311.37a3.75,3.75,0,1,1,5.3,0A3.74,3.74,0,0,1,520.19,311.37Z" transform="translate(-4.93 -14.81)"/><path class="cls-8" d="M513.12,318.44a3.75,3.75,0,1,1,5.3,0A3.74,3.74,0,0,1,513.12,318.44Z" transform="translate(-4.93 -14.81)"/><path class="cls-8" d="M506,325.51a3.75,3.75,0,1,1,5.31,0A3.75,3.75,0,0,1,506,325.51Z" transform="translate(-4.93 -14.81)"/><path class="cls-8" d="M499,332.59a3.75,3.75,0,1,1,5.31,0A3.77,3.77,0,0,1,499,332.59Z" transform="translate(-4.93 -14.81)"/><path class="cls-8" d="M491.9,339.66a3.75,3.75,0,1,1,5.3,0A3.76,3.76,0,0,1,491.9,339.66Z" transform="translate(-4.93 -14.81)"/><path class="cls-8" d="M484.83,346.73a3.75,3.75,0,1,1,5.3,0A3.77,3.77,0,0,1,484.83,346.73Z" transform="translate(-4.93 -14.81)"/><path class="cls-8" d="M477.76,353.8a3.75,3.75,0,1,1,5.3,0A3.74,3.74,0,0,1,477.76,353.8Z" transform="translate(-4.93 -14.81)"/><path class="cls-8" d="M470.69,360.87a3.75,3.75,0,1,1,5.3,0A3.74,3.74,0,0,1,470.69,360.87Z" transform="translate(-4.93 -14.81)"/><path class="cls-8" d="M463.61,367.94a3.75,3.75,0,1,1,5.31,0A3.75,3.75,0,0,1,463.61,367.94Z" transform="translate(-4.93 -14.81)"/><path class="cls-8" d="M456.54,375a3.75,3.75,0,1,1,5.31,0A3.77,3.77,0,0,1,456.54,375Z" transform="translate(-4.93 -14.81)"/><path class="cls-8" d="M449.47,382.09a3.75,3.75,0,1,1,5.3,0A3.77,3.77,0,0,1,449.47,382.09Z" transform="translate(-4.93 -14.81)"/><path class="cls-8" d="M442.4,389.16a3.75,3.75,0,1,1,5.3,0A3.75,3.75,0,0,1,442.4,389.16Z" transform="translate(-4.93 -14.81)"/><path class="cls-8" d="M435.33,396.23a3.75,3.75,0,1,1,5.3,0A3.74,3.74,0,0,1,435.33,396.23Z" transform="translate(-4.93 -14.81)"/><path class="cls-8" d="M428.26,403.3a3.75,3.75,0,1,1,5.3,0A3.74,3.74,0,0,1,428.26,403.3Z" transform="translate(-4.93 -14.81)"/><path class="cls-8" d="M421.18,410.37a3.75,3.75,0,1,1,5.31,0A3.75,3.75,0,0,1,421.18,410.37Z" transform="translate(-4.93 -14.81)"/><path class="cls-8" d="M414.11,417.44a3.75,3.75,0,1,1,5.31,0A3.75,3.75,0,0,1,414.11,417.44Z" transform="translate(-4.93 -14.81)"/><path class="cls-8" d="M407,424.52a3.75,3.75,0,1,1,5.3,0A3.76,3.76,0,0,1,407,424.52Z" transform="translate(-4.93 -14.81)"/><path class="cls-8" d="M400,431.59a3.75,3.75,0,1,1,5.3,0A3.74,3.74,0,0,1,400,431.59Z" transform="translate(-4.93 -14.81)"/><path class="cls-8" d="M392.9,438.66a3.75,3.75,0,1,1,5.3,0A3.74,3.74,0,0,1,392.9,438.66Z" transform="translate(-4.93 -14.81)"/><path class="cls-8" d="M385.83,445.73a3.75,3.75,0,1,1,5.3,0A3.74,3.74,0,0,1,385.83,445.73Z" transform="translate(-4.93 -14.81)"/><path class="cls-8" d="M378.75,452.8a3.75,3.75,0,1,1,5.31,0A3.75,3.75,0,0,1,378.75,452.8Z" transform="translate(-4.93 -14.81)"/><path class="cls-8" d="M371.68,459.87a3.75,3.75,0,1,1,5.31,0A3.75,3.75,0,0,1,371.68,459.87Z" transform="translate(-4.93 -14.81)"/><path class="cls-8" d="M364.61,467a3.75,3.75,0,1,1,5.3,0A3.77,3.77,0,0,1,364.61,467Z" transform="translate(-4.93 -14.81)"/><path class="cls-8" d="M357.54,474a3.75,3.75,0,1,1,5.3,0A3.76,3.76,0,0,1,357.54,474Z" transform="translate(-4.93 -14.81)"/><path class="cls-8" d="M350.47,481.09a3.75,3.75,0,1,1,5.3,0A3.74,3.74,0,0,1,350.47,481.09Z" transform="translate(-4.93 -14.81)"/><path class="cls-8" d="M343.4,488.16a3.75,3.75,0,1,1,5.3,0A3.74,3.74,0,0,1,343.4,488.16Z" transform="translate(-4.93 -14.81)"/><path class="cls-8" d="M336.32,495.23a3.75,3.75,0,1,1,5.31,0A3.75,3.75,0,0,1,336.32,495.23Z" transform="translate(-4.93 -14.81)"/><path class="cls-8" d="M329.25,502.3a3.75,3.75,0,1,1,5.31,0A3.75,3.75,0,0,1,329.25,502.3Z" transform="translate(-4.93 -14.81)"/><path class="cls-8" d="M322.18,509.38a3.75,3.75,0,1,1,5.3,0A3.77,3.77,0,0,1,322.18,509.38Z" transform="translate(-4.93 -14.81)"/><path class="cls-8" d="M315.11,516.45a3.75,3.75,0,1,1,5.3,0A3.77,3.77,0,0,1,315.11,516.45Z" transform="translate(-4.93 -14.81)"/><path class="cls-8" d="M308,523.52a3.75,3.75,0,1,1,5.3,0A3.74,3.74,0,0,1,308,523.52Z" transform="translate(-4.93 -14.81)"/><path class="cls-8" d="M301,530.59a3.75,3.75,0,1,1,5.3,0A3.74,3.74,0,0,1,301,530.59Z" transform="translate(-4.93 -14.81)"/><path class="cls-8" d="M293.89,537.66a3.75,3.75,0,1,1,5.31,0A3.75,3.75,0,0,1,293.89,537.66Z" transform="translate(-4.93 -14.81)"/><path class="cls-8" d="M286.82,544.73a3.75,3.75,0,1,1,5.31,0A3.75,3.75,0,0,1,286.82,544.73Z" transform="translate(-4.93 -14.81)"/><path class="cls-8" d="M279.75,551.8a3.75,3.75,0,1,1,5.3,0A3.75,3.75,0,0,1,279.75,551.8Z" transform="translate(-4.93 -14.81)"/><path class="cls-8" d="M272.68,558.88a3.75,3.75,0,1,1,5.3,0A3.77,3.77,0,0,1,272.68,558.88Z" transform="translate(-4.93 -14.81)"/><path class="cls-8" d="M265.61,566a3.75,3.75,0,1,1,5.3,0A3.74,3.74,0,0,1,265.61,566Z" transform="translate(-4.93 -14.81)"/><path class="cls-8" d="M258.54,573a3.75,3.75,0,1,1,5.3,0A3.74,3.74,0,0,1,258.54,573Z" transform="translate(-4.93 -14.81)"/><path class="cls-8" d="M251.47,580.09a3.75,3.75,0,1,1,5.3,0A3.74,3.74,0,0,1,251.47,580.09Z" transform="translate(-4.93 -14.81)"/><path class="cls-8" d="M244.39,587.16a3.75,3.75,0,1,1,5.31,0A3.75,3.75,0,0,1,244.39,587.16Z" transform="translate(-4.93 -14.81)"/><path class="cls-8" d="M237.32,594.24a3.75,3.75,0,1,1,5.3,0A3.77,3.77,0,0,1,237.32,594.24Z" transform="translate(-4.93 -14.81)"/><path class="cls-8" d="M534.33,283.08a3.75,3.75,0,1,1,5.3,0A3.75,3.75,0,0,1,534.33,283.08Z" transform="translate(-4.93 -14.81)"/><path class="cls-8" d="M527.26,290.16a3.75,3.75,0,1,1,5.3,0A3.75,3.75,0,0,1,527.26,290.16Z" transform="translate(-4.93 -14.81)"/><path class="cls-8" d="M520.19,297.23a3.75,3.75,0,1,1,5.3,0A3.75,3.75,0,0,1,520.19,297.23Z" transform="translate(-4.93 -14.81)"/><path class="cls-8" d="M513.11,304.3a3.75,3.75,0,1,1,5.31,0A3.76,3.76,0,0,1,513.11,304.3Z" transform="translate(-4.93 -14.81)"/><path class="cls-8" d="M506,311.37a3.75,3.75,0,1,1,5.31,0A3.75,3.75,0,0,1,506,311.37Z" transform="translate(-4.93 -14.81)"/><path class="cls-8" d="M499,318.44a3.75,3.75,0,1,1,5.31,0A3.75,3.75,0,0,1,499,318.44Z" transform="translate(-4.93 -14.81)"/><path class="cls-8" d="M491.9,325.51a3.75,3.75,0,1,1,5.3,0A3.75,3.75,0,0,1,491.9,325.51Z" transform="translate(-4.93 -14.81)"/><path class="cls-8" d="M484.83,332.59a3.75,3.75,0,1,1,5.3,0A3.76,3.76,0,0,1,484.83,332.59Z" transform="translate(-4.93 -14.81)"/><path class="cls-8" d="M477.76,339.66a3.75,3.75,0,1,1,5.3,0A3.75,3.75,0,0,1,477.76,339.66Z" transform="translate(-4.93 -14.81)"/><path class="cls-8" d="M470.69,346.73a3.75,3.75,0,1,1,5.3,0A3.76,3.76,0,0,1,470.69,346.73Z" transform="translate(-4.93 -14.81)"/><path class="cls-8" d="M463.61,353.8a3.75,3.75,0,1,1,5.31,0A3.75,3.75,0,0,1,463.61,353.8Z" transform="translate(-4.93 -14.81)"/><path class="cls-8" d="M456.54,360.87a3.75,3.75,0,1,1,5.31,0A3.75,3.75,0,0,1,456.54,360.87Z" transform="translate(-4.93 -14.81)"/><path class="cls-8" d="M449.47,367.94a3.75,3.75,0,1,1,5.31,0A3.75,3.75,0,0,1,449.47,367.94Z" transform="translate(-4.93 -14.81)"/><path class="cls-8" d="M442.4,375a3.75,3.75,0,1,1,5.3,0A3.75,3.75,0,0,1,442.4,375Z" transform="translate(-4.93 -14.81)"/><path class="cls-8" d="M435.33,382.09a3.75,3.75,0,1,1,5.3,0A3.75,3.75,0,0,1,435.33,382.09Z" transform="translate(-4.93 -14.81)"/><path class="cls-8" d="M428.26,389.16a3.75,3.75,0,1,1,5.3,0A3.75,3.75,0,0,1,428.26,389.16Z" transform="translate(-4.93 -14.81)"/><path class="cls-8" d="M421.18,396.23a3.75,3.75,0,1,1,5.31,0A3.75,3.75,0,0,1,421.18,396.23Z" transform="translate(-4.93 -14.81)"/><path class="cls-8" d="M414.11,403.3a3.75,3.75,0,1,1,5.31,0A3.75,3.75,0,0,1,414.11,403.3Z" transform="translate(-4.93 -14.81)"/><path class="cls-8" d="M407,410.37a3.75,3.75,0,1,1,5.3,0A3.75,3.75,0,0,1,407,410.37Z" transform="translate(-4.93 -14.81)"/><path class="cls-8" d="M400,417.44a3.75,3.75,0,1,1,5.3,0A3.75,3.75,0,0,1,400,417.44Z" transform="translate(-4.93 -14.81)"/><path class="cls-8" d="M392.9,424.52a3.75,3.75,0,1,1,5.3,0A3.75,3.75,0,0,1,392.9,424.52Z" transform="translate(-4.93 -14.81)"/><path class="cls-8" d="M385.83,431.59a3.75,3.75,0,1,1,5.3,0A3.75,3.75,0,0,1,385.83,431.59Z" transform="translate(-4.93 -14.81)"/><path class="cls-8" d="M378.75,438.66a3.75,3.75,0,1,1,5.31,0A3.77,3.77,0,0,1,378.75,438.66Z" transform="translate(-4.93 -14.81)"/><path class="cls-8" d="M371.68,445.73a3.75,3.75,0,1,1,5.31,0A3.75,3.75,0,0,1,371.68,445.73Z" transform="translate(-4.93 -14.81)"/><path class="cls-8" d="M364.61,452.8a3.75,3.75,0,1,1,5.3,0A3.75,3.75,0,0,1,364.61,452.8Z" transform="translate(-4.93 -14.81)"/><path class="cls-8" d="M357.54,459.88a3.75,3.75,0,1,1,5.3,0A3.77,3.77,0,0,1,357.54,459.88Z" transform="translate(-4.93 -14.81)"/><path class="cls-8" d="M350.47,467a3.75,3.75,0,1,1,5.3,0A3.75,3.75,0,0,1,350.47,467Z" transform="translate(-4.93 -14.81)"/><path class="cls-8" d="M343.4,474a3.75,3.75,0,1,1,5.3,0A3.75,3.75,0,0,1,343.4,474Z" transform="translate(-4.93 -14.81)"/><path class="cls-8" d="M336.32,481.09a3.75,3.75,0,1,1,5.31,0A3.75,3.75,0,0,1,336.32,481.09Z" transform="translate(-4.93 -14.81)"/><path class="cls-8" d="M329.25,488.16a3.75,3.75,0,1,1,5.31,0A3.75,3.75,0,0,1,329.25,488.16Z" transform="translate(-4.93 -14.81)"/><path class="cls-8" d="M322.18,495.23a3.75,3.75,0,1,1,5.3,0A3.75,3.75,0,0,1,322.18,495.23Z" transform="translate(-4.93 -14.81)"/><path class="cls-8" d="M315.11,502.3a3.75,3.75,0,1,1,5.3,0A3.75,3.75,0,0,1,315.11,502.3Z" transform="translate(-4.93 -14.81)"/><path class="cls-8" d="M308,509.38a3.75,3.75,0,1,1,5.3,0A3.75,3.75,0,0,1,308,509.38Z" transform="translate(-4.93 -14.81)"/><path class="cls-8" d="M301,516.45a3.75,3.75,0,1,1,5.3,0A3.75,3.75,0,0,1,301,516.45Z" transform="translate(-4.93 -14.81)"/><path class="cls-8" d="M293.9,523.52a3.75,3.75,0,1,1,5.3,0A3.76,3.76,0,0,1,293.9,523.52Z" transform="translate(-4.93 -14.81)"/><path class="cls-8" d="M286.82,530.59a3.75,3.75,0,1,1,5.31,0A3.75,3.75,0,0,1,286.82,530.59Z" transform="translate(-4.93 -14.81)"/><path class="cls-8" d="M279.75,537.66a3.75,3.75,0,1,1,5.3,0A3.75,3.75,0,0,1,279.75,537.66Z" transform="translate(-4.93 -14.81)"/><path class="cls-8" d="M272.68,544.73a3.75,3.75,0,1,1,5.3,0A3.75,3.75,0,0,1,272.68,544.73Z" transform="translate(-4.93 -14.81)"/><path class="cls-8" d="M265.61,551.8a3.75,3.75,0,1,1,5.3,0A3.74,3.74,0,0,1,265.61,551.8Z" transform="translate(-4.93 -14.81)"/><path class="cls-8" d="M258.54,558.88a3.75,3.75,0,1,1,5.3,0A3.75,3.75,0,0,1,258.54,558.88Z" transform="translate(-4.93 -14.81)"/><path class="cls-8" d="M251.47,566a3.75,3.75,0,1,1,5.3,0A3.75,3.75,0,0,1,251.47,566Z" transform="translate(-4.93 -14.81)"/><path class="cls-8" d="M244.39,573a3.75,3.75,0,1,1,5.31,0A3.75,3.75,0,0,1,244.39,573Z" transform="translate(-4.93 -14.81)"/><path class="cls-8" d="M237.32,580.09a3.75,3.75,0,1,1,5.3,0A3.75,3.75,0,0,1,237.32,580.09Z" transform="translate(-4.93 -14.81)"/><path class="cls-8" d="M230.25,587.16a3.75,3.75,0,1,1,5.3,0A3.75,3.75,0,0,1,230.25,587.16Z" transform="translate(-4.93 -14.81)"/><path class="cls-8" d="M527.26,276a3.75,3.75,0,1,1,5.3,0A3.74,3.74,0,0,1,527.26,276Z" transform="translate(-4.93 -14.81)"/><path class="cls-8" d="M520.19,283.08a3.75,3.75,0,1,1,5.3,0A3.74,3.74,0,0,1,520.19,283.08Z" transform="translate(-4.93 -14.81)"/><path class="cls-8" d="M513.12,290.16a3.75,3.75,0,1,1,5.3,0A3.75,3.75,0,0,1,513.12,290.16Z" transform="translate(-4.93 -14.81)"/><path class="cls-8" d="M506,297.23a3.75,3.75,0,1,1,5.31,0A3.77,3.77,0,0,1,506,297.23Z" transform="translate(-4.93 -14.81)"/><path class="cls-8" d="M499,304.3a3.75,3.75,0,1,1,5.31,0A3.77,3.77,0,0,1,499,304.3Z" transform="translate(-4.93 -14.81)"/><path class="cls-8" d="M491.9,311.37a3.75,3.75,0,1,1,5.3,0A3.75,3.75,0,0,1,491.9,311.37Z" transform="translate(-4.93 -14.81)"/><path class="cls-8" d="M484.83,318.44a3.75,3.75,0,1,1,5.3,0A3.75,3.75,0,0,1,484.83,318.44Z" transform="translate(-4.93 -14.81)"/><path class="cls-8" d="M477.76,325.51a3.75,3.75,0,1,1,5.3,0A3.74,3.74,0,0,1,477.76,325.51Z" transform="translate(-4.93 -14.81)"/><path class="cls-8" d="M470.69,332.59a3.75,3.75,0,1,1,5.3,0A3.76,3.76,0,0,1,470.69,332.59Z" transform="translate(-4.93 -14.81)"/><path class="cls-8" d="M463.61,339.66a3.75,3.75,0,1,1,5.31,0A3.77,3.77,0,0,1,463.61,339.66Z" transform="translate(-4.93 -14.81)"/><path class="cls-8" d="M456.54,346.73a3.75,3.75,0,1,1,5.31,0A3.77,3.77,0,0,1,456.54,346.73Z" transform="translate(-4.93 -14.81)"/><path class="cls-8" d="M449.47,353.8a3.75,3.75,0,1,1,5.31,0A3.76,3.76,0,0,1,449.47,353.8Z" transform="translate(-4.93 -14.81)"/><path class="cls-8" d="M442.4,360.87a3.75,3.75,0,1,1,5.3,0A3.74,3.74,0,0,1,442.4,360.87Z" transform="translate(-4.93 -14.81)"/><path class="cls-8" d="M435.33,367.94a3.75,3.75,0,1,1,5.3,0A3.74,3.74,0,0,1,435.33,367.94Z" transform="translate(-4.93 -14.81)"/><path class="cls-8" d="M428.26,375a3.75,3.75,0,1,1,5.3,0A3.74,3.74,0,0,1,428.26,375Z" transform="translate(-4.93 -14.81)"/><path class="cls-8" d="M421.18,382.09a3.75,3.75,0,1,1,5.31,0A3.77,3.77,0,0,1,421.18,382.09Z" transform="translate(-4.93 -14.81)"/><path class="cls-8" d="M414.11,389.16a3.75,3.75,0,1,1,5.31,0A3.77,3.77,0,0,1,414.11,389.16Z" transform="translate(-4.93 -14.81)"/><path class="cls-8" d="M407,396.23a3.75,3.75,0,1,1,5.3,0A3.75,3.75,0,0,1,407,396.23Z" transform="translate(-4.93 -14.81)"/><path class="cls-8" d="M400,403.3a3.75,3.75,0,1,1,5.3,0A3.75,3.75,0,0,1,400,403.3Z" transform="translate(-4.93 -14.81)"/><path class="cls-8" d="M392.9,410.37a3.75,3.75,0,1,1,5.3,0A3.74,3.74,0,0,1,392.9,410.37Z" transform="translate(-4.93 -14.81)"/><path class="cls-8" d="M385.83,417.44a3.75,3.75,0,1,1,5.3,0A3.74,3.74,0,0,1,385.83,417.44Z" transform="translate(-4.93 -14.81)"/><path class="cls-8" d="M378.75,424.52a3.75,3.75,0,1,1,5.31,0A3.77,3.77,0,0,1,378.75,424.52Z" transform="translate(-4.93 -14.81)"/><path class="cls-8" d="M371.68,431.59a3.75,3.75,0,1,1,5.31,0A3.77,3.77,0,0,1,371.68,431.59Z" transform="translate(-4.93 -14.81)"/><path class="cls-8" d="M364.61,438.66a3.75,3.75,0,1,1,5.3,0A3.77,3.77,0,0,1,364.61,438.66Z" transform="translate(-4.93 -14.81)"/><path class="cls-8" d="M357.54,445.73a3.75,3.75,0,1,1,5.3,0A3.75,3.75,0,0,1,357.54,445.73Z" transform="translate(-4.93 -14.81)"/><path class="cls-8" d="M350.47,452.8a3.75,3.75,0,1,1,5.3,0A3.74,3.74,0,0,1,350.47,452.8Z" transform="translate(-4.93 -14.81)"/><path class="cls-8" d="M343.4,459.88a3.75,3.75,0,1,1,5.3,0A3.75,3.75,0,0,1,343.4,459.88Z" transform="translate(-4.93 -14.81)"/><path class="cls-8" d="M336.32,467a3.75,3.75,0,1,1,5.31,0A3.77,3.77,0,0,1,336.32,467Z" transform="translate(-4.93 -14.81)"/><path class="cls-8" d="M329.25,474a3.75,3.75,0,1,1,5.31,0A3.77,3.77,0,0,1,329.25,474Z" transform="translate(-4.93 -14.81)"/><path class="cls-8" d="M322.18,481.09a3.75,3.75,0,1,1,5.3,0A3.75,3.75,0,0,1,322.18,481.09Z" transform="translate(-4.93 -14.81)"/><path class="cls-8" d="M315.11,488.16a3.75,3.75,0,1,1,5.3,0A3.75,3.75,0,0,1,315.11,488.16Z" transform="translate(-4.93 -14.81)"/><path class="cls-8" d="M308,495.23a3.75,3.75,0,1,1,5.3,0A3.74,3.74,0,0,1,308,495.23Z" transform="translate(-4.93 -14.81)"/><path class="cls-8" d="M301,502.3a3.75,3.75,0,1,1,5.3,0A3.74,3.74,0,0,1,301,502.3Z" transform="translate(-4.93 -14.81)"/><path class="cls-8" d="M293.89,509.38a3.75,3.75,0,1,1,5.31,0A3.77,3.77,0,0,1,293.89,509.38Z" transform="translate(-4.93 -14.81)"/><path class="cls-8" d="M286.82,516.45a3.75,3.75,0,1,1,5.31,0A3.77,3.77,0,0,1,286.82,516.45Z" transform="translate(-4.93 -14.81)"/><path class="cls-8" d="M279.75,523.52a3.75,3.75,0,1,1,5.3,0A3.75,3.75,0,0,1,279.75,523.52Z" transform="translate(-4.93 -14.81)"/><path class="cls-8" d="M272.68,530.59a3.75,3.75,0,1,1,5.3,0A3.75,3.75,0,0,1,272.68,530.59Z" transform="translate(-4.93 -14.81)"/><path class="cls-8" d="M265.61,537.66a3.75,3.75,0,1,1,5.3,0A3.75,3.75,0,0,1,265.61,537.66Z" transform="translate(-4.93 -14.81)"/><path class="cls-8" d="M258.54,544.73a3.75,3.75,0,1,1,5.3,0A3.74,3.74,0,0,1,258.54,544.73Z" transform="translate(-4.93 -14.81)"/><path class="cls-8" d="M251.47,551.8a3.75,3.75,0,1,1,5.3,0A3.74,3.74,0,0,1,251.47,551.8Z" transform="translate(-4.93 -14.81)"/><path class="cls-8" d="M244.39,558.88a3.75,3.75,0,1,1,5.31,0A3.77,3.77,0,0,1,244.39,558.88Z" transform="translate(-4.93 -14.81)"/><path class="cls-8" d="M237.32,566a3.75,3.75,0,1,1,5.3,0A3.75,3.75,0,0,1,237.32,566Z" transform="translate(-4.93 -14.81)"/><path class="cls-8" d="M230.25,573a3.75,3.75,0,1,1,5.3,0A3.75,3.75,0,0,1,230.25,573Z" transform="translate(-4.93 -14.81)"/><path class="cls-8" d="M223.18,580.09a3.75,3.75,0,1,1,5.3,0A3.74,3.74,0,0,1,223.18,580.09Z" transform="translate(-4.93 -14.81)"/><path class="cls-8" d="M520.19,268.94a3.75,3.75,0,1,1,5.3,0A3.74,3.74,0,0,1,520.19,268.94Z" transform="translate(-4.93 -14.81)"/><path class="cls-8" d="M513.12,276a3.75,3.75,0,1,1,5.3,0A3.74,3.74,0,0,1,513.12,276Z" transform="translate(-4.93 -14.81)"/><path class="cls-8" d="M506,283.09a3.75,3.75,0,1,1,5.31,0A3.77,3.77,0,0,1,506,283.09Z" transform="translate(-4.93 -14.81)"/><path class="cls-8" d="M499,290.16a3.75,3.75,0,1,1,5.31,0A3.77,3.77,0,0,1,499,290.16Z" transform="translate(-4.93 -14.81)"/><path class="cls-8" d="M491.9,297.23a3.75,3.75,0,1,1,5.3,0A3.76,3.76,0,0,1,491.9,297.23Z" transform="translate(-4.93 -14.81)"/><path class="cls-8" d="M484.83,304.3a3.75,3.75,0,1,1,5.3,0A3.76,3.76,0,0,1,484.83,304.3Z" transform="translate(-4.93 -14.81)"/><path class="cls-8" d="M477.76,311.37a3.75,3.75,0,1,1,5.3,0A3.74,3.74,0,0,1,477.76,311.37Z" transform="translate(-4.93 -14.81)"/><path class="cls-8" d="M470.69,318.44a3.75,3.75,0,1,1,5.3,0A3.75,3.75,0,0,1,470.69,318.44Z" transform="translate(-4.93 -14.81)"/><path class="cls-8" d="M463.61,325.51a3.75,3.75,0,1,1,5.31,0A3.75,3.75,0,0,1,463.61,325.51Z" transform="translate(-4.93 -14.81)"/><path class="cls-8" d="M456.54,332.59a3.75,3.75,0,1,1,5.31,0A3.77,3.77,0,0,1,456.54,332.59Z" transform="translate(-4.93 -14.81)"/><path class="cls-8" d="M449.47,339.66a3.75,3.75,0,1,1,5.3,0A3.77,3.77,0,0,1,449.47,339.66Z" transform="translate(-4.93 -14.81)"/><path class="cls-8" d="M442.4,346.73a3.75,3.75,0,1,1,5.3,0A3.75,3.75,0,0,1,442.4,346.73Z" transform="translate(-4.93 -14.81)"/><path class="cls-8" d="M435.33,353.8a3.75,3.75,0,1,1,5.3,0A3.75,3.75,0,0,1,435.33,353.8Z" transform="translate(-4.93 -14.81)"/><path class="cls-8" d="M428.26,360.87a3.75,3.75,0,1,1,5.3,0A3.74,3.74,0,0,1,428.26,360.87Z" transform="translate(-4.93 -14.81)"/><path class="cls-8" d="M421.18,367.94a3.75,3.75,0,1,1,5.31,0A3.75,3.75,0,0,1,421.18,367.94Z" transform="translate(-4.93 -14.81)"/><path class="cls-8" d="M414.11,375a3.75,3.75,0,1,1,5.31,0A3.75,3.75,0,0,1,414.11,375Z" transform="translate(-4.93 -14.81)"/><path class="cls-8" d="M407,382.09a3.75,3.75,0,1,1,5.31,0A3.76,3.76,0,0,1,407,382.09Z" transform="translate(-4.93 -14.81)"/><path class="cls-8" d="M400,389.16a3.75,3.75,0,1,1,5.3,0A3.76,3.76,0,0,1,400,389.16Z" transform="translate(-4.93 -14.81)"/><path class="cls-8" d="M392.9,396.23a3.75,3.75,0,1,1,5.3,0A3.74,3.74,0,0,1,392.9,396.23Z" transform="translate(-4.93 -14.81)"/><path class="cls-8" d="M385.83,403.3a3.75,3.75,0,1,1,5.3,0A3.74,3.74,0,0,1,385.83,403.3Z" transform="translate(-4.93 -14.81)"/><path class="cls-8" d="M378.75,410.37a3.75,3.75,0,1,1,5.31,0A3.75,3.75,0,0,1,378.75,410.37Z" transform="translate(-4.93 -14.81)"/><path class="cls-8" d="M371.68,417.44a3.75,3.75,0,1,1,5.31,0A3.75,3.75,0,0,1,371.68,417.44Z" transform="translate(-4.93 -14.81)"/><path class="cls-8" d="M364.61,424.52a3.75,3.75,0,1,1,5.3,0A3.77,3.77,0,0,1,364.61,424.52Z" transform="translate(-4.93 -14.81)"/><path class="cls-8" d="M357.54,431.59a3.75,3.75,0,1,1,5.3,0A3.76,3.76,0,0,1,357.54,431.59Z" transform="translate(-4.93 -14.81)"/><path class="cls-8" d="M350.47,438.66a3.75,3.75,0,1,1,5.3,0A3.75,3.75,0,0,1,350.47,438.66Z" transform="translate(-4.93 -14.81)"/><path class="cls-8" d="M343.4,445.73a3.75,3.75,0,1,1,5.3,0A3.74,3.74,0,0,1,343.4,445.73Z" transform="translate(-4.93 -14.81)"/><path class="cls-8" d="M336.32,452.8a3.75,3.75,0,1,1,5.31,0A3.75,3.75,0,0,1,336.32,452.8Z" transform="translate(-4.93 -14.81)"/><path class="cls-8" d="M329.25,459.87a3.75,3.75,0,1,1,5.31,0A3.75,3.75,0,0,1,329.25,459.87Z" transform="translate(-4.93 -14.81)"/><path class="cls-8" d="M322.18,467a3.75,3.75,0,1,1,5.3,0A3.77,3.77,0,0,1,322.18,467Z" transform="translate(-4.93 -14.81)"/><path class="cls-8" d="M315.11,474a3.75,3.75,0,1,1,5.3,0A3.77,3.77,0,0,1,315.11,474Z" transform="translate(-4.93 -14.81)"/><path class="cls-8" d="M308,481.09a3.75,3.75,0,1,1,5.3,0A3.74,3.74,0,0,1,308,481.09Z" transform="translate(-4.93 -14.81)"/><path class="cls-8" d="M301,488.16a3.75,3.75,0,1,1,5.3,0A3.74,3.74,0,0,1,301,488.16Z" transform="translate(-4.93 -14.81)"/><path class="cls-8" d="M293.89,495.23a3.75,3.75,0,1,1,5.31,0A3.75,3.75,0,0,1,293.89,495.23Z" transform="translate(-4.93 -14.81)"/><path class="cls-8" d="M286.82,502.3a3.75,3.75,0,1,1,5.31,0A3.75,3.75,0,0,1,286.82,502.3Z" transform="translate(-4.93 -14.81)"/><path class="cls-8" d="M279.75,509.38a3.75,3.75,0,1,1,5.3,0A3.77,3.77,0,0,1,279.75,509.38Z" transform="translate(-4.93 -14.81)"/><path class="cls-8" d="M272.68,516.45a3.75,3.75,0,1,1,5.3,0A3.77,3.77,0,0,1,272.68,516.45Z" transform="translate(-4.93 -14.81)"/><path class="cls-8" d="M265.61,523.52a3.75,3.75,0,1,1,5.3,0A3.76,3.76,0,0,1,265.61,523.52Z" transform="translate(-4.93 -14.81)"/><path class="cls-8" d="M258.53,530.59a3.75,3.75,0,1,1,5.31,0A3.75,3.75,0,0,1,258.53,530.59Z" transform="translate(-4.93 -14.81)"/><path class="cls-8" d="M251.47,537.66a3.75,3.75,0,1,1,5.3,0A3.74,3.74,0,0,1,251.47,537.66Z" transform="translate(-4.93 -14.81)"/><path class="cls-8" d="M244.39,544.73a3.75,3.75,0,1,1,5.31,0A3.75,3.75,0,0,1,244.39,544.73Z" transform="translate(-4.93 -14.81)"/><path class="cls-8" d="M237.32,551.8a3.75,3.75,0,1,1,5.3,0A3.75,3.75,0,0,1,237.32,551.8Z" transform="translate(-4.93 -14.81)"/><path class="cls-8" d="M230.25,558.88a3.75,3.75,0,1,1,5.3,0A3.77,3.77,0,0,1,230.25,558.88Z" transform="translate(-4.93 -14.81)"/><path class="cls-8" d="M223.18,566a3.75,3.75,0,1,1,5.3,0A3.76,3.76,0,0,1,223.18,566Z" transform="translate(-4.93 -14.81)"/><path class="cls-8" d="M216.11,573a3.75,3.75,0,1,1,5.3,0A3.74,3.74,0,0,1,216.11,573Z" transform="translate(-4.93 -14.81)"/><path class="cls-8" d="M513.12,261.87a3.75,3.75,0,1,1,5.3,0A3.76,3.76,0,0,1,513.12,261.87Z" transform="translate(-4.93 -14.81)"/><path class="cls-8" d="M506,268.94a3.75,3.75,0,1,1,5.31,0A3.75,3.75,0,0,1,506,268.94Z" transform="translate(-4.93 -14.81)"/><path class="cls-8" d="M499,276a3.75,3.75,0,1,1,5.31,0A3.75,3.75,0,0,1,499,276Z" transform="translate(-4.93 -14.81)"/><path class="cls-8" d="M491.9,283.08a3.75,3.75,0,1,1,5.3,0A3.74,3.74,0,0,1,491.9,283.08Z" transform="translate(-4.93 -14.81)"/><path class="cls-8" d="M484.83,290.16a3.75,3.75,0,1,1,5.3,0A3.76,3.76,0,0,1,484.83,290.16Z" transform="translate(-4.93 -14.81)"/><path class="cls-8" d="M477.76,297.23a3.75,3.75,0,1,1,5.3,0A3.75,3.75,0,0,1,477.76,297.23Z" transform="translate(-4.93 -14.81)"/><path class="cls-8" d="M470.68,304.3a3.75,3.75,0,1,1,5.31,0A3.75,3.75,0,0,1,470.68,304.3Z" transform="translate(-4.93 -14.81)"/><path class="cls-8" d="M463.61,311.37a3.75,3.75,0,1,1,5.31,0A3.75,3.75,0,0,1,463.61,311.37Z" transform="translate(-4.93 -14.81)"/><path class="cls-8" d="M456.54,318.44a3.75,3.75,0,1,1,5.31,0A3.75,3.75,0,0,1,456.54,318.44Z" transform="translate(-4.93 -14.81)"/><path class="cls-8" d="M449.47,325.51a3.75,3.75,0,1,1,5.3,0A3.75,3.75,0,0,1,449.47,325.51Z" transform="translate(-4.93 -14.81)"/><path class="cls-8" d="M442.4,332.58a3.75,3.75,0,1,1,5.3,0A3.74,3.74,0,0,1,442.4,332.58Z" transform="translate(-4.93 -14.81)"/><path class="cls-8" d="M435.33,339.66a3.75,3.75,0,1,1,5.3,0A3.75,3.75,0,0,1,435.33,339.66Z" transform="translate(-4.93 -14.81)"/><path class="cls-8" d="M428.25,346.73a3.75,3.75,0,1,1,5.31,0A3.76,3.76,0,0,1,428.25,346.73Z" transform="translate(-4.93 -14.81)"/><path class="cls-8" d="M421.18,353.8a3.75,3.75,0,1,1,5.31,0A3.77,3.77,0,0,1,421.18,353.8Z" transform="translate(-4.93 -14.81)"/><path class="cls-8" d="M414.11,360.87a3.75,3.75,0,1,1,5.31,0A3.75,3.75,0,0,1,414.11,360.87Z" transform="translate(-4.93 -14.81)"/><path class="cls-8" d="M407,367.94a3.75,3.75,0,1,1,5.3,0A3.74,3.74,0,0,1,407,367.94Z" transform="translate(-4.93 -14.81)"/><path class="cls-8" d="M400,375a3.75,3.75,0,1,1,5.3,0A3.74,3.74,0,0,1,400,375Z" transform="translate(-4.93 -14.81)"/><path class="cls-8" d="M392.9,382.09a3.75,3.75,0,1,1,5.3,0A3.75,3.75,0,0,1,392.9,382.09Z" transform="translate(-4.93 -14.81)"/><path class="cls-8" d="M385.83,389.16a3.75,3.75,0,1,1,5.3,0A3.75,3.75,0,0,1,385.83,389.16Z" transform="translate(-4.93 -14.81)"/><path class="cls-8" d="M378.75,396.23a3.75,3.75,0,1,1,5.31,0A3.75,3.75,0,0,1,378.75,396.23Z" transform="translate(-4.93 -14.81)"/><path class="cls-8" d="M371.68,403.3a3.75,3.75,0,1,1,5.31,0A3.75,3.75,0,0,1,371.68,403.3Z" transform="translate(-4.93 -14.81)"/><path class="cls-8" d="M364.61,410.37a3.75,3.75,0,1,1,5.3,0A3.75,3.75,0,0,1,364.61,410.37Z" transform="translate(-4.93 -14.81)"/><path class="cls-8" d="M357.54,417.44a3.75,3.75,0,1,1,5.3,0A3.75,3.75,0,0,1,357.54,417.44Z" transform="translate(-4.93 -14.81)"/><path class="cls-8" d="M350.47,424.52a3.75,3.75,0,1,1,5.3,0A3.75,3.75,0,0,1,350.47,424.52Z" transform="translate(-4.93 -14.81)"/><path class="cls-8" d="M343.4,431.59a3.75,3.75,0,1,1,5.3,0A3.75,3.75,0,0,1,343.4,431.59Z" transform="translate(-4.93 -14.81)"/><path class="cls-8" d="M336.32,438.66a3.75,3.75,0,1,1,5.31,0A3.75,3.75,0,0,1,336.32,438.66Z" transform="translate(-4.93 -14.81)"/><path class="cls-8" d="M329.25,445.73a3.75,3.75,0,1,1,5.31,0A3.75,3.75,0,0,1,329.25,445.73Z" transform="translate(-4.93 -14.81)"/><path class="cls-8" d="M322.18,452.8a3.75,3.75,0,1,1,5.3,0A3.75,3.75,0,0,1,322.18,452.8Z" transform="translate(-4.93 -14.81)"/><path class="cls-8" d="M315.11,459.88a3.75,3.75,0,1,1,5.3,0A3.75,3.75,0,0,1,315.11,459.88Z" transform="translate(-4.93 -14.81)"/><path class="cls-8" d="M308,467a3.75,3.75,0,1,1,5.3,0A3.75,3.75,0,0,1,308,467Z" transform="translate(-4.93 -14.81)"/><path class="cls-8" d="M301,474a3.75,3.75,0,1,1,5.3,0A3.75,3.75,0,0,1,301,474Z" transform="translate(-4.93 -14.81)"/><path class="cls-8" d="M293.89,481.09a3.75,3.75,0,1,1,5.31,0A3.75,3.75,0,0,1,293.89,481.09Z" transform="translate(-4.93 -14.81)"/><path class="cls-8" d="M286.82,488.16a3.75,3.75,0,1,1,5.31,0A3.75,3.75,0,0,1,286.82,488.16Z" transform="translate(-4.93 -14.81)"/><path class="cls-8" d="M279.75,495.23a3.75,3.75,0,1,1,5.3,0A3.75,3.75,0,0,1,279.75,495.23Z" transform="translate(-4.93 -14.81)"/><path class="cls-8" d="M272.68,502.3a3.75,3.75,0,1,1,5.3,0A3.75,3.75,0,0,1,272.68,502.3Z" transform="translate(-4.93 -14.81)"/><path class="cls-8" d="M265.61,509.38a3.75,3.75,0,1,1,5.3,0A3.75,3.75,0,0,1,265.61,509.38Z" transform="translate(-4.93 -14.81)"/><path class="cls-8" d="M258.53,516.45a3.75,3.75,0,1,1,5.31,0A3.76,3.76,0,0,1,258.53,516.45Z" transform="translate(-4.93 -14.81)"/><path class="cls-8" d="M251.47,523.52a3.75,3.75,0,1,1,5.3,0A3.75,3.75,0,0,1,251.47,523.52Z" transform="translate(-4.93 -14.81)"/><path class="cls-8" d="M244.39,530.59a3.75,3.75,0,1,1,5.31,0A3.75,3.75,0,0,1,244.39,530.59Z" transform="translate(-4.93 -14.81)"/><path class="cls-8" d="M237.32,537.66a3.75,3.75,0,1,1,5.31,0A3.75,3.75,0,0,1,237.32,537.66Z" transform="translate(-4.93 -14.81)"/><path class="cls-8" d="M230.25,544.73a3.75,3.75,0,1,1,5.3,0A3.75,3.75,0,0,1,230.25,544.73Z" transform="translate(-4.93 -14.81)"/><path class="cls-8" d="M223.18,551.8a3.75,3.75,0,1,1,5.3,0A3.74,3.74,0,0,1,223.18,551.8Z" transform="translate(-4.93 -14.81)"/><path class="cls-8" d="M216.11,558.88a3.75,3.75,0,1,1,5.3,0A3.75,3.75,0,0,1,216.11,558.88Z" transform="translate(-4.93 -14.81)"/><path class="cls-8" d="M209,566a3.75,3.75,0,1,1,5.31,0A3.77,3.77,0,0,1,209,566Z" transform="translate(-4.93 -14.81)"/><path class="cls-8" d="M506,254.8a3.75,3.75,0,1,1,5.31,0A3.77,3.77,0,0,1,506,254.8Z" transform="translate(-4.93 -14.81)"/><path class="cls-8" d="M499,261.87a3.75,3.75,0,1,1,5.31,0A3.77,3.77,0,0,1,499,261.87Z" transform="translate(-4.93 -14.81)"/><path class="cls-8" d="M491.9,268.94a3.75,3.75,0,1,1,5.3,0A3.75,3.75,0,0,1,491.9,268.94Z" transform="translate(-4.93 -14.81)"/><path class="cls-8" d="M484.83,276a3.75,3.75,0,1,1,5.3,0A3.75,3.75,0,0,1,484.83,276Z" transform="translate(-4.93 -14.81)"/><path class="cls-8" d="M477.76,283.08a3.75,3.75,0,1,1,5.3,0A3.74,3.74,0,0,1,477.76,283.08Z" transform="translate(-4.93 -14.81)"/><path class="cls-8" d="M470.69,290.15a3.75,3.75,0,1,1,5.3,0A3.75,3.75,0,0,1,470.69,290.15Z" transform="translate(-4.93 -14.81)"/><path class="cls-8" d="M463.61,297.23a3.75,3.75,0,1,1,5.31,0A3.77,3.77,0,0,1,463.61,297.23Z" transform="translate(-4.93 -14.81)"/><path class="cls-8" d="M456.54,304.3a3.75,3.75,0,1,1,5.31,0A3.75,3.75,0,0,1,456.54,304.3Z" transform="translate(-4.93 -14.81)"/><path class="cls-8" d="M449.47,311.37a3.75,3.75,0,1,1,5.3,0A3.75,3.75,0,0,1,449.47,311.37Z" transform="translate(-4.93 -14.81)"/><path class="cls-8" d="M442.4,318.44a3.75,3.75,0,1,1,5.3,0A3.74,3.74,0,0,1,442.4,318.44Z" transform="translate(-4.93 -14.81)"/><path class="cls-8" d="M435.33,325.51a3.75,3.75,0,1,1,5.3,0A3.74,3.74,0,0,1,435.33,325.51Z" transform="translate(-4.93 -14.81)"/><path class="cls-8" d="M428.25,332.59a3.75,3.75,0,1,1,5.31,0A3.76,3.76,0,0,1,428.25,332.59Z" transform="translate(-4.93 -14.81)"/><path class="cls-8" d="M421.18,339.66a3.75,3.75,0,1,1,5.31,0A3.77,3.77,0,0,1,421.18,339.66Z" transform="translate(-4.93 -14.81)"/><path class="cls-8" d="M414.11,346.73a3.75,3.75,0,1,1,5.31,0A3.77,3.77,0,0,1,414.11,346.73Z" transform="translate(-4.93 -14.81)"/><path class="cls-8" d="M407,353.8a3.75,3.75,0,1,1,5.3,0A3.74,3.74,0,0,1,407,353.8Z" transform="translate(-4.93 -14.81)"/><path class="cls-8" d="M400,360.87a3.75,3.75,0,1,1,5.3,0A3.75,3.75,0,0,1,400,360.87Z" transform="translate(-4.93 -14.81)"/><path class="cls-8" d="M392.9,367.94a3.75,3.75,0,1,1,5.3,0A3.74,3.74,0,0,1,392.9,367.94Z" transform="translate(-4.93 -14.81)"/><path class="cls-8" d="M385.83,375a3.75,3.75,0,1,1,5.3,0A3.74,3.74,0,0,1,385.83,375Z" transform="translate(-4.93 -14.81)"/><path class="cls-8" d="M378.75,382.09a3.75,3.75,0,1,1,5.31,0A3.77,3.77,0,0,1,378.75,382.09Z" transform="translate(-4.93 -14.81)"/><path class="cls-8" d="M371.68,389.16a3.75,3.75,0,1,1,5.31,0A3.77,3.77,0,0,1,371.68,389.16Z" transform="translate(-4.93 -14.81)"/><path class="cls-8" d="M364.61,396.23a3.75,3.75,0,1,1,5.3,0A3.75,3.75,0,0,1,364.61,396.23Z" transform="translate(-4.93 -14.81)"/><path class="cls-8" d="M357.54,403.3a3.75,3.75,0,1,1,5.3,0A3.74,3.74,0,0,1,357.54,403.3Z" transform="translate(-4.93 -14.81)"/><path class="cls-8" d="M350.47,410.37a3.75,3.75,0,1,1,5.3,0A3.74,3.74,0,0,1,350.47,410.37Z" transform="translate(-4.93 -14.81)"/><path class="cls-8" d="M343.4,417.44a3.75,3.75,0,1,1,5.3,0A3.74,3.74,0,0,1,343.4,417.44Z" transform="translate(-4.93 -14.81)"/><path class="cls-8" d="M336.32,424.52a3.75,3.75,0,1,1,5.31,0A3.77,3.77,0,0,1,336.32,424.52Z" transform="translate(-4.93 -14.81)"/><path class="cls-8" d="M329.25,431.59a3.75,3.75,0,1,1,5.31,0A3.77,3.77,0,0,1,329.25,431.59Z" transform="translate(-4.93 -14.81)"/><path class="cls-8" d="M322.18,438.66a3.75,3.75,0,1,1,5.31,0A3.77,3.77,0,0,1,322.18,438.66Z" transform="translate(-4.93 -14.81)"/><path class="cls-8" d="M315.11,445.73a3.75,3.75,0,1,1,5.3,0A3.75,3.75,0,0,1,315.11,445.73Z" transform="translate(-4.93 -14.81)"/><path class="cls-8" d="M308,452.8a3.75,3.75,0,1,1,5.3,0A3.74,3.74,0,0,1,308,452.8Z" transform="translate(-4.93 -14.81)"/><path class="cls-8" d="M301,459.88a3.75,3.75,0,1,1,5.3,0A3.75,3.75,0,0,1,301,459.88Z" transform="translate(-4.93 -14.81)"/><path class="cls-8" d="M293.89,467a3.75,3.75,0,1,1,5.31,0A3.77,3.77,0,0,1,293.89,467Z" transform="translate(-4.93 -14.81)"/><path class="cls-8" d="M286.82,474a3.75,3.75,0,1,1,5.31,0A3.77,3.77,0,0,1,286.82,474Z" transform="translate(-4.93 -14.81)"/><path class="cls-8" d="M279.75,481.09a3.75,3.75,0,1,1,5.3,0A3.75,3.75,0,0,1,279.75,481.09Z" transform="translate(-4.93 -14.81)"/><path class="cls-8" d="M272.68,488.16a3.75,3.75,0,1,1,5.3,0A3.75,3.75,0,0,1,272.68,488.16Z" transform="translate(-4.93 -14.81)"/><path class="cls-8" d="M265.61,495.23a3.75,3.75,0,1,1,5.3,0A3.74,3.74,0,0,1,265.61,495.23Z" transform="translate(-4.93 -14.81)"/><path class="cls-8" d="M258.53,502.3a3.75,3.75,0,1,1,5.31,0A3.75,3.75,0,0,1,258.53,502.3Z" transform="translate(-4.93 -14.81)"/><path class="cls-8" d="M251.47,509.38a3.75,3.75,0,1,1,5.3,0A3.75,3.75,0,0,1,251.47,509.38Z" transform="translate(-4.93 -14.81)"/><path class="cls-8" d="M244.39,516.45a3.75,3.75,0,1,1,5.31,0A3.77,3.77,0,0,1,244.39,516.45Z" transform="translate(-4.93 -14.81)"/><path class="cls-8" d="M237.32,523.52a3.75,3.75,0,1,1,5.31,0A3.77,3.77,0,0,1,237.32,523.52Z" transform="translate(-4.93 -14.81)"/><path class="cls-8" d="M230.25,530.59a3.75,3.75,0,1,1,5.3,0A3.75,3.75,0,0,1,230.25,530.59Z" transform="translate(-4.93 -14.81)"/><path class="cls-8" d="M223.18,537.66a3.75,3.75,0,1,1,5.3,0A3.74,3.74,0,0,1,223.18,537.66Z" transform="translate(-4.93 -14.81)"/><path class="cls-8" d="M216.11,544.73a3.75,3.75,0,1,1,5.3,0A3.74,3.74,0,0,1,216.11,544.73Z" transform="translate(-4.93 -14.81)"/><path class="cls-8" d="M209,551.8a3.75,3.75,0,1,1,5.31,0A3.75,3.75,0,0,1,209,551.8Z" transform="translate(-4.93 -14.81)"/><path class="cls-8" d="M202,558.88a3.75,3.75,0,1,1,5.31,0A3.77,3.77,0,0,1,202,558.88Z" transform="translate(-4.93 -14.81)"/><rect class="cls-5" x="82.39" y="315.25" width="501.61" height="81.27" transform="translate(-158.99 325.03) rotate(-45)"/></g><path class="cls-5" d="M513.29,58.58a20.17,20.17,0,0,1,0,28.53l-126,126a20.17,20.17,0,0,1-28.53,0h0a20.19,20.19,0,0,1,0-28.54l126-126a20.17,20.17,0,0,1,28.53,0Z" transform="translate(-4.93 -14.81)"/><path class="cls-4" d="M581.78,81.87a20.17,20.17,0,0,1,0,28.53l-57.86,57.87a20.19,20.19,0,0,1-28.54,0h0a20.2,20.2,0,0,1,0-28.54l57.86-57.86a20.18,20.18,0,0,1,28.54,0Z" transform="translate(-4.93 -14.81)"/><path class="cls-8" d="M205.58,87.83a20.17,20.17,0,0,1,0,28.53L106,216a20.17,20.17,0,0,1-28.53,0h0a20.17,20.17,0,0,1,0-28.53l99.6-99.6a20.17,20.17,0,0,1,28.53,0Z" transform="translate(-4.93 -14.81)"/><path class="cls-9" d="M524.85,391a20.17,20.17,0,0,1,0,28.53l-99.6,99.6a20.18,20.18,0,0,1-28.54,0h0a20.17,20.17,0,0,1,0-28.53l99.6-99.6a20.18,20.18,0,0,1,28.54,0Z" transform="translate(-4.93 -14.81)"/><path class="cls-6" d="M411.48,22.3a21,21,0,1,1-29.67,0A21,21,0,0,1,411.48,22.3Z" transform="translate(-4.93 -14.81)"/><path class="cls-10" d="M549.64,21A21,21,0,1,1,520,21,21,21,0,0,1,549.64,21Z" transform="translate(-4.93 -14.81)"/><path class="cls-11" d="M386,528a21,21,0,1,1-29.66,0A21,21,0,0,1,386,528Z" transform="translate(-4.93 -14.81)"/><g class="cls-12"><path class="cls-13" d="M455.78,285c11.85,86.31-48.92,164.83-135.77,175.4s-166.87-50.84-178.73-137C129.39,237,190.15,158.48,277,147.92S443.89,198.71,455.78,285Z" transform="translate(-4.93 -14.81)"/></g><circle class="cls-14" cx="293.96" cy="289.16" r="190.58"/><path class="cls-15" d="M391.51,350.13l-.14-.14V179.92H380.73L301,259.64l-.45-.45-.05.06-79.33-79.33H210.56V385.2l10.63.35V194.81l71.88,71.88,0,.05,87.7,87.7v20.48H243.89V385.2l147.48.35V350.28Zm-84.65-83,72.27-72.28V339.36Z" transform="translate(-4.93 -14.81)"/><circle class="cls-16" cx="294.5" cy="289.39" r="168.87"/><path class="cls-15" d="M216.55,420.3h13.72V399.44l-7.83,16.78-7.84-16.81v21.93l-1,0V396.94h1l7.84,16.81L230.27,397l1,0v24.4l-14.76,0Z" transform="translate(-4.93 -14.81)"/><path class="cls-15" d="M251.54,419.22q-1.87,2.47-6.23,2.47t-6.23-2.47c-1.26-1.65-1.88-4.31-1.88-8s.62-6.33,1.88-8,3.33-2.47,6.23-2.47,5,.83,6.23,2.47,1.88,4.31,1.88,8S252.79,417.57,251.54,419.22Zm-3.31-17a12.06,12.06,0,0,0-5.85,0,5.32,5.32,0,0,0-2.17,1.36,6.16,6.16,0,0,0-1.48,2.89,23.61,23.61,0,0,0,0,9.57,6.11,6.11,0,0,0,1.48,2.89,5.22,5.22,0,0,0,2.17,1.36,11.75,11.75,0,0,0,5.85,0,5.25,5.25,0,0,0,2.18-1.36,6.2,6.2,0,0,0,1.48-2.89,23.61,23.61,0,0,0,0-9.57,6.25,6.25,0,0,0-1.48-2.89A5.35,5.35,0,0,0,248.23,402.21Z" transform="translate(-4.93 -14.81)"/><path class="cls-15" d="M273.89,401.15l-8.7,20.54-8.71-20.54h1.12L265.19,419l7.59-17.86Z" transform="translate(-4.93 -14.81)"/><path class="cls-15" d="M277.83,401.15h1v20.19h-1Z" transform="translate(-4.93 -14.81)"/><path class="cls-15" d="M299,419.29c-1.28,1.6-3.36,2.4-6.27,2.4s-5-.82-6.23-2.47-1.88-4.31-1.88-8,.63-6.33,1.88-8,3.33-2.47,6.23-2.47c3.37,0,5.66,1.11,6.86,3.31l-8.53,7.14h-1.63l8.81-7.35c-1-1.37-2.86-2-5.51-2a10.16,10.16,0,0,0-2.92.36,5.42,5.42,0,0,0-2.18,1.36,6.25,6.25,0,0,0-1.48,2.89,24.09,24.09,0,0,0,0,9.57,6.2,6.2,0,0,0,1.48,2.89,5.31,5.31,0,0,0,2.18,1.36,10.13,10.13,0,0,0,2.92.37c2.65,0,4.48-.69,5.51-2.06Z" transform="translate(-4.93 -14.81)"/><path class="cls-15" d="M315.84,420.3h10.79l-12.46-21.55v22.59h-1V397h1.21l13,22.53V397h1.05v24.37H315.84Z" transform="translate(-4.93 -14.81)"/><path class="cls-15" d="M335.16,401.15h1v20.19h-1Z" transform="translate(-4.93 -14.81)"/><path class="cls-15" d="M350.93,407.76l4.63-3.86q-1.53-2.06-5.5-2a10.16,10.16,0,0,0-2.92.36,5.42,5.42,0,0,0-2.18,1.36,6.25,6.25,0,0,0-1.48,2.89,24.09,24.09,0,0,0,0,9.57,6.2,6.2,0,0,0,1.48,2.89,5.31,5.31,0,0,0,2.18,1.36,10.13,10.13,0,0,0,2.92.37c2.63,0,4.45-.68,5.47-2v-6.17h1v9.2q0,6.64-6.09,6.65h-4.07v-1.05h4.07a4.89,4.89,0,0,0,3.83-1.37q1.21-1.38,1.22-5.24v-.53a8.32,8.32,0,0,1-5.47,1.57q-4.35,0-6.23-2.47t-1.88-8q0-5.5,1.88-8c1.25-1.64,3.33-2.47,6.23-2.47,3.37,0,5.65,1.11,6.86,3.31l-4.35,3.65Z" transform="translate(-4.93 -14.81)"/><path class="cls-15" d="M375.2,421.34h-1.05V411.25H363.71v10.09h-1V401.15h1v9.05h10.44v-9.05h1.05Z" transform="translate(-4.93 -14.81)"/><path class="cls-15" d="M394.87,401.15v1h-7.31v19.15h-1.05V402.19H379.2v-1Z" transform="translate(-4.93 -14.81)"/></g></g></svg>