<svg xmlns="http://www.w3.org/2000/svg" xmlns:xlink="http://www.w3.org/1999/xlink" viewBox="0 0 582.76 618.49"><defs><style>.cls-1,.cls-15{fill:none;}.cls-2{isolation:isolate;}.cls-3{fill:#287e7f;}.cls-4{fill:#313a3f;}.cls-5{fill:#42b4bc;}.cls-6{fill:#ce5ba6;}.cls-7{clip-path:url(#clip-path);}.cls-8{fill:#8e3f72;}.cls-9{fill:#421d35;}.cls-10{fill:#4f233f;}.cls-11{fill:#153b3c;}.cls-12{mix-blend-mode:multiply;}.cls-13{fill:#726658;}.cls-14{fill:#fff;}.cls-15{stroke:#42b4bc;stroke-miterlimit:10;stroke-width:6px;}</style><clipPath id="clip-path" transform="translate(-4.17 -28.91)"><path class="cls-1" d="M370.58,275c-7.91,7.32-14.85,5.89-18.22,4.37-4.27-1.92-5.43-3.22-8.34-5.93l-.2-.21a20.17,20.17,0,0,0-28.53,0l-25,25a20.18,20.18,0,0,1-28.53-28.54l82-82a20.18,20.18,0,0,0,1-27.48h.08c-3.57-4-4.95-4.8-7.13-9.65-1.52-3.36-2.95-10.31,4.37-18.21L372.36,102a20.18,20.18,0,1,0-28.54-28.53L324.14,93.12c-7.9,7.32-14.85,5.89-18.22,4.38a22.38,22.38,0,0,1-7.4-5.07c-.34-.39-.69-.78-1.07-1.16a20.17,20.17,0,0,0-28.53,0L5,355.21a20.18,20.18,0,1,0,28.53,28.54l23.2-23.2a20.18,20.18,0,0,1,28.53,28.54L37.08,437.25a20.17,20.17,0,0,0,28.53,28.53L108.42,423A20.18,20.18,0,1,1,137,451.52L37.08,551.39a20.17,20.17,0,0,0,28.53,28.53l82-82a20.18,20.18,0,1,1,28.53,28.54l3.17-3.17a20.18,20.18,0,0,0,28.54,28.53l5.76-5.76a20.18,20.18,0,1,1,28.53,28.54l1.77-1.77a20.18,20.18,0,1,0,28.54,28.53L536.43,337.38a20.18,20.18,0,0,0-28.54-28.53L500.76,316a20.17,20.17,0,1,1-28.53-28.53L519,240.68a20.17,20.17,0,1,0-28.53-28.53l-2.29,2.28c-7.05,5.37-13.12,4.07-16.2,2.68-4.08-1.84-5.32-3.12-8-5.6-.22-.25-.45-.5-.69-.74a20.18,20.18,0,0,0-28.54,0Z"/></clipPath></defs><title>logo_profil</title><g class="cls-2"><g id="Calque_1" data-name="Calque 1"><path class="cls-3" d="M371.27,276.45c-7.8,7.25-14.67,5.85-18,4.35-4.22-1.89-5.37-3.18-8.25-5.85l-.2-.21a20,20,0,0,0-28.21.05L292,299.52a19.95,19.95,0,0,1-28.26-28.16l81-81.25a19.94,19.94,0,0,0,.91-27.16h.08c-3.53-3.91-4.9-4.73-7.07-9.52-1.51-3.33-2.93-10.2,4.29-18l29.84-30a19.95,19.95,0,0,0-28.26-28.16L325,96.77c-7.8,7.25-14.67,5.85-18,4.36a22.13,22.13,0,0,1-7.33-5c-.34-.39-.68-.78-1.06-1.15a19.94,19.94,0,0,0-28.2.05L10,356.45A19.94,19.94,0,1,0,38.25,384.6l22.89-23A19.95,19.95,0,1,1,89.4,389.79l-47.53,47.7a19.95,19.95,0,0,0,28.26,28.16l42.23-42.39a20,20,0,0,1,28.27,28.16L42.07,550.33a19.94,19.94,0,0,0,28.26,28.15l81-81.24a19.94,19.94,0,1,1,28.26,28.15l3.13-3.14a19.94,19.94,0,1,0,28.25,28.16l5.69-5.7a19.95,19.95,0,1,1,28.26,28.16l1.75-1.76a19.95,19.95,0,0,0,28.26,28.16L535.34,337.86a19.94,19.94,0,0,0-28.26-28.15l-7,7.06a19.94,19.94,0,1,1-28.25-28.16l46.14-46.31a19.95,19.95,0,1,0-28.26-28.16l-2.25,2.27c-7,5.32-13,4-16,2.67-4-1.81-5.27-3.07-7.9-5.52-.22-.25-.45-.49-.69-.73a20,20,0,0,0-28.21,0Z" transform="translate(-4.17 -28.91)"/><path class="cls-1" d="M343,192.28l.07-32.38a20.65,20.65,0,0,1-4.08-6.32c-1.49-3.29-2.87-10.06,4.13-17.78l.11-56.58L335.44,87l-.23,113.06Z" transform="translate(-4.17 -28.91)"/><path class="cls-1" d="M328.46,206.81l.23-113.06-3.16,3.16a24,24,0,0,1-4.62,3.39l-.23,114.29Z" transform="translate(-4.17 -28.91)"/><polygon class="cls-1" points="69.38 489.22 69.27 545.75 77.05 537.97 77.16 481.44 69.38 489.22"/><path class="cls-1" d="M372.17,106.69l.06-30.12a19.9,19.9,0,0,0-7.76-4.22l-.08,42.12Z" transform="translate(-4.17 -28.91)"/><polygon class="cls-1" points="83.92 474.69 83.8 531.22 91.58 523.44 91.69 466.91 83.92 474.69"/><polygon class="cls-1" points="98.44 460.16 98.33 516.69 106.11 508.91 106.22 452.38 98.44 460.16"/><path class="cls-1" d="M357.64,121.23l.1-49.56A19.82,19.82,0,0,0,350,73.82l-.12,55.2Z" transform="translate(-4.17 -28.91)"/><path class="cls-1" d="M349.77,169.8l0,12.83A20.05,20.05,0,0,0,349.77,169.8Z" transform="translate(-4.17 -28.91)"/><path class="cls-1" d="M284.87,250.4l.32-161.16a19.83,19.83,0,0,0-7.76,1.51l-.34,167.43Z" transform="translate(-4.17 -28.91)"/><polygon class="cls-1" points="396.71 218.31 396.71 218.3 388.94 226.08 388.94 226.09 396.71 218.31"/><polygon class="cls-1" points="382.19 232.84 382.19 232.83 374.41 240.61 374.41 240.62 382.19 232.84"/><path class="cls-1" d="M59,532.66l-.1,51.08a19.94,19.94,0,0,0,7.77-3l.11-55.91Z" transform="translate(-4.17 -28.91)"/><path class="cls-1" d="M434.93,213.18l0,0-27.25,27.26h0Z" transform="translate(-4.17 -28.91)"/><path class="cls-1" d="M299.4,235.87l.28-140.21c-.17-.2-.34-.39-.53-.58a19.65,19.65,0,0,0-7.22-4.6l-.31,153.17Z" transform="translate(-4.17 -28.91)"/><path class="cls-1" d="M378.94,89.56v4A20.2,20.2,0,0,0,378.94,89.56Z" transform="translate(-4.17 -28.91)"/><path class="cls-1" d="M263.89,271.38l6.45-6.45.34-169.59-7.78,7.78-.34,169.73C263,272.35,263.42,271.85,263.89,271.38Z" transform="translate(-4.17 -28.91)"/><polygon class="cls-1" points="69.61 376.16 69.5 432.69 77.28 424.91 77.39 368.38 69.61 376.16"/><path class="cls-1" d="M44.49,547.19l-.06,33.19a19.87,19.87,0,0,0,7.76,3.27l.08-44.24Z" transform="translate(-4.17 -28.91)"/><path class="cls-1" d="M59.25,419.6l-.1,51.27a19.85,19.85,0,0,0,7.77-3.07l.11-56Z" transform="translate(-4.17 -28.91)"/><path class="cls-1" d="M44.72,434.13l-.07,33.58a19.88,19.88,0,0,0,7.76,3.14l.09-44.5Z" transform="translate(-4.17 -28.91)"/><path class="cls-1" d="M15.89,350.13l-.08,38.1a19.83,19.83,0,0,0,7.76,1.8l.1-47.68Z" transform="translate(-4.17 -28.91)"/><path class="cls-1" d="M132.13,233.89l-.37,184a19.92,19.92,0,0,1,7.76,4.23l.39-196Z" transform="translate(-4.17 -28.91)"/><polygon class="cls-1" points="112.97 445.63 112.86 502.16 120.64 494.38 120.75 437.85 112.97 445.63"/><polygon class="cls-1" points="127.5 431.1 127.39 487.63 135.17 479.85 135.28 423.32 127.5 431.1"/><path class="cls-1" d="M37.93,460l0-17.55A20,20,0,0,0,37.93,460Z" transform="translate(-4.17 -28.91)"/><path class="cls-1" d="M9.08,383.19,9.14,357A19.93,19.93,0,0,0,9.08,383.19Z" transform="translate(-4.17 -28.91)"/><polygon class="cls-1" points="98.9 234.04 98.56 403.63 106.34 395.85 106.68 226.26 98.9 234.04"/><path class="cls-1" d="M117.6,248.42l-.34,171a19.8,19.8,0,0,1,7.76-2.14l.36-176.59Z" transform="translate(-4.17 -28.91)"/><path class="cls-1" d="M88.54,277.48l-.17,82.91c.33.3.67.58,1,.9a19.94,19.94,0,0,1,0,28.2l-1,1.05-.11,56.53L96,439.29l.34-169.59Z" transform="translate(-4.17 -28.91)"/><path class="cls-1" d="M74,292l-.13,63.5a20.09,20.09,0,0,1,7.76,1l.15-72.28Z" transform="translate(-4.17 -28.91)"/><polygon class="cls-1" points="40.78 292.16 40.66 348.69 48.44 340.91 48.56 284.38 40.78 292.16"/><path class="cls-1" d="M30.42,335.6l-.11,53.46a19.77,19.77,0,0,0,7.77-4.72l.12-56.52Z" transform="translate(-4.17 -28.91)"/><path class="cls-1" d="M59.48,306.54l-.12,56.53,1.79-1.78a19.75,19.75,0,0,1,6-4.1l.12-58.43Z" transform="translate(-4.17 -28.91)"/><path class="cls-1" d="M313.93,221.34l.24-118.94a14,14,0,0,1-6.65-1.17l-1.11-.52-.26,128.41Z" transform="translate(-4.17 -28.91)"/><polygon class="cls-1" points="236.88 378.14 237.45 95.48 229.67 103.27 229.1 385.92 236.88 378.14"/><polygon class="cls-1" points="251.41 363.61 251.98 80.95 244.2 88.73 243.63 371.39 251.41 363.61"/><polygon class="cls-1" points="222.35 392.67 222.92 110.02 215.14 117.8 214.57 400.45 222.35 392.67"/><polygon class="cls-1" points="207.82 407.2 208.39 124.54 200.61 132.32 200.04 414.98 207.82 407.2"/><path class="cls-1" d="M284.64,363.46l.12-59.23a20,20,0,0,1-7.76,1.16l-.14,65.86Z" transform="translate(-4.17 -28.91)"/><path class="cls-1" d="M270.11,378l.15-74.13a19.75,19.75,0,0,1-6.37-4.28c-.49-.49-.95-1-1.38-1.52l-.18,87.7Z" transform="translate(-4.17 -28.91)"/><polygon class="cls-1" points="164.23 450.79 164.8 168.13 157.02 175.91 156.45 458.57 164.23 450.79"/><path class="cls-1" d="M154.44,211.58l-7.78,7.78-.43,215.87a20.53,20.53,0,0,1,0,3.84L146.09,502l5-5,0,0,2.79-2.79Z" transform="translate(-4.17 -28.91)"/><path class="cls-1" d="M535.4,310.17a20,20,0,0,0-28.21,0l-7.05,7.05A19.95,19.95,0,1,1,471.93,289l46.23-46.23A19.95,19.95,0,0,0,490,214.57l-2.26,2.27c-7,5.3-13,4-16,2.64-4-1.82-5.26-3.08-7.89-5.54-.22-.25-.45-.49-.69-.73a20,20,0,0,0-28.17,0l-27.29,27.29-6.75,6.75L393.11,255l-6.75,6.75-7.78,7.78-6.75,6.75-7.78,7.78-6.75,6.75-7.78,7.78-6.75,6.75L335,313.12l-6.75,6.75-7.78,7.78-6.75,6.75-7.79,7.78-6.74,6.75-7.79,7.78-6.75,6.75-7.78,7.79L270.11,378l-7.78,7.77-6.75,6.75-7.78,7.79-6.75,6.75-7.78,7.78-6.75,6.74-7.78,7.79L212,436.12l-7.78,7.77-6.75,6.76-7.78,7.78-6.75,6.75L175.15,473l-6.75,6.75-7.78,7.78-6.75,6.75L151.08,497a19.94,19.94,0,0,1,28.18,28.23l3.14-3.13a19.94,19.94,0,0,0,28.2,28.21l5.7-5.7a19.95,19.95,0,0,1,28.21,28.21l1.75-1.75a19.95,19.95,0,0,0,28.21,28.21L535.4,338.38A20,20,0,0,0,535.4,310.17Z" transform="translate(-4.17 -28.91)"/><polygon class="cls-1" points="193.29 421.73 193.86 139.07 186.08 146.85 185.51 429.51 193.29 421.73"/><path class="cls-1" d="M371.83,276.28h0l-.39.39a21.16,21.16,0,0,1-7.39,4.65v2.75Z" transform="translate(-4.17 -28.91)"/><path class="cls-1" d="M299.18,348.93l.11-56.53-7.19,7.19c-.19.19-.4.35-.59.53l-.12,56.59Z" transform="translate(-4.17 -28.91)"/><polygon class="cls-1" points="178.76 436.26 179.33 153.61 171.55 161.38 170.98 444.04 178.76 436.26"/><path class="cls-1" d="M357.3,290.81v-8.73a14.12,14.12,0,0,1-3.88-1.09,24.91,24.91,0,0,1-3.88-2.11l0,19.71Z" transform="translate(-4.17 -28.91)"/><polygon class="cls-1" points="309.54 305.49 309.65 248.96 301.87 256.74 301.75 313.27 309.54 305.49"/><path class="cls-1" d="M342.77,305.34l.06-32.27a19.59,19.59,0,0,0-7.76-3.54L335,313.12Z" transform="translate(-4.17 -28.91)"/><path class="cls-1" d="M328.24,319.87l.1-50.62a19.84,19.84,0,0,0-7.77,2.71l-.11,55.69Z" transform="translate(-4.17 -28.91)"/><path class="cls-1" d="M37.71,572.3l0-16.57A20,20,0,0,0,37.71,572.3Z" transform="translate(-4.17 -28.91)"/><path class="cls-4" d="M10,356c-.31.31-.59.64-.87,1l-.06,26.22c.31.35.6.7.93,1a19.8,19.8,0,0,0,5.8,4l.08-38.1Z" transform="translate(-4.17 -28.91)"/><path class="cls-4" d="M23.67,342.35,23.57,390a19.84,19.84,0,0,0,6.74-1l.11-53.46Z" transform="translate(-4.17 -28.91)"/><path class="cls-4" d="M38.2,327.82l-.12,56.52.14-.12,6.61-6.62L45,321.07Z" transform="translate(-4.17 -28.91)"/><path class="cls-4" d="M41.74,437.11A20,20,0,0,0,38,442.4l0,17.55a19.52,19.52,0,0,0,6.72,7.76l.07-33.58Z" transform="translate(-4.17 -28.91)"/><path class="cls-4" d="M41.74,550a19.87,19.87,0,0,0-4,5.78l0,16.57a19.76,19.76,0,0,0,4,5.85,20.14,20.14,0,0,0,2.69,2.23l.06-33.19Z" transform="translate(-4.17 -28.91)"/><path class="cls-4" d="M52.27,539.41l-.08,44.24a20,20,0,0,0,6.73.09l.1-51.08Z" transform="translate(-4.17 -28.91)"/><polygon class="cls-4" points="48.56 284.38 48.44 340.91 55.19 334.16 55.31 277.63 48.56 284.38"/><path class="cls-4" d="M52.5,426.35l-.09,44.5a20.07,20.07,0,0,0,6.74,0l.1-51.27Z" transform="translate(-4.17 -28.91)"/><path class="cls-4" d="M67.26,298.76l-.12,58.43a19.89,19.89,0,0,1,6.74-1.68L74,292Z" transform="translate(-4.17 -28.91)"/><path class="cls-4" d="M66.8,524.88l-.11,55.91A19.84,19.84,0,0,0,70,578.15l3.49-3.49.11-56.53Z" transform="translate(-4.17 -28.91)"/><path class="cls-4" d="M67,411.82l-.11,56a19.68,19.68,0,0,0,3-2.48l3.72-3.72.11-56.53Z" transform="translate(-4.17 -28.91)"/><polygon class="cls-4" points="77.39 368.38 77.28 424.91 84.03 418.16 84.14 361.63 77.39 368.38"/><polygon class="cls-4" points="77.16 481.44 77.05 537.97 83.8 531.22 83.92 474.69 77.16 481.44"/><path class="cls-4" d="M81.79,284.23l-.15,72.28a19.86,19.86,0,0,1,6.73,3.88l.17-82.91Z" transform="translate(-4.17 -28.91)"/><polygon class="cls-4" points="92.15 240.79 91.81 410.38 98.56 403.63 98.9 234.04 92.15 240.79"/><polygon class="cls-4" points="91.69 466.91 91.58 523.44 98.33 516.69 98.44 460.16 91.69 466.91"/><polygon class="cls-4" points="106.22 452.38 106.11 508.91 112.86 502.16 112.97 445.63 106.22 452.38"/><path class="cls-4" d="M110.85,255.17l-.34,169.59,1.76-1.75a19.58,19.58,0,0,1,5-3.64l.34-171Z" transform="translate(-4.17 -28.91)"/><path class="cls-4" d="M125.38,240.64,125,417.23a19.93,19.93,0,0,1,6.74.68l.37-184Z" transform="translate(-4.17 -28.91)"/><polygon class="cls-4" points="120.75 437.85 120.64 494.38 127.39 487.63 127.5 431.1 120.75 437.85"/><path class="cls-4" d="M140.47,451.21l-1,1-.11,56.53,6.75-6.75.13-62.94A19.86,19.86,0,0,1,140.47,451.21Z" transform="translate(-4.17 -28.91)"/><path class="cls-4" d="M139.91,226.11l-.39,196c.32.28.65.56.95.87a19.83,19.83,0,0,1,5.76,12.22l.43-215.87Z" transform="translate(-4.17 -28.91)"/><polygon class="cls-4" points="156.45 458.57 157.02 175.91 150.27 182.67 149.7 465.32 156.45 458.57"/><polygon class="cls-4" points="170.98 444.04 171.55 161.38 164.8 168.13 164.23 450.79 170.98 444.04"/><polygon class="cls-4" points="185.51 429.51 186.08 146.85 179.33 153.61 178.76 436.26 185.51 429.51"/><polygon class="cls-4" points="200.04 414.98 200.61 132.32 193.86 139.07 193.29 421.73 200.04 414.98"/><polygon class="cls-4" points="214.57 400.45 215.14 117.8 208.39 124.54 207.82 407.2 214.57 400.45"/><polygon class="cls-4" points="229.1 385.92 229.67 103.27 222.92 110.02 222.35 392.67 229.1 385.92"/><polygon class="cls-4" points="243.63 371.39 244.2 88.73 237.45 95.48 236.88 378.14 243.63 371.39"/><path class="cls-4" d="M262.33,385.77l.18-87.7a20,20,0,0,1,.05-25.22l.34-169.73-6.75,6.75-.57,282.65Z" transform="translate(-4.17 -28.91)"/><path class="cls-4" d="M277.09,258.18l.34-167.43a19.8,19.8,0,0,0-6.49,4.33l-.26.26-.34,169.59Z" transform="translate(-4.17 -28.91)"/><path class="cls-4" d="M276.86,371.25l.14-65.86a20.25,20.25,0,0,1-6.74-1.52L270.11,378Z" transform="translate(-4.17 -28.91)"/><path class="cls-4" d="M291.62,243.65l.31-153.17a20,20,0,0,0-6.74-1.24l-.32,161.16Z" transform="translate(-4.17 -28.91)"/><path class="cls-4" d="M291.39,356.71l.12-56.59a19.82,19.82,0,0,1-6.75,4.11l-.12,59.23Z" transform="translate(-4.17 -28.91)"/><polygon class="cls-4" points="301.75 313.27 301.87 256.74 295.12 263.49 295 320.02 301.75 313.27"/><path class="cls-4" d="M306.15,229.12l.26-128.41a22,22,0,0,1-6.21-4.48c-.16-.2-.34-.38-.52-.57l-.28,140.21Z" transform="translate(-4.17 -28.91)"/><path class="cls-4" d="M320.46,327.65l.11-55.69a20,20,0,0,0-3.79,3l-3,3-.11,56.53Z" transform="translate(-4.17 -28.91)"/><path class="cls-4" d="M320.68,214.59l.23-114.29a16.07,16.07,0,0,1-6.74,2.1l-.24,118.94Z" transform="translate(-4.17 -28.91)"/><path class="cls-4" d="M335,313.12l.08-43.59a19.77,19.77,0,0,0-6.73-.28l-.1,50.62Z" transform="translate(-4.17 -28.91)"/><polygon class="cls-4" points="331.04 171.15 331.27 58.08 324.52 64.83 324.29 177.9 331.04 171.15"/><path class="cls-4" d="M345,190.28a19.83,19.83,0,0,0,4.76-7.65l0-12.83a19.71,19.71,0,0,0-3.81-6.68H346c-1.2-1.34-2.15-2.32-3-3.22L343,192.28Z" transform="translate(-4.17 -28.91)"/><path class="cls-4" d="M349.52,298.59l0-19.71a38.25,38.25,0,0,1-4.37-3.76l-.19-.21a19.65,19.65,0,0,0-2.16-1.84l-.06,32.27Z" transform="translate(-4.17 -28.91)"/><path class="cls-4" d="M343.3,135.57l6.55-6.55.12-55.2a19.73,19.73,0,0,0-5,3.63l-1.77,1.77-.11,56.58C343.18,135.73,343.23,135.65,343.3,135.57Z" transform="translate(-4.17 -28.91)"/><path class="cls-4" d="M364.05,284.06v-2.75a14.53,14.53,0,0,1-6.74.77v8.73Z" transform="translate(-4.17 -28.91)"/><path class="cls-4" d="M364.39,114.47l.08-42.12a20.15,20.15,0,0,0-6.73-.68l-.1,49.56Z" transform="translate(-4.17 -28.91)"/><path class="cls-4" d="M373.2,105.66a19.89,19.89,0,0,0,5.73-12.06v-4a19.85,19.85,0,0,0-5.74-12.11c-.31-.31-.65-.59-1-.88l-.06,30.12Z" transform="translate(-4.17 -28.91)"/><polygon class="cls-4" points="374.41 240.62 374.41 240.61 367.66 247.36 367.66 247.37 374.41 240.62"/><polygon class="cls-4" points="388.94 226.09 388.94 226.08 382.19 232.83 382.19 232.84 388.94 226.09"/><polygon class="cls-4" points="403.47 211.56 403.47 211.55 396.71 218.3 396.71 218.31 403.47 211.56"/><path class="cls-5" d="M561.86,239.77c-1.71,1.71-4.09,1-6.4.24-2.14-.68-4.17-1.31-5.5,0s-.7,3.36,0,5.5c.72,2.31,1.47,4.69-.24,6.4s-4.09,1-6.4.24c-2.14-.68-4.17-1.31-5.5,0s-.7,3.36,0,5.5c.72,2.31,1.47,4.69-.24,6.4s-4.09,1-6.39.24c-2.15-.68-4.18-1.32-5.51,0s-.69,3.36,0,5.51c.72,2.31,1.47,4.69-.23,6.4s-4.1,1-6.4.23-4.18-1.31-5.51,0-.69,3.36,0,5.51c.73,2.3,1.48,4.68-.23,6.39s-4.09,1-6.4.24c-2.14-.68-4.17-1.31-5.5,0s-.7,3.36,0,5.5c.72,2.31,1.47,4.69-.24,6.4s-4.09,1-6.39.23-4.18-1.31-5.51,0l-.62-.62c1.71-1.71,4.09-1,6.39-.24,2.15.68,4.18,1.31,5.51,0s.69-3.35,0-5.5c-.73-2.31-1.48-4.69.23-6.4s4.09-1,6.4-.23c2.15.67,4.17,1.31,5.5,0s.7-3.36,0-5.51-1.47-4.69.24-6.39,4.09-1,6.39-.24,4.18,1.31,5.51,0,.69-3.36,0-5.5c-.72-2.31-1.47-4.69.23-6.4s4.1-1,6.4-.24,4.18,1.31,5.51,0,.69-3.36,0-5.51c-.73-2.31-1.48-4.69.23-6.4s4.09-1,6.4-.24c2.15.68,4.18,1.32,5.51,0s.69-3.36,0-5.51c-.72-2.3-1.47-4.69.24-6.4s4.09-1,6.4-.23c2.15.67,4.17,1.31,5.51,0s.69-3.36,0-5.51c-.72-2.31-1.47-4.69.24-6.4l.63.63c-1.33,1.33-.7,3.36,0,5.5C562.82,235.68,563.57,238.06,561.86,239.77Z" transform="translate(-4.17 -28.91)"/><path class="cls-6" d="M85,588.82c1.71-1.71,4.09-1,6.39-.24,2.15.68,4.18,1.31,5.51,0s.7-3.36,0-5.51-1.47-4.68.24-6.39,4.09-1,6.39-.24c2.15.68,4.18,1.31,5.51,0s.69-3.36,0-5.5c-.73-2.31-1.47-4.69.24-6.4s4.09-1,6.39-.24,4.18,1.32,5.51,0,.69-3.36,0-5.51c-.73-2.31-1.48-4.69.23-6.4s4.09-1,6.4-.23c2.15.67,4.17,1.31,5.5,0s.7-3.36,0-5.51c-.72-2.3-1.47-4.69.24-6.39s4.09-1,6.39-.24c2.15.68,4.18,1.31,5.51,0s.69-3.36,0-5.5c-.73-2.31-1.48-4.69.23-6.4s4.1-1,6.4-.24c2.15.68,4.18,1.32,5.51,0l.62.62c-1.71,1.71-4.09,1-6.39.24s-4.18-1.32-5.51,0-.69,3.35,0,5.5c.73,2.31,1.47,4.69-.24,6.4s-4.09,1-6.39.23-4.18-1.31-5.51,0-.69,3.36,0,5.51,1.47,4.68-.24,6.39-4.09,1-6.4.24c-2.14-.68-4.17-1.31-5.5,0s-.7,3.36,0,5.5c.72,2.31,1.47,4.69-.24,6.4s-4.09,1-6.39.24c-2.15-.68-4.18-1.32-5.51,0s-.69,3.36,0,5.51c.73,2.31,1.47,4.69-.24,6.4s-4.09,1-6.39.23c-2.15-.67-4.18-1.31-5.51,0s-.69,3.36,0,5.51c.73,2.3,1.47,4.69-.23,6.4s-4.1,1-6.4.23-4.18-1.31-5.51,0-.69,3.36,0,5.51c.73,2.31,1.48,4.69-.23,6.4l-.63-.63c1.33-1.33.69-3.36,0-5.5C84.05,592.91,83.3,590.53,85,588.82Z" transform="translate(-4.17 -28.91)"/><g class="cls-7"><rect class="cls-6" x="126.81" y="398.77" width="501.61" height="83.51" transform="translate(-205.07 367.13) rotate(-45)"/><path class="cls-8" d="M554.79,318.4a3.75,3.75,0,1,1,5.3,0A3.76,3.76,0,0,1,554.79,318.4Z" transform="translate(-4.17 -28.91)"/><path class="cls-8" d="M547.71,325.47a3.75,3.75,0,1,1,5.31,0A3.77,3.77,0,0,1,547.71,325.47Z" transform="translate(-4.17 -28.91)"/><path class="cls-8" d="M540.64,332.54a3.75,3.75,0,1,1,5.31,0A3.75,3.75,0,0,1,540.64,332.54Z" transform="translate(-4.17 -28.91)"/><path class="cls-8" d="M533.57,339.61a3.75,3.75,0,1,1,5.3,0A3.75,3.75,0,0,1,533.57,339.61Z" transform="translate(-4.17 -28.91)"/><path class="cls-8" d="M526.5,346.68a3.75,3.75,0,1,1,5.3,0A3.74,3.74,0,0,1,526.5,346.68Z" transform="translate(-4.17 -28.91)"/><path class="cls-8" d="M519.43,353.75a3.75,3.75,0,1,1,5.3,0A3.74,3.74,0,0,1,519.43,353.75Z" transform="translate(-4.17 -28.91)"/><path class="cls-8" d="M512.36,360.83a3.75,3.75,0,1,1,5.3,0A3.75,3.75,0,0,1,512.36,360.83Z" transform="translate(-4.17 -28.91)"/><path class="cls-8" d="M505.28,367.9a3.75,3.75,0,1,1,5.31,0A3.77,3.77,0,0,1,505.28,367.9Z" transform="translate(-4.17 -28.91)"/><path class="cls-8" d="M498.21,375a3.75,3.75,0,1,1,5.31,0A3.77,3.77,0,0,1,498.21,375Z" transform="translate(-4.17 -28.91)"/><path class="cls-8" d="M491.14,382a3.75,3.75,0,1,1,5.31,0A3.75,3.75,0,0,1,491.14,382Z" transform="translate(-4.17 -28.91)"/><path class="cls-8" d="M484.07,389.11a3.75,3.75,0,1,1,5.3,0A3.74,3.74,0,0,1,484.07,389.11Z" transform="translate(-4.17 -28.91)"/><path class="cls-8" d="M477,396.18a3.75,3.75,0,1,1,5.3,0A3.74,3.74,0,0,1,477,396.18Z" transform="translate(-4.17 -28.91)"/><path class="cls-8" d="M469.93,403.25a3.75,3.75,0,1,1,5.3,0A3.75,3.75,0,0,1,469.93,403.25Z" transform="translate(-4.17 -28.91)"/><path class="cls-8" d="M462.85,410.33a3.75,3.75,0,1,1,5.31,0A3.75,3.75,0,0,1,462.85,410.33Z" transform="translate(-4.17 -28.91)"/><path class="cls-8" d="M455.78,417.4a3.75,3.75,0,1,1,5.31,0A3.75,3.75,0,0,1,455.78,417.4Z" transform="translate(-4.17 -28.91)"/><path class="cls-8" d="M448.71,424.47a3.75,3.75,0,1,1,5.31,0A3.75,3.75,0,0,1,448.71,424.47Z" transform="translate(-4.17 -28.91)"/><path class="cls-8" d="M441.64,431.54a3.75,3.75,0,1,1,5.3,0A3.74,3.74,0,0,1,441.64,431.54Z" transform="translate(-4.17 -28.91)"/><path class="cls-8" d="M434.57,438.61a3.75,3.75,0,1,1,5.3,0A3.74,3.74,0,0,1,434.57,438.61Z" transform="translate(-4.17 -28.91)"/><path class="cls-8" d="M427.5,445.69a3.75,3.75,0,1,1,5.3,0A3.75,3.75,0,0,1,427.5,445.69Z" transform="translate(-4.17 -28.91)"/><path class="cls-8" d="M420.42,452.76a3.75,3.75,0,1,1,5.31,0A3.77,3.77,0,0,1,420.42,452.76Z" transform="translate(-4.17 -28.91)"/><path class="cls-8" d="M413.35,459.83a3.75,3.75,0,1,1,5.31,0A3.77,3.77,0,0,1,413.35,459.83Z" transform="translate(-4.17 -28.91)"/><path class="cls-8" d="M406.28,466.9a3.75,3.75,0,1,1,5.3,0A3.75,3.75,0,0,1,406.28,466.9Z" transform="translate(-4.17 -28.91)"/><path class="cls-8" d="M399.21,474a3.75,3.75,0,1,1,5.3,0A3.75,3.75,0,0,1,399.21,474Z" transform="translate(-4.17 -28.91)"/><path class="cls-8" d="M392.14,481a3.75,3.75,0,1,1,5.3,0A3.75,3.75,0,0,1,392.14,481Z" transform="translate(-4.17 -28.91)"/><path class="cls-8" d="M385.07,488.12a3.75,3.75,0,1,1,5.3,0A3.75,3.75,0,0,1,385.07,488.12Z" transform="translate(-4.17 -28.91)"/><path class="cls-8" d="M378,495.19a3.75,3.75,0,1,1,5.31,0A3.77,3.77,0,0,1,378,495.19Z" transform="translate(-4.17 -28.91)"/><path class="cls-8" d="M370.92,502.26a3.75,3.75,0,1,1,5.3,0A3.77,3.77,0,0,1,370.92,502.26Z" transform="translate(-4.17 -28.91)"/><path class="cls-8" d="M363.85,509.33a3.75,3.75,0,1,1,5.3,0A3.75,3.75,0,0,1,363.85,509.33Z" transform="translate(-4.17 -28.91)"/><path class="cls-8" d="M356.78,516.4a3.75,3.75,0,1,1,5.3,0A3.75,3.75,0,0,1,356.78,516.4Z" transform="translate(-4.17 -28.91)"/><path class="cls-8" d="M349.71,523.47a3.75,3.75,0,1,1,5.3,0A3.74,3.74,0,0,1,349.71,523.47Z" transform="translate(-4.17 -28.91)"/><path class="cls-8" d="M342.64,530.55a3.75,3.75,0,1,1,5.3,0A3.75,3.75,0,0,1,342.64,530.55Z" transform="translate(-4.17 -28.91)"/><path class="cls-8" d="M335.56,537.62a3.75,3.75,0,1,1,5.31,0A3.76,3.76,0,0,1,335.56,537.62Z" transform="translate(-4.17 -28.91)"/><path class="cls-8" d="M328.49,544.69a3.75,3.75,0,1,1,5.31,0A3.77,3.77,0,0,1,328.49,544.69Z" transform="translate(-4.17 -28.91)"/><path class="cls-8" d="M321.42,551.76a3.75,3.75,0,1,1,5.31,0A3.75,3.75,0,0,1,321.42,551.76Z" transform="translate(-4.17 -28.91)"/><path class="cls-8" d="M314.35,558.83a3.75,3.75,0,1,1,5.3,0A3.75,3.75,0,0,1,314.35,558.83Z" transform="translate(-4.17 -28.91)"/><path class="cls-8" d="M307.28,565.9a3.75,3.75,0,1,1,5.3,0A3.74,3.74,0,0,1,307.28,565.9Z" transform="translate(-4.17 -28.91)"/><path class="cls-8" d="M300.21,573a3.75,3.75,0,1,1,5.3,0A3.74,3.74,0,0,1,300.21,573Z" transform="translate(-4.17 -28.91)"/><path class="cls-8" d="M293.13,580.05a3.75,3.75,0,1,1,5.31,0A3.77,3.77,0,0,1,293.13,580.05Z" transform="translate(-4.17 -28.91)"/><path class="cls-8" d="M286.06,587.12a3.75,3.75,0,1,1,5.31,0A3.77,3.77,0,0,1,286.06,587.12Z" transform="translate(-4.17 -28.91)"/><path class="cls-8" d="M279,594.19a3.75,3.75,0,1,1,5.3,0A3.75,3.75,0,0,1,279,594.19Z" transform="translate(-4.17 -28.91)"/><path class="cls-8" d="M271.92,601.26a3.75,3.75,0,1,1,5.3,0A3.75,3.75,0,0,1,271.92,601.26Z" transform="translate(-4.17 -28.91)"/><path class="cls-8" d="M264.85,608.33a3.75,3.75,0,1,1,5.3,0A3.74,3.74,0,0,1,264.85,608.33Z" transform="translate(-4.17 -28.91)"/><path class="cls-8" d="M257.78,615.4a3.75,3.75,0,1,1,5.3,0A3.74,3.74,0,0,1,257.78,615.4Z" transform="translate(-4.17 -28.91)"/><path class="cls-8" d="M250.71,622.48a3.75,3.75,0,1,1,5.3,0A3.75,3.75,0,0,1,250.71,622.48Z" transform="translate(-4.17 -28.91)"/><path class="cls-8" d="M547.71,311.32a3.75,3.75,0,1,1,5.31,0A3.75,3.75,0,0,1,547.71,311.32Z" transform="translate(-4.17 -28.91)"/><path class="cls-8" d="M540.64,318.4a3.75,3.75,0,1,1,5.31,0A3.77,3.77,0,0,1,540.64,318.4Z" transform="translate(-4.17 -28.91)"/><path class="cls-8" d="M533.57,325.47a3.75,3.75,0,1,1,5.3,0A3.77,3.77,0,0,1,533.57,325.47Z" transform="translate(-4.17 -28.91)"/><path class="cls-8" d="M526.5,332.54a3.75,3.75,0,1,1,5.3,0A3.75,3.75,0,0,1,526.5,332.54Z" transform="translate(-4.17 -28.91)"/><path class="cls-8" d="M519.43,339.61a3.75,3.75,0,1,1,5.3,0A3.74,3.74,0,0,1,519.43,339.61Z" transform="translate(-4.17 -28.91)"/><path class="cls-8" d="M512.35,346.68a3.75,3.75,0,1,1,5.31,0A3.75,3.75,0,0,1,512.35,346.68Z" transform="translate(-4.17 -28.91)"/><path class="cls-8" d="M505.28,353.75a3.75,3.75,0,1,1,5.31,0A3.75,3.75,0,0,1,505.28,353.75Z" transform="translate(-4.17 -28.91)"/><path class="cls-8" d="M498.21,360.83a3.75,3.75,0,1,1,5.31,0A3.77,3.77,0,0,1,498.21,360.83Z" transform="translate(-4.17 -28.91)"/><path class="cls-8" d="M491.14,367.9a3.75,3.75,0,1,1,5.3,0A3.76,3.76,0,0,1,491.14,367.9Z" transform="translate(-4.17 -28.91)"/><path class="cls-8" d="M484.07,375a3.75,3.75,0,1,1,5.3,0A3.75,3.75,0,0,1,484.07,375Z" transform="translate(-4.17 -28.91)"/><path class="cls-8" d="M477,382a3.75,3.75,0,1,1,5.3,0A3.74,3.74,0,0,1,477,382Z" transform="translate(-4.17 -28.91)"/><path class="cls-8" d="M469.92,389.11a3.75,3.75,0,1,1,5.31,0A3.75,3.75,0,0,1,469.92,389.11Z" transform="translate(-4.17 -28.91)"/><path class="cls-8" d="M462.85,396.18a3.75,3.75,0,1,1,5.31,0A3.75,3.75,0,0,1,462.85,396.18Z" transform="translate(-4.17 -28.91)"/><path class="cls-8" d="M455.78,403.25a3.75,3.75,0,1,1,5.31,0A3.75,3.75,0,0,1,455.78,403.25Z" transform="translate(-4.17 -28.91)"/><path class="cls-8" d="M448.71,410.33a3.75,3.75,0,1,1,5.3,0A3.77,3.77,0,0,1,448.71,410.33Z" transform="translate(-4.17 -28.91)"/><path class="cls-8" d="M441.64,417.4a3.75,3.75,0,1,1,5.3,0A3.75,3.75,0,0,1,441.64,417.4Z" transform="translate(-4.17 -28.91)"/><path class="cls-8" d="M434.57,424.47a3.75,3.75,0,1,1,5.3,0A3.74,3.74,0,0,1,434.57,424.47Z" transform="translate(-4.17 -28.91)"/><path class="cls-8" d="M427.5,431.54a3.75,3.75,0,1,1,5.3,0A3.74,3.74,0,0,1,427.5,431.54Z" transform="translate(-4.17 -28.91)"/><path class="cls-8" d="M420.42,438.61a3.75,3.75,0,1,1,5.31,0A3.75,3.75,0,0,1,420.42,438.61Z" transform="translate(-4.17 -28.91)"/><path class="cls-8" d="M413.35,445.68a3.75,3.75,0,1,1,5.31,0A3.75,3.75,0,0,1,413.35,445.68Z" transform="translate(-4.17 -28.91)"/><path class="cls-8" d="M406.28,452.76a3.75,3.75,0,1,1,5.31,0A3.77,3.77,0,0,1,406.28,452.76Z" transform="translate(-4.17 -28.91)"/><path class="cls-8" d="M399.21,459.83a3.75,3.75,0,1,1,5.3,0A3.76,3.76,0,0,1,399.21,459.83Z" transform="translate(-4.17 -28.91)"/><path class="cls-8" d="M392.14,466.9a3.75,3.75,0,1,1,5.3,0A3.75,3.75,0,0,1,392.14,466.9Z" transform="translate(-4.17 -28.91)"/><path class="cls-8" d="M385.07,474a3.75,3.75,0,1,1,5.3,0A3.75,3.75,0,0,1,385.07,474Z" transform="translate(-4.17 -28.91)"/><path class="cls-8" d="M378,481a3.75,3.75,0,1,1,5.31,0A3.75,3.75,0,0,1,378,481Z" transform="translate(-4.17 -28.91)"/><path class="cls-8" d="M370.92,488.12a3.75,3.75,0,1,1,5.31,0A3.77,3.77,0,0,1,370.92,488.12Z" transform="translate(-4.17 -28.91)"/><path class="cls-8" d="M363.85,495.19a3.75,3.75,0,1,1,5.3,0A3.77,3.77,0,0,1,363.85,495.19Z" transform="translate(-4.17 -28.91)"/><path class="cls-8" d="M356.78,502.26a3.75,3.75,0,1,1,5.3,0A3.77,3.77,0,0,1,356.78,502.26Z" transform="translate(-4.17 -28.91)"/><path class="cls-8" d="M349.71,509.33a3.75,3.75,0,1,1,5.3,0A3.74,3.74,0,0,1,349.71,509.33Z" transform="translate(-4.17 -28.91)"/><path class="cls-8" d="M342.64,516.4a3.75,3.75,0,1,1,5.3,0A3.75,3.75,0,0,1,342.64,516.4Z" transform="translate(-4.17 -28.91)"/><path class="cls-8" d="M335.56,523.47a3.75,3.75,0,1,1,5.31,0A3.75,3.75,0,0,1,335.56,523.47Z" transform="translate(-4.17 -28.91)"/><path class="cls-8" d="M328.49,530.54a3.75,3.75,0,1,1,5.31,0A3.75,3.75,0,0,1,328.49,530.54Z" transform="translate(-4.17 -28.91)"/><path class="cls-8" d="M321.42,537.62a3.75,3.75,0,1,1,5.3,0A3.76,3.76,0,0,1,321.42,537.62Z" transform="translate(-4.17 -28.91)"/><path class="cls-8" d="M314.35,544.69a3.75,3.75,0,1,1,5.3,0A3.75,3.75,0,0,1,314.35,544.69Z" transform="translate(-4.17 -28.91)"/><path class="cls-8" d="M307.28,551.76a3.75,3.75,0,1,1,5.3,0A3.74,3.74,0,0,1,307.28,551.76Z" transform="translate(-4.17 -28.91)"/><path class="cls-8" d="M300.21,558.83a3.75,3.75,0,1,1,5.3,0A3.74,3.74,0,0,1,300.21,558.83Z" transform="translate(-4.17 -28.91)"/><path class="cls-8" d="M293.13,565.9a3.75,3.75,0,1,1,5.31,0A3.75,3.75,0,0,1,293.13,565.9Z" transform="translate(-4.17 -28.91)"/><path class="cls-8" d="M286.06,573a3.75,3.75,0,1,1,5.31,0A3.77,3.77,0,0,1,286.06,573Z" transform="translate(-4.17 -28.91)"/><path class="cls-8" d="M279,580.05a3.75,3.75,0,1,1,5.31,0A3.77,3.77,0,0,1,279,580.05Z" transform="translate(-4.17 -28.91)"/><path class="cls-8" d="M271.92,587.12a3.75,3.75,0,1,1,5.3,0A3.75,3.75,0,0,1,271.92,587.12Z" transform="translate(-4.17 -28.91)"/><path class="cls-8" d="M264.85,594.19a3.75,3.75,0,1,1,5.3,0A3.75,3.75,0,0,1,264.85,594.19Z" transform="translate(-4.17 -28.91)"/><path class="cls-8" d="M257.77,601.26a3.75,3.75,0,1,1,5.31,0A3.75,3.75,0,0,1,257.77,601.26Z" transform="translate(-4.17 -28.91)"/><path class="cls-8" d="M250.71,608.33a3.75,3.75,0,1,1,5.3,0A3.74,3.74,0,0,1,250.71,608.33Z" transform="translate(-4.17 -28.91)"/><path class="cls-8" d="M243.63,615.4a3.75,3.75,0,1,1,5.31,0A3.75,3.75,0,0,1,243.63,615.4Z" transform="translate(-4.17 -28.91)"/><path class="cls-8" d="M540.64,304.25a3.75,3.75,0,1,1,5.31,0A3.75,3.75,0,0,1,540.64,304.25Z" transform="translate(-4.17 -28.91)"/><path class="cls-8" d="M533.57,311.32a3.75,3.75,0,1,1,5.31,0A3.75,3.75,0,0,1,533.57,311.32Z" transform="translate(-4.17 -28.91)"/><path class="cls-8" d="M526.5,318.4a3.75,3.75,0,1,1,5.3,0A3.75,3.75,0,0,1,526.5,318.4Z" transform="translate(-4.17 -28.91)"/><path class="cls-8" d="M519.43,325.47a3.75,3.75,0,1,1,5.3,0A3.75,3.75,0,0,1,519.43,325.47Z" transform="translate(-4.17 -28.91)"/><path class="cls-8" d="M512.36,332.54a3.75,3.75,0,1,1,5.3,0A3.74,3.74,0,0,1,512.36,332.54Z" transform="translate(-4.17 -28.91)"/><path class="cls-8" d="M505.28,339.61a3.75,3.75,0,1,1,5.31,0A3.75,3.75,0,0,1,505.28,339.61Z" transform="translate(-4.17 -28.91)"/><path class="cls-8" d="M498.21,346.68a3.75,3.75,0,1,1,5.31,0A3.75,3.75,0,0,1,498.21,346.68Z" transform="translate(-4.17 -28.91)"/><path class="cls-8" d="M491.14,353.75a3.75,3.75,0,1,1,5.31,0A3.75,3.75,0,0,1,491.14,353.75Z" transform="translate(-4.17 -28.91)"/><path class="cls-8" d="M484.07,360.83a3.75,3.75,0,1,1,5.3,0A3.77,3.77,0,0,1,484.07,360.83Z" transform="translate(-4.17 -28.91)"/><path class="cls-8" d="M477,367.9a3.75,3.75,0,1,1,5.3,0A3.75,3.75,0,0,1,477,367.9Z" transform="translate(-4.17 -28.91)"/><path class="cls-8" d="M469.93,375a3.75,3.75,0,1,1,5.3,0A3.75,3.75,0,0,1,469.93,375Z" transform="translate(-4.17 -28.91)"/><path class="cls-8" d="M462.85,382a3.75,3.75,0,1,1,5.31,0A3.75,3.75,0,0,1,462.85,382Z" transform="translate(-4.17 -28.91)"/><path class="cls-8" d="M455.78,389.11a3.75,3.75,0,1,1,5.31,0A3.75,3.75,0,0,1,455.78,389.11Z" transform="translate(-4.17 -28.91)"/><path class="cls-8" d="M448.71,396.18a3.75,3.75,0,1,1,5.3,0A3.75,3.75,0,0,1,448.71,396.18Z" transform="translate(-4.17 -28.91)"/><path class="cls-8" d="M441.64,403.26a3.75,3.75,0,1,1,5.3,0A3.75,3.75,0,0,1,441.64,403.26Z" transform="translate(-4.17 -28.91)"/><path class="cls-8" d="M434.57,410.33a3.75,3.75,0,1,1,5.3,0A3.74,3.74,0,0,1,434.57,410.33Z" transform="translate(-4.17 -28.91)"/><path class="cls-8" d="M427.5,417.4a3.75,3.75,0,1,1,5.3,0A3.75,3.75,0,0,1,427.5,417.4Z" transform="translate(-4.17 -28.91)"/><path class="cls-8" d="M420.42,424.47a3.75,3.75,0,1,1,5.31,0A3.75,3.75,0,0,1,420.42,424.47Z" transform="translate(-4.17 -28.91)"/><path class="cls-8" d="M413.35,431.54a3.75,3.75,0,1,1,5.31,0A3.75,3.75,0,0,1,413.35,431.54Z" transform="translate(-4.17 -28.91)"/><path class="cls-8" d="M406.28,438.61a3.75,3.75,0,1,1,5.3,0A3.75,3.75,0,0,1,406.28,438.61Z" transform="translate(-4.17 -28.91)"/><path class="cls-8" d="M399.21,445.69a3.75,3.75,0,1,1,5.3,0A3.75,3.75,0,0,1,399.21,445.69Z" transform="translate(-4.17 -28.91)"/><path class="cls-8" d="M392.14,452.76a3.75,3.75,0,1,1,5.3,0A3.75,3.75,0,0,1,392.14,452.76Z" transform="translate(-4.17 -28.91)"/><path class="cls-8" d="M385.07,459.83a3.75,3.75,0,1,1,5.3,0A3.74,3.74,0,0,1,385.07,459.83Z" transform="translate(-4.17 -28.91)"/><path class="cls-8" d="M378,466.9a3.75,3.75,0,1,1,5.31,0A3.75,3.75,0,0,1,378,466.9Z" transform="translate(-4.17 -28.91)"/><path class="cls-8" d="M370.92,474a3.75,3.75,0,1,1,5.31,0A3.75,3.75,0,0,1,370.92,474Z" transform="translate(-4.17 -28.91)"/><path class="cls-8" d="M363.85,481a3.75,3.75,0,1,1,5.3,0A3.75,3.75,0,0,1,363.85,481Z" transform="translate(-4.17 -28.91)"/><path class="cls-8" d="M356.78,488.12a3.75,3.75,0,1,1,5.3,0A3.76,3.76,0,0,1,356.78,488.12Z" transform="translate(-4.17 -28.91)"/><path class="cls-8" d="M349.71,495.19a3.75,3.75,0,1,1,5.3,0A3.75,3.75,0,0,1,349.71,495.19Z" transform="translate(-4.17 -28.91)"/><path class="cls-8" d="M342.64,502.26a3.75,3.75,0,1,1,5.3,0A3.75,3.75,0,0,1,342.64,502.26Z" transform="translate(-4.17 -28.91)"/><path class="cls-8" d="M335.56,509.33a3.75,3.75,0,1,1,5.31,0A3.75,3.75,0,0,1,335.56,509.33Z" transform="translate(-4.17 -28.91)"/><path class="cls-8" d="M328.49,516.4a3.75,3.75,0,1,1,5.31,0A3.75,3.75,0,0,1,328.49,516.4Z" transform="translate(-4.17 -28.91)"/><path class="cls-8" d="M321.42,523.47a3.75,3.75,0,1,1,5.31,0A3.75,3.75,0,0,1,321.42,523.47Z" transform="translate(-4.17 -28.91)"/><path class="cls-8" d="M314.35,530.55a3.75,3.75,0,1,1,5.3,0A3.77,3.77,0,0,1,314.35,530.55Z" transform="translate(-4.17 -28.91)"/><path class="cls-8" d="M307.28,537.62a3.75,3.75,0,1,1,5.3,0A3.75,3.75,0,0,1,307.28,537.62Z" transform="translate(-4.17 -28.91)"/><path class="cls-8" d="M300.21,544.69a3.75,3.75,0,1,1,5.3,0A3.75,3.75,0,0,1,300.21,544.69Z" transform="translate(-4.17 -28.91)"/><path class="cls-8" d="M293.13,551.76a3.75,3.75,0,1,1,5.31,0A3.75,3.75,0,0,1,293.13,551.76Z" transform="translate(-4.17 -28.91)"/><path class="cls-8" d="M286.06,558.83a3.75,3.75,0,1,1,5.31,0A3.75,3.75,0,0,1,286.06,558.83Z" transform="translate(-4.17 -28.91)"/><path class="cls-8" d="M279,565.9a3.75,3.75,0,1,1,5.3,0A3.75,3.75,0,0,1,279,565.9Z" transform="translate(-4.17 -28.91)"/><path class="cls-8" d="M271.92,573a3.75,3.75,0,1,1,5.3,0A3.77,3.77,0,0,1,271.92,573Z" transform="translate(-4.17 -28.91)"/><path class="cls-8" d="M264.85,580.05a3.75,3.75,0,1,1,5.3,0A3.75,3.75,0,0,1,264.85,580.05Z" transform="translate(-4.17 -28.91)"/><path class="cls-8" d="M257.78,587.12a3.75,3.75,0,1,1,5.3,0A3.75,3.75,0,0,1,257.78,587.12Z" transform="translate(-4.17 -28.91)"/><path class="cls-8" d="M250.71,594.19a3.75,3.75,0,1,1,5.3,0A3.74,3.74,0,0,1,250.71,594.19Z" transform="translate(-4.17 -28.91)"/><path class="cls-8" d="M243.63,601.26a3.75,3.75,0,1,1,5.31,0A3.75,3.75,0,0,1,243.63,601.26Z" transform="translate(-4.17 -28.91)"/><path class="cls-8" d="M236.56,608.33a3.75,3.75,0,1,1,5.3,0A3.75,3.75,0,0,1,236.56,608.33Z" transform="translate(-4.17 -28.91)"/><path class="cls-8" d="M533.57,297.18a3.75,3.75,0,1,1,5.3,0A3.75,3.75,0,0,1,533.57,297.18Z" transform="translate(-4.17 -28.91)"/><path class="cls-8" d="M526.5,304.25a3.75,3.75,0,1,1,5.3,0A3.74,3.74,0,0,1,526.5,304.25Z" transform="translate(-4.17 -28.91)"/><path class="cls-8" d="M519.43,311.33a3.75,3.75,0,1,1,5.3,0A3.75,3.75,0,0,1,519.43,311.33Z" transform="translate(-4.17 -28.91)"/><path class="cls-8" d="M512.35,318.4a3.75,3.75,0,1,1,5.31,0A3.76,3.76,0,0,1,512.35,318.4Z" transform="translate(-4.17 -28.91)"/><path class="cls-8" d="M505.28,325.47a3.75,3.75,0,1,1,5.31,0A3.77,3.77,0,0,1,505.28,325.47Z" transform="translate(-4.17 -28.91)"/><path class="cls-8" d="M498.21,332.54a3.75,3.75,0,1,1,5.31,0A3.75,3.75,0,0,1,498.21,332.54Z" transform="translate(-4.17 -28.91)"/><path class="cls-8" d="M491.14,339.61a3.75,3.75,0,1,1,5.31,0A3.75,3.75,0,0,1,491.14,339.61Z" transform="translate(-4.17 -28.91)"/><path class="cls-8" d="M484.07,346.68a3.75,3.75,0,1,1,5.3,0A3.75,3.75,0,0,1,484.07,346.68Z" transform="translate(-4.17 -28.91)"/><path class="cls-8" d="M477,353.75a3.75,3.75,0,1,1,5.3,0A3.74,3.74,0,0,1,477,353.75Z" transform="translate(-4.17 -28.91)"/><path class="cls-8" d="M469.93,360.83a3.75,3.75,0,1,1,5.3,0A3.76,3.76,0,0,1,469.93,360.83Z" transform="translate(-4.17 -28.91)"/><path class="cls-8" d="M462.85,367.9a3.75,3.75,0,1,1,5.31,0A3.77,3.77,0,0,1,462.85,367.9Z" transform="translate(-4.17 -28.91)"/><path class="cls-8" d="M455.78,375a3.75,3.75,0,1,1,5.31,0A3.77,3.77,0,0,1,455.78,375Z" transform="translate(-4.17 -28.91)"/><path class="cls-8" d="M448.71,382a3.75,3.75,0,1,1,5.31,0A3.75,3.75,0,0,1,448.71,382Z" transform="translate(-4.17 -28.91)"/><path class="cls-8" d="M441.64,389.11a3.75,3.75,0,1,1,5.3,0A3.74,3.74,0,0,1,441.64,389.11Z" transform="translate(-4.17 -28.91)"/><path class="cls-8" d="M434.57,396.18a3.75,3.75,0,1,1,5.3,0A3.74,3.74,0,0,1,434.57,396.18Z" transform="translate(-4.17 -28.91)"/><path class="cls-8" d="M427.5,403.26a3.75,3.75,0,1,1,5.3,0A3.75,3.75,0,0,1,427.5,403.26Z" transform="translate(-4.17 -28.91)"/><path class="cls-8" d="M420.42,410.33a3.75,3.75,0,1,1,5.31,0A3.77,3.77,0,0,1,420.42,410.33Z" transform="translate(-4.17 -28.91)"/><path class="cls-8" d="M413.35,417.4a3.75,3.75,0,1,1,5.31,0A3.77,3.77,0,0,1,413.35,417.4Z" transform="translate(-4.17 -28.91)"/><path class="cls-8" d="M406.28,424.47a3.75,3.75,0,1,1,5.3,0A3.75,3.75,0,0,1,406.28,424.47Z" transform="translate(-4.17 -28.91)"/><path class="cls-8" d="M399.21,431.54a3.75,3.75,0,1,1,5.3,0A3.75,3.75,0,0,1,399.21,431.54Z" transform="translate(-4.17 -28.91)"/><path class="cls-8" d="M392.14,438.61a3.75,3.75,0,1,1,5.3,0A3.74,3.74,0,0,1,392.14,438.61Z" transform="translate(-4.17 -28.91)"/><path class="cls-8" d="M385.07,445.69a3.75,3.75,0,1,1,5.3,0A3.76,3.76,0,0,1,385.07,445.69Z" transform="translate(-4.17 -28.91)"/><path class="cls-8" d="M378,452.76a3.75,3.75,0,1,1,5.3,0A3.76,3.76,0,0,1,378,452.76Z" transform="translate(-4.17 -28.91)"/><path class="cls-8" d="M370.92,459.83a3.75,3.75,0,1,1,5.31,0A3.75,3.75,0,0,1,370.92,459.83Z" transform="translate(-4.17 -28.91)"/><path class="cls-8" d="M363.85,466.9a3.75,3.75,0,1,1,5.3,0A3.75,3.75,0,0,1,363.85,466.9Z" transform="translate(-4.17 -28.91)"/><path class="cls-8" d="M356.78,474a3.75,3.75,0,1,1,5.3,0A3.75,3.75,0,0,1,356.78,474Z" transform="translate(-4.17 -28.91)"/><path class="cls-8" d="M349.71,481.05a3.75,3.75,0,1,1,5.3,0A3.75,3.75,0,0,1,349.71,481.05Z" transform="translate(-4.17 -28.91)"/><path class="cls-8" d="M342.64,488.12a3.75,3.75,0,1,1,5.3,0A3.75,3.75,0,0,1,342.64,488.12Z" transform="translate(-4.17 -28.91)"/><path class="cls-8" d="M335.56,495.19a3.75,3.75,0,1,1,5.31,0A3.77,3.77,0,0,1,335.56,495.19Z" transform="translate(-4.17 -28.91)"/><path class="cls-8" d="M328.49,502.26a3.75,3.75,0,1,1,5.31,0A3.77,3.77,0,0,1,328.49,502.26Z" transform="translate(-4.17 -28.91)"/><path class="cls-8" d="M321.42,509.33a3.75,3.75,0,1,1,5.3,0A3.75,3.75,0,0,1,321.42,509.33Z" transform="translate(-4.17 -28.91)"/><path class="cls-8" d="M314.35,516.4a3.75,3.75,0,1,1,5.3,0A3.75,3.75,0,0,1,314.35,516.4Z" transform="translate(-4.17 -28.91)"/><path class="cls-8" d="M307.28,523.47a3.75,3.75,0,1,1,5.3,0A3.74,3.74,0,0,1,307.28,523.47Z" transform="translate(-4.17 -28.91)"/><path class="cls-8" d="M300.21,530.55a3.75,3.75,0,1,1,5.3,0A3.75,3.75,0,0,1,300.21,530.55Z" transform="translate(-4.17 -28.91)"/><path class="cls-8" d="M293.14,537.62a3.75,3.75,0,1,1,5.3,0A3.76,3.76,0,0,1,293.14,537.62Z" transform="translate(-4.17 -28.91)"/><path class="cls-8" d="M286.06,544.69a3.75,3.75,0,1,1,5.31,0A3.77,3.77,0,0,1,286.06,544.69Z" transform="translate(-4.17 -28.91)"/><path class="cls-8" d="M279,551.76a3.75,3.75,0,1,1,5.31,0A3.75,3.75,0,0,1,279,551.76Z" transform="translate(-4.17 -28.91)"/><path class="cls-8" d="M271.92,558.83a3.75,3.75,0,1,1,5.3,0A3.75,3.75,0,0,1,271.92,558.83Z" transform="translate(-4.17 -28.91)"/><path class="cls-8" d="M264.85,565.9a3.75,3.75,0,1,1,5.3,0A3.74,3.74,0,0,1,264.85,565.9Z" transform="translate(-4.17 -28.91)"/><path class="cls-8" d="M257.78,573a3.75,3.75,0,1,1,5.3,0A3.75,3.75,0,0,1,257.78,573Z" transform="translate(-4.17 -28.91)"/><path class="cls-8" d="M250.71,580.05a3.75,3.75,0,1,1,5.3,0A3.75,3.75,0,0,1,250.71,580.05Z" transform="translate(-4.17 -28.91)"/><path class="cls-8" d="M243.63,587.12a3.75,3.75,0,1,1,5.31,0A3.77,3.77,0,0,1,243.63,587.12Z" transform="translate(-4.17 -28.91)"/><path class="cls-8" d="M236.56,594.19a3.75,3.75,0,1,1,5.3,0A3.75,3.75,0,0,1,236.56,594.19Z" transform="translate(-4.17 -28.91)"/><path class="cls-8" d="M229.49,601.26a3.75,3.75,0,1,1,5.3,0A3.75,3.75,0,0,1,229.49,601.26Z" transform="translate(-4.17 -28.91)"/><path class="cls-8" d="M526.5,290.11a3.75,3.75,0,1,1,5.3,0A3.75,3.75,0,0,1,526.5,290.11Z" transform="translate(-4.17 -28.91)"/><path class="cls-8" d="M519.43,297.18a3.75,3.75,0,1,1,5.3,0A3.74,3.74,0,0,1,519.43,297.18Z" transform="translate(-4.17 -28.91)"/><path class="cls-8" d="M512.36,304.25a3.75,3.75,0,1,1,5.3,0A3.74,3.74,0,0,1,512.36,304.25Z" transform="translate(-4.17 -28.91)"/><path class="cls-8" d="M505.28,311.33a3.75,3.75,0,1,1,5.31,0A3.77,3.77,0,0,1,505.28,311.33Z" transform="translate(-4.17 -28.91)"/><path class="cls-8" d="M498.21,318.4a3.75,3.75,0,1,1,5.31,0A3.77,3.77,0,0,1,498.21,318.4Z" transform="translate(-4.17 -28.91)"/><path class="cls-8" d="M491.14,325.47a3.75,3.75,0,1,1,5.3,0A3.76,3.76,0,0,1,491.14,325.47Z" transform="translate(-4.17 -28.91)"/><path class="cls-8" d="M484.07,332.54a3.75,3.75,0,1,1,5.3,0A3.75,3.75,0,0,1,484.07,332.54Z" transform="translate(-4.17 -28.91)"/><path class="cls-8" d="M477,339.61a3.75,3.75,0,1,1,5.3,0A3.74,3.74,0,0,1,477,339.61Z" transform="translate(-4.17 -28.91)"/><path class="cls-8" d="M469.93,346.68a3.75,3.75,0,1,1,5.3,0A3.75,3.75,0,0,1,469.93,346.68Z" transform="translate(-4.17 -28.91)"/><path class="cls-8" d="M462.85,353.75a3.75,3.75,0,1,1,5.31,0A3.75,3.75,0,0,1,462.85,353.75Z" transform="translate(-4.17 -28.91)"/><path class="cls-8" d="M455.78,360.83a3.75,3.75,0,1,1,5.31,0A3.77,3.77,0,0,1,455.78,360.83Z" transform="translate(-4.17 -28.91)"/><path class="cls-8" d="M448.71,367.9a3.75,3.75,0,1,1,5.31,0A3.76,3.76,0,0,1,448.71,367.9Z" transform="translate(-4.17 -28.91)"/><path class="cls-8" d="M441.64,375a3.75,3.75,0,1,1,5.3,0A3.74,3.74,0,0,1,441.64,375Z" transform="translate(-4.17 -28.91)"/><path class="cls-8" d="M434.57,382a3.75,3.75,0,1,1,5.3,0A3.74,3.74,0,0,1,434.57,382Z" transform="translate(-4.17 -28.91)"/><path class="cls-8" d="M427.5,389.11a3.75,3.75,0,1,1,5.3,0A3.74,3.74,0,0,1,427.5,389.11Z" transform="translate(-4.17 -28.91)"/><path class="cls-8" d="M420.42,396.18a3.75,3.75,0,1,1,5.31,0A3.75,3.75,0,0,1,420.42,396.18Z" transform="translate(-4.17 -28.91)"/><path class="cls-8" d="M413.35,403.26a3.75,3.75,0,1,1,5.31,0A3.77,3.77,0,0,1,413.35,403.26Z" transform="translate(-4.17 -28.91)"/><path class="cls-8" d="M406.28,410.33a3.75,3.75,0,1,1,5.3,0A3.75,3.75,0,0,1,406.28,410.33Z" transform="translate(-4.17 -28.91)"/><path class="cls-8" d="M399.21,417.4a3.75,3.75,0,1,1,5.3,0A3.76,3.76,0,0,1,399.21,417.4Z" transform="translate(-4.17 -28.91)"/><path class="cls-8" d="M392.14,424.47a3.75,3.75,0,1,1,5.3,0A3.75,3.75,0,0,1,392.14,424.47Z" transform="translate(-4.17 -28.91)"/><path class="cls-8" d="M385.07,431.54a3.75,3.75,0,1,1,5.3,0A3.74,3.74,0,0,1,385.07,431.54Z" transform="translate(-4.17 -28.91)"/><path class="cls-8" d="M378,438.61a3.75,3.75,0,1,1,5.31,0A3.75,3.75,0,0,1,378,438.61Z" transform="translate(-4.17 -28.91)"/><path class="cls-8" d="M370.92,445.69a3.75,3.75,0,1,1,5.31,0A3.77,3.77,0,0,1,370.92,445.69Z" transform="translate(-4.17 -28.91)"/><path class="cls-8" d="M363.85,452.76a3.75,3.75,0,1,1,5.3,0A3.77,3.77,0,0,1,363.85,452.76Z" transform="translate(-4.17 -28.91)"/><path class="cls-8" d="M356.78,459.83a3.75,3.75,0,1,1,5.3,0A3.75,3.75,0,0,1,356.78,459.83Z" transform="translate(-4.17 -28.91)"/><path class="cls-8" d="M349.71,466.9a3.75,3.75,0,1,1,5.3,0A3.74,3.74,0,0,1,349.71,466.9Z" transform="translate(-4.17 -28.91)"/><path class="cls-8" d="M342.64,474a3.75,3.75,0,1,1,5.3,0A3.74,3.74,0,0,1,342.64,474Z" transform="translate(-4.17 -28.91)"/><path class="cls-8" d="M335.56,481a3.75,3.75,0,1,1,5.31,0A3.75,3.75,0,0,1,335.56,481Z" transform="translate(-4.17 -28.91)"/><path class="cls-8" d="M328.49,488.12a3.75,3.75,0,1,1,5.31,0A3.77,3.77,0,0,1,328.49,488.12Z" transform="translate(-4.17 -28.91)"/><path class="cls-8" d="M321.42,495.19a3.75,3.75,0,1,1,5.3,0A3.77,3.77,0,0,1,321.42,495.19Z" transform="translate(-4.17 -28.91)"/><path class="cls-8" d="M314.35,502.26a3.75,3.75,0,1,1,5.3,0A3.75,3.75,0,0,1,314.35,502.26Z" transform="translate(-4.17 -28.91)"/><path class="cls-8" d="M307.28,509.33a3.75,3.75,0,1,1,5.3,0A3.74,3.74,0,0,1,307.28,509.33Z" transform="translate(-4.17 -28.91)"/><path class="cls-8" d="M300.21,516.4a3.75,3.75,0,1,1,5.3,0A3.74,3.74,0,0,1,300.21,516.4Z" transform="translate(-4.17 -28.91)"/><path class="cls-8" d="M293.13,523.47a3.75,3.75,0,1,1,5.31,0A3.75,3.75,0,0,1,293.13,523.47Z" transform="translate(-4.17 -28.91)"/><path class="cls-8" d="M286.06,530.55a3.75,3.75,0,1,1,5.31,0A3.77,3.77,0,0,1,286.06,530.55Z" transform="translate(-4.17 -28.91)"/><path class="cls-8" d="M279,537.62a3.75,3.75,0,1,1,5.3,0A3.77,3.77,0,0,1,279,537.62Z" transform="translate(-4.17 -28.91)"/><path class="cls-8" d="M271.92,544.69a3.75,3.75,0,1,1,5.3,0A3.75,3.75,0,0,1,271.92,544.69Z" transform="translate(-4.17 -28.91)"/><path class="cls-8" d="M264.85,551.76a3.75,3.75,0,1,1,5.3,0A3.75,3.75,0,0,1,264.85,551.76Z" transform="translate(-4.17 -28.91)"/><path class="cls-8" d="M257.78,558.83a3.75,3.75,0,1,1,5.3,0A3.74,3.74,0,0,1,257.78,558.83Z" transform="translate(-4.17 -28.91)"/><path class="cls-8" d="M250.71,565.9a3.75,3.75,0,1,1,5.3,0A3.74,3.74,0,0,1,250.71,565.9Z" transform="translate(-4.17 -28.91)"/><path class="cls-8" d="M243.63,573a3.75,3.75,0,1,1,5.31,0A3.77,3.77,0,0,1,243.63,573Z" transform="translate(-4.17 -28.91)"/><path class="cls-8" d="M236.56,580.05a3.75,3.75,0,1,1,5.3,0A3.77,3.77,0,0,1,236.56,580.05Z" transform="translate(-4.17 -28.91)"/><path class="cls-8" d="M229.49,587.12a3.75,3.75,0,1,1,5.3,0A3.77,3.77,0,0,1,229.49,587.12Z" transform="translate(-4.17 -28.91)"/><path class="cls-8" d="M222.42,594.19a3.75,3.75,0,1,1,5.3,0A3.75,3.75,0,0,1,222.42,594.19Z" transform="translate(-4.17 -28.91)"/><path class="cls-8" d="M519.43,283a3.75,3.75,0,1,1,5.3,0A3.74,3.74,0,0,1,519.43,283Z" transform="translate(-4.17 -28.91)"/><path class="cls-8" d="M512.36,290.11a3.75,3.75,0,1,1,5.3,0A3.75,3.75,0,0,1,512.36,290.11Z" transform="translate(-4.17 -28.91)"/><path class="cls-8" d="M505.28,297.18a3.75,3.75,0,1,1,5.31,0A3.75,3.75,0,0,1,505.28,297.18Z" transform="translate(-4.17 -28.91)"/><path class="cls-8" d="M498.21,304.25a3.75,3.75,0,1,1,5.31,0A3.75,3.75,0,0,1,498.21,304.25Z" transform="translate(-4.17 -28.91)"/><path class="cls-8" d="M491.14,311.32a3.75,3.75,0,1,1,5.31,0A3.75,3.75,0,0,1,491.14,311.32Z" transform="translate(-4.17 -28.91)"/><path class="cls-8" d="M484.07,318.4a3.75,3.75,0,1,1,5.3,0A3.76,3.76,0,0,1,484.07,318.4Z" transform="translate(-4.17 -28.91)"/><path class="cls-8" d="M477,325.47a3.75,3.75,0,1,1,5.3,0A3.75,3.75,0,0,1,477,325.47Z" transform="translate(-4.17 -28.91)"/><path class="cls-8" d="M469.93,332.54a3.75,3.75,0,1,1,5.3,0A3.75,3.75,0,0,1,469.93,332.54Z" transform="translate(-4.17 -28.91)"/><path class="cls-8" d="M462.85,339.61a3.75,3.75,0,1,1,5.31,0A3.75,3.75,0,0,1,462.85,339.61Z" transform="translate(-4.17 -28.91)"/><path class="cls-8" d="M455.78,346.68a3.75,3.75,0,1,1,5.31,0A3.75,3.75,0,0,1,455.78,346.68Z" transform="translate(-4.17 -28.91)"/><path class="cls-8" d="M448.71,353.75a3.75,3.75,0,1,1,5.3,0A3.75,3.75,0,0,1,448.71,353.75Z" transform="translate(-4.17 -28.91)"/><path class="cls-8" d="M441.64,360.83a3.75,3.75,0,1,1,5.3,0A3.75,3.75,0,0,1,441.64,360.83Z" transform="translate(-4.17 -28.91)"/><path class="cls-8" d="M434.57,367.9a3.75,3.75,0,1,1,5.3,0A3.75,3.75,0,0,1,434.57,367.9Z" transform="translate(-4.17 -28.91)"/><path class="cls-8" d="M427.5,375a3.75,3.75,0,1,1,5.3,0A3.75,3.75,0,0,1,427.5,375Z" transform="translate(-4.17 -28.91)"/><path class="cls-8" d="M420.42,382a3.75,3.75,0,1,1,5.31,0A3.75,3.75,0,0,1,420.42,382Z" transform="translate(-4.17 -28.91)"/><path class="cls-8" d="M413.35,389.11a3.75,3.75,0,1,1,5.31,0A3.75,3.75,0,0,1,413.35,389.11Z" transform="translate(-4.17 -28.91)"/><path class="cls-8" d="M406.28,396.18a3.75,3.75,0,1,1,5.31,0A3.75,3.75,0,0,1,406.28,396.18Z" transform="translate(-4.17 -28.91)"/><path class="cls-8" d="M399.21,403.26a3.75,3.75,0,1,1,5.3,0A3.76,3.76,0,0,1,399.21,403.26Z" transform="translate(-4.17 -28.91)"/><path class="cls-8" d="M392.14,410.33a3.75,3.75,0,1,1,5.3,0A3.76,3.76,0,0,1,392.14,410.33Z" transform="translate(-4.17 -28.91)"/><path class="cls-8" d="M385.07,417.4a3.75,3.75,0,1,1,5.3,0A3.75,3.75,0,0,1,385.07,417.4Z" transform="translate(-4.17 -28.91)"/><path class="cls-8" d="M378,424.47a3.75,3.75,0,1,1,5.31,0A3.75,3.75,0,0,1,378,424.47Z" transform="translate(-4.17 -28.91)"/><path class="cls-8" d="M370.92,431.54a3.75,3.75,0,1,1,5.31,0A3.75,3.75,0,0,1,370.92,431.54Z" transform="translate(-4.17 -28.91)"/><path class="cls-8" d="M363.85,438.61a3.75,3.75,0,1,1,5.3,0A3.75,3.75,0,0,1,363.85,438.61Z" transform="translate(-4.17 -28.91)"/><path class="cls-8" d="M356.78,445.69a3.75,3.75,0,1,1,5.3,0A3.77,3.77,0,0,1,356.78,445.69Z" transform="translate(-4.17 -28.91)"/><path class="cls-8" d="M349.71,452.76a3.75,3.75,0,1,1,5.3,0A3.75,3.75,0,0,1,349.71,452.76Z" transform="translate(-4.17 -28.91)"/><path class="cls-8" d="M342.64,459.83a3.75,3.75,0,1,1,5.3,0A3.74,3.74,0,0,1,342.64,459.83Z" transform="translate(-4.17 -28.91)"/><path class="cls-8" d="M335.56,466.9a3.75,3.75,0,1,1,5.31,0A3.75,3.75,0,0,1,335.56,466.9Z" transform="translate(-4.17 -28.91)"/><path class="cls-8" d="M328.49,474a3.75,3.75,0,1,1,5.31,0A3.75,3.75,0,0,1,328.49,474Z" transform="translate(-4.17 -28.91)"/><path class="cls-8" d="M321.42,481a3.75,3.75,0,1,1,5.31,0A3.75,3.75,0,0,1,321.42,481Z" transform="translate(-4.17 -28.91)"/><path class="cls-8" d="M314.35,488.12a3.75,3.75,0,1,1,5.3,0A3.77,3.77,0,0,1,314.35,488.12Z" transform="translate(-4.17 -28.91)"/><path class="cls-8" d="M307.28,495.19a3.75,3.75,0,1,1,5.3,0A3.75,3.75,0,0,1,307.28,495.19Z" transform="translate(-4.17 -28.91)"/><path class="cls-8" d="M300.21,502.26a3.75,3.75,0,1,1,5.3,0A3.75,3.75,0,0,1,300.21,502.26Z" transform="translate(-4.17 -28.91)"/><path class="cls-8" d="M293.13,509.33a3.75,3.75,0,1,1,5.31,0A3.75,3.75,0,0,1,293.13,509.33Z" transform="translate(-4.17 -28.91)"/><path class="cls-8" d="M286.06,516.4a3.75,3.75,0,1,1,5.31,0A3.75,3.75,0,0,1,286.06,516.4Z" transform="translate(-4.17 -28.91)"/><path class="cls-8" d="M279,523.47a3.75,3.75,0,1,1,5.3,0A3.75,3.75,0,0,1,279,523.47Z" transform="translate(-4.17 -28.91)"/><path class="cls-8" d="M271.92,530.55a3.75,3.75,0,1,1,5.3,0A3.77,3.77,0,0,1,271.92,530.55Z" transform="translate(-4.17 -28.91)"/><path class="cls-8" d="M264.85,537.62a3.75,3.75,0,1,1,5.3,0A3.76,3.76,0,0,1,264.85,537.62Z" transform="translate(-4.17 -28.91)"/><path class="cls-8" d="M257.77,544.69a3.75,3.75,0,1,1,5.31,0A3.77,3.77,0,0,1,257.77,544.69Z" transform="translate(-4.17 -28.91)"/><path class="cls-8" d="M250.71,551.76a3.75,3.75,0,1,1,5.3,0A3.75,3.75,0,0,1,250.71,551.76Z" transform="translate(-4.17 -28.91)"/><path class="cls-8" d="M243.63,558.83a3.75,3.75,0,1,1,5.31,0A3.75,3.75,0,0,1,243.63,558.83Z" transform="translate(-4.17 -28.91)"/><path class="cls-8" d="M236.56,565.9a3.75,3.75,0,1,1,5.3,0A3.75,3.75,0,0,1,236.56,565.9Z" transform="translate(-4.17 -28.91)"/><path class="cls-8" d="M229.49,573a3.75,3.75,0,1,1,5.3,0A3.77,3.77,0,0,1,229.49,573Z" transform="translate(-4.17 -28.91)"/><path class="cls-8" d="M222.42,580.05a3.75,3.75,0,1,1,5.3,0A3.76,3.76,0,0,1,222.42,580.05Z" transform="translate(-4.17 -28.91)"/><path class="cls-8" d="M215.35,587.12a3.75,3.75,0,1,1,5.3,0A3.75,3.75,0,0,1,215.35,587.12Z" transform="translate(-4.17 -28.91)"/><path class="cls-8" d="M512.36,276a3.75,3.75,0,1,1,5.3,0A3.75,3.75,0,0,1,512.36,276Z" transform="translate(-4.17 -28.91)"/><path class="cls-8" d="M505.28,283a3.75,3.75,0,1,1,5.31,0A3.77,3.77,0,0,1,505.28,283Z" transform="translate(-4.17 -28.91)"/><path class="cls-8" d="M498.21,290.11a3.75,3.75,0,1,1,5.31,0A3.75,3.75,0,0,1,498.21,290.11Z" transform="translate(-4.17 -28.91)"/><path class="cls-8" d="M491.14,297.18a3.75,3.75,0,1,1,5.3,0A3.74,3.74,0,0,1,491.14,297.18Z" transform="translate(-4.17 -28.91)"/><path class="cls-8" d="M484.07,304.25a3.75,3.75,0,1,1,5.3,0A3.75,3.75,0,0,1,484.07,304.25Z" transform="translate(-4.17 -28.91)"/><path class="cls-8" d="M477,311.32a3.75,3.75,0,1,1,5.3,0A3.74,3.74,0,0,1,477,311.32Z" transform="translate(-4.17 -28.91)"/><path class="cls-8" d="M469.92,318.4a3.75,3.75,0,1,1,5.31,0A3.77,3.77,0,0,1,469.92,318.4Z" transform="translate(-4.17 -28.91)"/><path class="cls-8" d="M462.85,325.47a3.75,3.75,0,1,1,5.31,0A3.77,3.77,0,0,1,462.85,325.47Z" transform="translate(-4.17 -28.91)"/><path class="cls-8" d="M455.78,332.54a3.75,3.75,0,1,1,5.31,0A3.77,3.77,0,0,1,455.78,332.54Z" transform="translate(-4.17 -28.91)"/><path class="cls-8" d="M448.71,339.61a3.75,3.75,0,1,1,5.3,0A3.75,3.75,0,0,1,448.71,339.61Z" transform="translate(-4.17 -28.91)"/><path class="cls-8" d="M441.64,346.68a3.75,3.75,0,1,1,5.3,0A3.74,3.74,0,0,1,441.64,346.68Z" transform="translate(-4.17 -28.91)"/><path class="cls-8" d="M434.57,353.75a3.75,3.75,0,1,1,5.3,0A3.74,3.74,0,0,1,434.57,353.75Z" transform="translate(-4.17 -28.91)"/><path class="cls-8" d="M427.5,360.83a3.75,3.75,0,1,1,5.3,0A3.75,3.75,0,0,1,427.5,360.83Z" transform="translate(-4.17 -28.91)"/><path class="cls-8" d="M420.42,367.9a3.75,3.75,0,1,1,5.31,0A3.77,3.77,0,0,1,420.42,367.9Z" transform="translate(-4.17 -28.91)"/><path class="cls-8" d="M413.35,375a3.75,3.75,0,1,1,5.31,0A3.77,3.77,0,0,1,413.35,375Z" transform="translate(-4.17 -28.91)"/><path class="cls-8" d="M406.28,382a3.75,3.75,0,1,1,5.3,0A3.75,3.75,0,0,1,406.28,382Z" transform="translate(-4.17 -28.91)"/><path class="cls-8" d="M399.21,389.11a3.75,3.75,0,1,1,5.3,0A3.74,3.74,0,0,1,399.21,389.11Z" transform="translate(-4.17 -28.91)"/><path class="cls-8" d="M392.14,396.18a3.75,3.75,0,1,1,5.3,0A3.75,3.75,0,0,1,392.14,396.18Z" transform="translate(-4.17 -28.91)"/><path class="cls-8" d="M385.07,403.25a3.75,3.75,0,1,1,5.3,0A3.74,3.74,0,0,1,385.07,403.25Z" transform="translate(-4.17 -28.91)"/><path class="cls-8" d="M378,410.33a3.75,3.75,0,1,1,5.31,0A3.75,3.75,0,0,1,378,410.33Z" transform="translate(-4.17 -28.91)"/><path class="cls-8" d="M370.92,417.4a3.75,3.75,0,1,1,5.31,0A3.77,3.77,0,0,1,370.92,417.4Z" transform="translate(-4.17 -28.91)"/><path class="cls-8" d="M363.85,424.47a3.75,3.75,0,1,1,5.3,0A3.75,3.75,0,0,1,363.85,424.47Z" transform="translate(-4.17 -28.91)"/><path class="cls-8" d="M356.78,431.54a3.75,3.75,0,1,1,5.3,0A3.75,3.75,0,0,1,356.78,431.54Z" transform="translate(-4.17 -28.91)"/><path class="cls-8" d="M349.71,438.61a3.75,3.75,0,1,1,5.3,0A3.74,3.74,0,0,1,349.71,438.61Z" transform="translate(-4.17 -28.91)"/><path class="cls-8" d="M342.64,445.68a3.75,3.75,0,1,1,5.3,0A3.74,3.74,0,0,1,342.64,445.68Z" transform="translate(-4.17 -28.91)"/><path class="cls-8" d="M335.56,452.76a3.75,3.75,0,1,1,5.31,0A3.77,3.77,0,0,1,335.56,452.76Z" transform="translate(-4.17 -28.91)"/><path class="cls-8" d="M328.49,459.83a3.75,3.75,0,1,1,5.31,0A3.77,3.77,0,0,1,328.49,459.83Z" transform="translate(-4.17 -28.91)"/><path class="cls-8" d="M321.42,466.9a3.75,3.75,0,1,1,5.31,0A3.75,3.75,0,0,1,321.42,466.9Z" transform="translate(-4.17 -28.91)"/><path class="cls-8" d="M314.35,474a3.75,3.75,0,1,1,5.3,0A3.74,3.74,0,0,1,314.35,474Z" transform="translate(-4.17 -28.91)"/><path class="cls-8" d="M307.28,481a3.75,3.75,0,1,1,5.3,0A3.74,3.74,0,0,1,307.28,481Z" transform="translate(-4.17 -28.91)"/><path class="cls-8" d="M300.21,488.12a3.75,3.75,0,1,1,5.3,0A3.75,3.75,0,0,1,300.21,488.12Z" transform="translate(-4.17 -28.91)"/><path class="cls-8" d="M293.13,495.19a3.75,3.75,0,1,1,5.31,0A3.77,3.77,0,0,1,293.13,495.19Z" transform="translate(-4.17 -28.91)"/><path class="cls-8" d="M286.06,502.26a3.75,3.75,0,1,1,5.31,0A3.77,3.77,0,0,1,286.06,502.26Z" transform="translate(-4.17 -28.91)"/><path class="cls-8" d="M279,509.33a3.75,3.75,0,1,1,5.3,0A3.75,3.75,0,0,1,279,509.33Z" transform="translate(-4.17 -28.91)"/><path class="cls-8" d="M271.92,516.4a3.75,3.75,0,1,1,5.3,0A3.75,3.75,0,0,1,271.92,516.4Z" transform="translate(-4.17 -28.91)"/><path class="cls-8" d="M264.85,523.47a3.75,3.75,0,1,1,5.3,0A3.74,3.74,0,0,1,264.85,523.47Z" transform="translate(-4.17 -28.91)"/><path class="cls-8" d="M257.77,530.55a3.75,3.75,0,1,1,5.31,0A3.76,3.76,0,0,1,257.77,530.55Z" transform="translate(-4.17 -28.91)"/><path class="cls-8" d="M250.71,537.62a3.75,3.75,0,1,1,5.3,0A3.75,3.75,0,0,1,250.71,537.62Z" transform="translate(-4.17 -28.91)"/><path class="cls-8" d="M243.63,544.69a3.75,3.75,0,1,1,5.31,0A3.77,3.77,0,0,1,243.63,544.69Z" transform="translate(-4.17 -28.91)"/><path class="cls-8" d="M236.56,551.76a3.75,3.75,0,1,1,5.31,0A3.75,3.75,0,0,1,236.56,551.76Z" transform="translate(-4.17 -28.91)"/><path class="cls-8" d="M229.49,558.83a3.75,3.75,0,1,1,5.3,0A3.75,3.75,0,0,1,229.49,558.83Z" transform="translate(-4.17 -28.91)"/><path class="cls-8" d="M222.42,565.9a3.75,3.75,0,1,1,5.3,0A3.74,3.74,0,0,1,222.42,565.9Z" transform="translate(-4.17 -28.91)"/><path class="cls-8" d="M215.35,573a3.75,3.75,0,1,1,5.3,0A3.75,3.75,0,0,1,215.35,573Z" transform="translate(-4.17 -28.91)"/><path class="cls-8" d="M208.27,580.05a3.75,3.75,0,1,1,5.31,0A3.77,3.77,0,0,1,208.27,580.05Z" transform="translate(-4.17 -28.91)"/><path class="cls-8" d="M505.28,268.89a3.75,3.75,0,1,1,5.31,0A3.75,3.75,0,0,1,505.28,268.89Z" transform="translate(-4.17 -28.91)"/><path class="cls-8" d="M498.21,276a3.75,3.75,0,1,1,5.31,0A3.77,3.77,0,0,1,498.21,276Z" transform="translate(-4.17 -28.91)"/><path class="cls-8" d="M491.14,283a3.75,3.75,0,1,1,5.3,0A3.75,3.75,0,0,1,491.14,283Z" transform="translate(-4.17 -28.91)"/><path class="cls-8" d="M484.07,290.11a3.75,3.75,0,1,1,5.3,0A3.75,3.75,0,0,1,484.07,290.11Z" transform="translate(-4.17 -28.91)"/><path class="cls-8" d="M477,297.18a3.75,3.75,0,1,1,5.3,0A3.74,3.74,0,0,1,477,297.18Z" transform="translate(-4.17 -28.91)"/><path class="cls-8" d="M469.93,304.25a3.75,3.75,0,1,1,5.3,0A3.75,3.75,0,0,1,469.93,304.25Z" transform="translate(-4.17 -28.91)"/><path class="cls-8" d="M462.85,311.32a3.75,3.75,0,1,1,5.31,0A3.75,3.75,0,0,1,462.85,311.32Z" transform="translate(-4.17 -28.91)"/><path class="cls-8" d="M455.78,318.4a3.75,3.75,0,1,1,5.31,0A3.77,3.77,0,0,1,455.78,318.4Z" transform="translate(-4.17 -28.91)"/><path class="cls-8" d="M448.71,325.47a3.75,3.75,0,1,1,5.3,0A3.77,3.77,0,0,1,448.71,325.47Z" transform="translate(-4.17 -28.91)"/><path class="cls-8" d="M441.64,332.54a3.75,3.75,0,1,1,5.3,0A3.74,3.74,0,0,1,441.64,332.54Z" transform="translate(-4.17 -28.91)"/><path class="cls-8" d="M434.57,339.61a3.75,3.75,0,1,1,5.3,0A3.74,3.74,0,0,1,434.57,339.61Z" transform="translate(-4.17 -28.91)"/><path class="cls-8" d="M427.5,346.68a3.75,3.75,0,1,1,5.3,0A3.74,3.74,0,0,1,427.5,346.68Z" transform="translate(-4.17 -28.91)"/><path class="cls-8" d="M420.42,353.75a3.75,3.75,0,1,1,5.31,0A3.75,3.75,0,0,1,420.42,353.75Z" transform="translate(-4.17 -28.91)"/><path class="cls-8" d="M413.35,360.83a3.75,3.75,0,1,1,5.31,0A3.77,3.77,0,0,1,413.35,360.83Z" transform="translate(-4.17 -28.91)"/><path class="cls-8" d="M406.28,367.9a3.75,3.75,0,1,1,5.3,0A3.77,3.77,0,0,1,406.28,367.9Z" transform="translate(-4.17 -28.91)"/><path class="cls-8" d="M399.21,375a3.75,3.75,0,1,1,5.3,0A3.75,3.75,0,0,1,399.21,375Z" transform="translate(-4.17 -28.91)"/><path class="cls-8" d="M392.14,382a3.75,3.75,0,1,1,5.3,0A3.74,3.74,0,0,1,392.14,382Z" transform="translate(-4.17 -28.91)"/><path class="cls-8" d="M385.07,389.11a3.75,3.75,0,1,1,5.3,0A3.74,3.74,0,0,1,385.07,389.11Z" transform="translate(-4.17 -28.91)"/><path class="cls-8" d="M378,396.18a3.75,3.75,0,1,1,5.31,0A3.75,3.75,0,0,1,378,396.18Z" transform="translate(-4.17 -28.91)"/><path class="cls-8" d="M370.92,403.25a3.75,3.75,0,1,1,5.31,0A3.75,3.75,0,0,1,370.92,403.25Z" transform="translate(-4.17 -28.91)"/><path class="cls-8" d="M363.85,410.33a3.75,3.75,0,1,1,5.3,0A3.77,3.77,0,0,1,363.85,410.33Z" transform="translate(-4.17 -28.91)"/><path class="cls-8" d="M356.78,417.4a3.75,3.75,0,1,1,5.3,0A3.77,3.77,0,0,1,356.78,417.4Z" transform="translate(-4.17 -28.91)"/><path class="cls-8" d="M349.71,424.47a3.75,3.75,0,1,1,5.3,0A3.74,3.74,0,0,1,349.71,424.47Z" transform="translate(-4.17 -28.91)"/><path class="cls-8" d="M342.64,431.54a3.75,3.75,0,1,1,5.3,0A3.74,3.74,0,0,1,342.64,431.54Z" transform="translate(-4.17 -28.91)"/><path class="cls-8" d="M335.56,438.61a3.75,3.75,0,1,1,5.31,0A3.75,3.75,0,0,1,335.56,438.61Z" transform="translate(-4.17 -28.91)"/><path class="cls-8" d="M328.49,445.69a3.75,3.75,0,1,1,5.31,0A3.77,3.77,0,0,1,328.49,445.69Z" transform="translate(-4.17 -28.91)"/><path class="cls-8" d="M321.42,452.76a3.75,3.75,0,1,1,5.31,0A3.77,3.77,0,0,1,321.42,452.76Z" transform="translate(-4.17 -28.91)"/><path class="cls-8" d="M314.35,459.83a3.75,3.75,0,1,1,5.3,0A3.75,3.75,0,0,1,314.35,459.83Z" transform="translate(-4.17 -28.91)"/><path class="cls-8" d="M307.28,466.9a3.75,3.75,0,1,1,5.3,0A3.74,3.74,0,0,1,307.28,466.9Z" transform="translate(-4.17 -28.91)"/><path class="cls-8" d="M300.21,474a3.75,3.75,0,1,1,5.3,0A3.74,3.74,0,0,1,300.21,474Z" transform="translate(-4.17 -28.91)"/><path class="cls-8" d="M293.13,481a3.75,3.75,0,1,1,5.31,0A3.75,3.75,0,0,1,293.13,481Z" transform="translate(-4.17 -28.91)"/><path class="cls-8" d="M286.06,488.12a3.75,3.75,0,1,1,5.31,0A3.77,3.77,0,0,1,286.06,488.12Z" transform="translate(-4.17 -28.91)"/><path class="cls-8" d="M279,495.19a3.75,3.75,0,1,1,5.3,0A3.77,3.77,0,0,1,279,495.19Z" transform="translate(-4.17 -28.91)"/><path class="cls-8" d="M271.92,502.26a3.75,3.75,0,1,1,5.3,0A3.76,3.76,0,0,1,271.92,502.26Z" transform="translate(-4.17 -28.91)"/><path class="cls-8" d="M264.85,509.33a3.75,3.75,0,1,1,5.3,0A3.74,3.74,0,0,1,264.85,509.33Z" transform="translate(-4.17 -28.91)"/><path class="cls-8" d="M257.77,516.4a3.75,3.75,0,1,1,5.31,0A3.75,3.75,0,0,1,257.77,516.4Z" transform="translate(-4.17 -28.91)"/><path class="cls-8" d="M250.71,523.47a3.75,3.75,0,1,1,5.3,0A3.74,3.74,0,0,1,250.71,523.47Z" transform="translate(-4.17 -28.91)"/><path class="cls-8" d="M243.63,530.55a3.75,3.75,0,1,1,5.31,0A3.77,3.77,0,0,1,243.63,530.55Z" transform="translate(-4.17 -28.91)"/><path class="cls-8" d="M236.56,537.62a3.75,3.75,0,1,1,5.31,0A3.77,3.77,0,0,1,236.56,537.62Z" transform="translate(-4.17 -28.91)"/><path class="cls-8" d="M229.49,544.69a3.75,3.75,0,1,1,5.3,0A3.76,3.76,0,0,1,229.49,544.69Z" transform="translate(-4.17 -28.91)"/><path class="cls-8" d="M222.42,551.76a3.75,3.75,0,1,1,5.3,0A3.75,3.75,0,0,1,222.42,551.76Z" transform="translate(-4.17 -28.91)"/><path class="cls-8" d="M215.35,558.83a3.75,3.75,0,1,1,5.3,0A3.74,3.74,0,0,1,215.35,558.83Z" transform="translate(-4.17 -28.91)"/><path class="cls-8" d="M208.27,565.9a3.75,3.75,0,1,1,5.31,0A3.75,3.75,0,0,1,208.27,565.9Z" transform="translate(-4.17 -28.91)"/><path class="cls-8" d="M201.2,573a3.75,3.75,0,1,1,5.31,0A3.77,3.77,0,0,1,201.2,573Z" transform="translate(-4.17 -28.91)"/><rect class="cls-5" x="81.63" y="329.35" width="501.61" height="81.27" transform="translate(-168.42 314.52) rotate(-45)"/></g><path class="cls-5" d="M512.53,72.68a20.17,20.17,0,0,1,0,28.53l-126,126a20.17,20.17,0,0,1-28.53,0h0a20.19,20.19,0,0,1,0-28.54l126-126a20.17,20.17,0,0,1,28.53,0Z" transform="translate(-4.17 -28.91)"/><path class="cls-4" d="M581,96a20.17,20.17,0,0,1,0,28.53l-57.86,57.86a20.17,20.17,0,0,1-28.53,0h0a20.17,20.17,0,0,1,0-28.53L552.49,96A20.17,20.17,0,0,1,581,96Z" transform="translate(-4.17 -28.91)"/><path class="cls-8" d="M204.82,101.93a20.17,20.17,0,0,1,0,28.53l-99.6,99.6a20.17,20.17,0,0,1-28.53,0h0a20.17,20.17,0,0,1,0-28.53l99.6-99.6a20.17,20.17,0,0,1,28.53,0Z" transform="translate(-4.17 -28.91)"/><path class="cls-9" d="M524.09,405.1a20.17,20.17,0,0,1,0,28.53l-99.6,99.6a20.18,20.18,0,0,1-28.54,0h0a20.18,20.18,0,0,1,0-28.54l99.6-99.59a20.18,20.18,0,0,1,28.54,0Z" transform="translate(-4.17 -28.91)"/><path class="cls-6" d="M410.72,36.4a21,21,0,1,1-29.67,0A21,21,0,0,1,410.72,36.4Z" transform="translate(-4.17 -28.91)"/><path class="cls-10" d="M548.88,35.06a21,21,0,1,1-29.66,0A21,21,0,0,1,548.88,35.06Z" transform="translate(-4.17 -28.91)"/><path class="cls-11" d="M385.23,542.12a21,21,0,1,1-29.66,0A21,21,0,0,1,385.23,542.12Z" transform="translate(-4.17 -28.91)"/><g class="cls-12"><path class="cls-13" d="M455,299.14C466.87,385.45,406.1,464,319.25,474.54s-166.87-50.84-178.73-137C128.63,251.11,189.39,172.58,276.26,162S443.13,212.8,455,299.14Z" transform="translate(-4.17 -28.91)"/></g><circle class="cls-14" cx="293.96" cy="289.16" r="190.58"/><circle class="cls-15" cx="294.5" cy="289.39" r="168.87"/></g></g></svg>