<svg xmlns="http://www.w3.org/2000/svg" xmlns:xlink="http://www.w3.org/1999/xlink" viewBox="0 0 698.04 697.42"><defs><style>.cls-1,.cls-17{fill:none;}.cls-2{fill:#287e7f;}.cls-3{isolation:isolate;}.cls-4{fill:#42b4bc;}.cls-5{fill:#ce5ba6;}.cls-6{clip-path:url(#clip-path);}.cls-7{clip-path:url(#clip-path-2);}.cls-8{fill:#313a3f;}.cls-9{fill:#8e3f72;}.cls-10{fill:#421d35;}.cls-11{fill:#4f233f;}.cls-12{fill:#153b3c;}.cls-13{mix-blend-mode:multiply;}.cls-14{fill:#726658;}.cls-15{fill:#2b2b2b;}.cls-16,.cls-18{fill:#fff;}.cls-17{stroke:#fff;stroke-miterlimit:10;stroke-width:7px;}.cls-18{font-size:34.81px;font-family:Megrim, Megrim;}.cls-19{letter-spacing:-0.05em;}</style><clipPath id="clip-path" transform="translate(5.35 64.11)"><path class="cls-1" d="M476.33,260.85c-7.9,7.32-14.84,5.89-18.21,4.38-4.27-1.93-5.43-3.23-8.34-5.94l-.2-.21a20.17,20.17,0,0,0-28.53,0l-25,25a20.18,20.18,0,0,1-28.53-28.54l82-82a20.18,20.18,0,0,0,1-27.48h.08c-3.57-4-4.95-4.79-7.13-9.64C442,133,440.56,126,447.88,118.14l30.24-30.26a20.18,20.18,0,1,0-28.54-28.54L429.9,79c-7.9,7.32-14.85,5.9-18.22,4.38a22.37,22.37,0,0,1-7.4-5.06c-.34-.4-.69-.79-1.07-1.16a20.17,20.17,0,0,0-28.53,0L110.74,341.12a20.17,20.17,0,1,0,28.53,28.53l23.2-23.2A20.18,20.18,0,0,1,191,375l-48.16,48.16a20.17,20.17,0,0,0,28.53,28.53l42.8-42.8a20.18,20.18,0,1,1,28.54,28.54l-99.87,99.87a20.17,20.17,0,1,0,28.53,28.53l82-82a20.17,20.17,0,0,1,28.53,28.53l3.17-3.17a20.18,20.18,0,0,0,28.54,28.53l5.76-5.76a20.18,20.18,0,0,1,28.53,28.54l1.77-1.77a20.18,20.18,0,0,0,28.54,28.53L642.19,323.28a20.18,20.18,0,1,0-28.54-28.53l-7.13,7.13A20.17,20.17,0,0,1,578,273.35l46.76-46.77a20.17,20.17,0,1,0-28.53-28.53l-2.29,2.29c-7,5.36-13.12,4.06-16.2,2.67-4.08-1.84-5.32-3.12-8-5.6-.22-.25-.45-.5-.69-.74a20.19,20.19,0,0,0-28.54,0Z"/></clipPath><clipPath id="clip-path-2" transform="translate(5.35 64.11)"><rect class="cls-2" x="-33.03" y="170.36" width="694.38" height="209.32" transform="translate(-102.46 302.7) rotate(-45)"/></clipPath></defs><title>logo_movie_night</title><g class="cls-3"><g id="Calque_1" data-name="Calque 1"><path class="cls-4" d="M667.62,225.67c-1.71,1.71-4.09,1-6.4.24-2.14-.67-4.17-1.31-5.5,0s-.7,3.36,0,5.51c.72,2.3,1.47,4.68-.24,6.39s-4.09,1-6.4.24c-2.14-.68-4.17-1.31-5.5,0s-.7,3.36,0,5.5c.72,2.31,1.47,4.69-.24,6.4s-4.09,1-6.39.24c-2.15-.68-4.18-1.31-5.51,0s-.69,3.35,0,5.5c.72,2.31,1.47,4.69-.23,6.4s-4.1,1-6.4.23-4.18-1.31-5.51,0-.69,3.36,0,5.51,1.48,4.69-.23,6.39-4.09,1-6.4.24c-2.14-.67-4.17-1.31-5.5,0s-.7,3.36,0,5.51c.72,2.3,1.47,4.68-.24,6.39s-4.09,1-6.39.24-4.18-1.32-5.51,0l-.62-.62c1.71-1.71,4.09-1,6.39-.24,2.15.68,4.18,1.32,5.51,0s.69-3.36,0-5.51c-.73-2.31-1.48-4.69.23-6.4s4.09-1,6.4-.23c2.15.67,4.17,1.31,5.5,0s.7-3.36,0-5.51c-.72-2.3-1.47-4.68.24-6.39s4.09-1,6.39-.24,4.18,1.31,5.51,0,.69-3.35,0-5.5c-.72-2.31-1.47-4.69.23-6.4s4.1-1,6.4-.24,4.18,1.32,5.51,0,.69-3.36,0-5.51c-.73-2.3-1.48-4.69.23-6.4s4.09-1,6.4-.23c2.15.67,4.18,1.31,5.51,0s.69-3.36,0-5.51-1.47-4.69.24-6.4,4.09-1,6.4-.23c2.15.67,4.17,1.31,5.51,0s.69-3.36,0-5.51-1.47-4.69.24-6.4l.63.63c-1.33,1.33-.7,3.36,0,5.51C668.58,221.58,669.33,224,667.62,225.67Z" transform="translate(5.35 64.11)"/><path class="cls-5" d="M190.77,574.72c1.71-1.71,4.09-1,6.39-.24s4.18,1.31,5.51,0,.69-3.36,0-5.5c-.73-2.31-1.47-4.69.24-6.4s4.09-1,6.39-.24,4.18,1.32,5.51,0,.69-3.36,0-5.51c-.73-2.31-1.47-4.69.23-6.4s4.1-1,6.4-.23,4.18,1.31,5.51,0,.69-3.36,0-5.51-1.48-4.69.23-6.4,4.09-1,6.4-.23c2.14.67,4.17,1.31,5.5,0s.7-3.36,0-5.51c-.72-2.3-1.47-4.68.24-6.39s4.09-1,6.39-.24,4.18,1.32,5.51,0,.69-3.35,0-5.5c-.73-2.31-1.48-4.69.23-6.4s4.09-1,6.4-.23c2.15.67,4.18,1.31,5.51,0l.62.62c-1.71,1.71-4.09,1-6.4.24-2.14-.68-4.17-1.31-5.5,0s-.69,3.36,0,5.5c.72,2.31,1.47,4.69-.24,6.4s-4.09,1-6.39.23c-2.15-.67-4.18-1.31-5.51,0s-.69,3.36,0,5.51,1.47,4.69-.24,6.4-4.09,1-6.4.23c-2.15-.67-4.17-1.31-5.5,0s-.7,3.36,0,5.5c.72,2.31,1.47,4.69-.24,6.4s-4.09,1-6.39.24c-2.15-.68-4.18-1.31-5.51,0s-.69,3.36,0,5.5c.73,2.31,1.47,4.69-.24,6.4s-4.09,1-6.39.24c-2.15-.68-4.18-1.32-5.51,0s-.69,3.36,0,5.51c.73,2.31,1.47,4.69-.23,6.4s-4.1,1-6.4.24-4.18-1.32-5.51,0-.69,3.36,0,5.51c.73,2.31,1.48,4.69-.24,6.4l-.62-.63c1.33-1.33.69-3.36,0-5.5C189.81,578.81,189.06,576.43,190.77,574.72Z" transform="translate(5.35 64.11)"/><g class="cls-6"><rect class="cls-2" x="-33.03" y="170.36" width="694.38" height="209.32" transform="translate(-97.11 366.81) rotate(-45)"/><g class="cls-7"><polygon class="cls-8" points="106.79 686.41 99.97 686.43 101.35 0.83 108.16 0.82 106.79 686.41"/><polygon class="cls-8" points="121.45 686.38 114.64 686.4 116.02 0.81 122.83 0.79 121.45 686.38"/><polygon class="cls-8" points="136.12 686.35 129.31 686.37 130.68 0.78 137.5 0.76 136.12 686.35"/><polygon class="cls-8" points="150.79 686.32 143.98 686.34 145.35 0.75 152.17 0.73 150.79 686.32"/><polygon class="cls-8" points="165.46 686.3 158.65 686.31 160.02 0.72 166.84 0.7 165.46 686.3"/><polygon class="cls-8" points="180.13 686.27 173.31 686.28 174.69 0.69 181.5 0.68 180.13 686.27"/><polygon class="cls-8" points="194.8 686.24 187.98 686.25 189.36 0.66 196.17 0.65 194.8 686.24"/><polygon class="cls-8" points="209.47 686.21 202.65 686.22 204.03 0.63 210.84 0.62 209.47 686.21"/><polygon class="cls-8" points="224.13 686.18 217.32 686.19 218.69 0.6 225.51 0.59 224.13 686.18"/><polygon class="cls-8" points="238.8 686.15 231.99 686.16 233.36 0.57 240.18 0.56 238.8 686.15"/><polygon class="cls-8" points="253.47 686.12 246.66 686.13 248.03 0.54 254.84 0.53 253.47 686.12"/><polygon class="cls-8" points="268.14 686.09 261.32 686.1 262.7 0.51 269.51 0.5 268.14 686.09"/><polygon class="cls-8" points="282.81 686.06 275.99 686.07 277.37 0.48 284.18 0.47 282.81 686.06"/><polygon class="cls-8" points="297.48 686.03 290.66 686.04 292.04 0.45 298.85 0.44 297.48 686.03"/><polygon class="cls-8" points="312.14 686 305.33 686.01 306.7 0.42 313.52 0.41 312.14 686"/><polygon class="cls-8" points="326.81 685.97 320 685.99 321.37 0.4 328.19 0.38 326.81 685.97"/><polygon class="cls-8" points="341.48 685.94 334.67 685.96 336.04 0.37 342.86 0.35 341.48 685.94"/><polygon class="cls-8" points="356.15 685.91 349.33 685.93 350.71 0.34 357.52 0.32 356.15 685.91"/><polygon class="cls-8" points="370.82 685.88 364 685.9 365.38 0.31 372.19 0.29 370.82 685.88"/><polygon class="cls-8" points="385.49 685.85 378.67 685.87 380.04 0.28 386.86 0.27 385.49 685.85"/><polygon class="cls-8" points="400.15 685.83 393.34 685.84 394.71 0.25 401.53 0.23 400.15 685.83"/><polygon class="cls-8" points="414.82 685.79 408.01 685.81 409.38 0.22 416.2 0.2 414.82 685.79"/><polygon class="cls-8" points="429.49 685.77 422.68 685.78 424.05 0.19 430.87 0.18 429.49 685.77"/><polygon class="cls-8" points="444.16 685.74 437.35 685.75 438.72 0.16 445.53 0.15 444.16 685.74"/><polygon class="cls-8" points="458.83 685.71 452.01 685.72 453.39 0.13 460.2 0.12 458.83 685.71"/><polygon class="cls-8" points="473.5 685.68 466.68 685.69 468.06 0.1 474.87 0.09 473.5 685.68"/><polygon class="cls-8" points="488.17 685.65 481.35 685.66 482.73 0.07 489.54 0.06 488.17 685.65"/><polygon class="cls-8" points="502.83 685.62 496.02 685.63 497.39 0.04 504.21 0.03 502.83 685.62"/><polygon class="cls-8" points="517.5 685.59 510.69 685.6 512.06 0.01 518.88 0 517.5 685.59"/></g><rect class="cls-5" x="232.57" y="384.67" width="501.61" height="83.51" transform="translate(-154.61 530.81) rotate(-45)"/><path class="cls-9" d="M660.55,304.3a3.75,3.75,0,1,1,5.3,0A3.76,3.76,0,0,1,660.55,304.3Z" transform="translate(5.35 64.11)"/><path class="cls-9" d="M653.47,311.37a3.75,3.75,0,1,1,5.31,0A3.75,3.75,0,0,1,653.47,311.37Z" transform="translate(5.35 64.11)"/><path class="cls-9" d="M646.4,318.44a3.75,3.75,0,1,1,5.3,0A3.75,3.75,0,0,1,646.4,318.44Z" transform="translate(5.35 64.11)"/><path class="cls-9" d="M639.33,325.51a3.75,3.75,0,1,1,5.3,0A3.75,3.75,0,0,1,639.33,325.51Z" transform="translate(5.35 64.11)"/><path class="cls-9" d="M632.26,332.59a3.75,3.75,0,1,1,5.3,0A3.75,3.75,0,0,1,632.26,332.59Z" transform="translate(5.35 64.11)"/><path class="cls-9" d="M625.19,339.66a3.75,3.75,0,1,1,5.3,0A3.75,3.75,0,0,1,625.19,339.66Z" transform="translate(5.35 64.11)"/><path class="cls-9" d="M618.12,346.73a3.75,3.75,0,1,1,5.3,0A3.75,3.75,0,0,1,618.12,346.73Z" transform="translate(5.35 64.11)"/><path class="cls-9" d="M611,353.8a3.75,3.75,0,1,1,5.31,0A3.75,3.75,0,0,1,611,353.8Z" transform="translate(5.35 64.11)"/><path class="cls-9" d="M604,360.87a3.75,3.75,0,1,1,5.31,0A3.75,3.75,0,0,1,604,360.87Z" transform="translate(5.35 64.11)"/><path class="cls-9" d="M596.9,367.94a3.75,3.75,0,1,1,5.3,0A3.75,3.75,0,0,1,596.9,367.94Z" transform="translate(5.35 64.11)"/><path class="cls-9" d="M589.83,375a3.75,3.75,0,1,1,5.3,0A3.74,3.74,0,0,1,589.83,375Z" transform="translate(5.35 64.11)"/><path class="cls-9" d="M582.76,382.09a3.75,3.75,0,1,1,5.3,0A3.75,3.75,0,0,1,582.76,382.09Z" transform="translate(5.35 64.11)"/><path class="cls-9" d="M575.69,389.16a3.75,3.75,0,1,1,5.3,0A3.76,3.76,0,0,1,575.69,389.16Z" transform="translate(5.35 64.11)"/><path class="cls-9" d="M568.61,396.23a3.75,3.75,0,1,1,5.31,0A3.75,3.75,0,0,1,568.61,396.23Z" transform="translate(5.35 64.11)"/><path class="cls-9" d="M561.54,403.3a3.75,3.75,0,1,1,5.31,0A3.75,3.75,0,0,1,561.54,403.3Z" transform="translate(5.35 64.11)"/><path class="cls-9" d="M554.47,410.37a3.75,3.75,0,1,1,5.31,0A3.75,3.75,0,0,1,554.47,410.37Z" transform="translate(5.35 64.11)"/><path class="cls-9" d="M547.4,417.44a3.75,3.75,0,1,1,5.3,0A3.74,3.74,0,0,1,547.4,417.44Z" transform="translate(5.35 64.11)"/><path class="cls-9" d="M540.33,424.52a3.75,3.75,0,1,1,5.3,0A3.75,3.75,0,0,1,540.33,424.52Z" transform="translate(5.35 64.11)"/><path class="cls-9" d="M533.26,431.59a3.75,3.75,0,1,1,5.3,0A3.74,3.74,0,0,1,533.26,431.59Z" transform="translate(5.35 64.11)"/><path class="cls-9" d="M526.18,438.66a3.75,3.75,0,1,1,5.31,0A3.75,3.75,0,0,1,526.18,438.66Z" transform="translate(5.35 64.11)"/><path class="cls-9" d="M519.11,445.73a3.75,3.75,0,1,1,5.31,0A3.75,3.75,0,0,1,519.11,445.73Z" transform="translate(5.35 64.11)"/><path class="cls-9" d="M512,452.8a3.75,3.75,0,1,1,5.3,0A3.74,3.74,0,0,1,512,452.8Z" transform="translate(5.35 64.11)"/><path class="cls-9" d="M505,459.87a3.75,3.75,0,1,1,5.3,0A3.75,3.75,0,0,1,505,459.87Z" transform="translate(5.35 64.11)"/><path class="cls-9" d="M497.9,467a3.75,3.75,0,1,1,5.3,0A3.75,3.75,0,0,1,497.9,467Z" transform="translate(5.35 64.11)"/><path class="cls-9" d="M490.83,474a3.75,3.75,0,1,1,5.3,0A3.75,3.75,0,0,1,490.83,474Z" transform="translate(5.35 64.11)"/><path class="cls-9" d="M483.75,481.09a3.75,3.75,0,1,1,5.31,0A3.75,3.75,0,0,1,483.75,481.09Z" transform="translate(5.35 64.11)"/><path class="cls-9" d="M476.68,488.16a3.75,3.75,0,1,1,5.3,0A3.77,3.77,0,0,1,476.68,488.16Z" transform="translate(5.35 64.11)"/><path class="cls-9" d="M469.61,495.23a3.75,3.75,0,1,1,5.3,0A3.75,3.75,0,0,1,469.61,495.23Z" transform="translate(5.35 64.11)"/><path class="cls-9" d="M462.54,502.3a3.75,3.75,0,1,1,5.3,0A3.74,3.74,0,0,1,462.54,502.3Z" transform="translate(5.35 64.11)"/><path class="cls-9" d="M455.47,509.38a3.75,3.75,0,1,1,5.3,0A3.75,3.75,0,0,1,455.47,509.38Z" transform="translate(5.35 64.11)"/><path class="cls-9" d="M448.4,516.45a3.75,3.75,0,1,1,5.3,0A3.75,3.75,0,0,1,448.4,516.45Z" transform="translate(5.35 64.11)"/><path class="cls-9" d="M441.32,523.52a3.75,3.75,0,1,1,5.31,0A3.76,3.76,0,0,1,441.32,523.52Z" transform="translate(5.35 64.11)"/><path class="cls-9" d="M434.25,530.59a3.75,3.75,0,1,1,5.3,0A3.75,3.75,0,0,1,434.25,530.59Z" transform="translate(5.35 64.11)"/><path class="cls-9" d="M427.18,537.66a3.75,3.75,0,1,1,5.3,0A3.75,3.75,0,0,1,427.18,537.66Z" transform="translate(5.35 64.11)"/><path class="cls-9" d="M420.11,544.73a3.75,3.75,0,1,1,5.3,0A3.75,3.75,0,0,1,420.11,544.73Z" transform="translate(5.35 64.11)"/><path class="cls-9" d="M413,551.8a3.75,3.75,0,1,1,5.3,0A3.74,3.74,0,0,1,413,551.8Z" transform="translate(5.35 64.11)"/><path class="cls-9" d="M406,558.88a3.75,3.75,0,1,1,5.3,0A3.75,3.75,0,0,1,406,558.88Z" transform="translate(5.35 64.11)"/><path class="cls-9" d="M398.89,566a3.75,3.75,0,1,1,5.31,0A3.75,3.75,0,0,1,398.89,566Z" transform="translate(5.35 64.11)"/><path class="cls-9" d="M391.82,573a3.75,3.75,0,1,1,5.31,0A3.77,3.77,0,0,1,391.82,573Z" transform="translate(5.35 64.11)"/><path class="cls-9" d="M384.75,580.09a3.75,3.75,0,1,1,5.3,0A3.75,3.75,0,0,1,384.75,580.09Z" transform="translate(5.35 64.11)"/><path class="cls-9" d="M377.68,587.16a3.75,3.75,0,1,1,5.3,0A3.75,3.75,0,0,1,377.68,587.16Z" transform="translate(5.35 64.11)"/><path class="cls-9" d="M370.61,594.24a3.75,3.75,0,1,1,5.3,0A3.75,3.75,0,0,1,370.61,594.24Z" transform="translate(5.35 64.11)"/><path class="cls-9" d="M363.54,601.31a3.75,3.75,0,1,1,5.3,0A3.75,3.75,0,0,1,363.54,601.31Z" transform="translate(5.35 64.11)"/><path class="cls-9" d="M356.47,608.38a3.75,3.75,0,1,1,5.3,0A3.74,3.74,0,0,1,356.47,608.38Z" transform="translate(5.35 64.11)"/><path class="cls-9" d="M653.47,297.23a3.75,3.75,0,1,1,5.31,0A3.77,3.77,0,0,1,653.47,297.23Z" transform="translate(5.35 64.11)"/><path class="cls-9" d="M646.4,304.3a3.75,3.75,0,1,1,5.31,0A3.77,3.77,0,0,1,646.4,304.3Z" transform="translate(5.35 64.11)"/><path class="cls-9" d="M639.33,311.37a3.75,3.75,0,1,1,5.3,0A3.75,3.75,0,0,1,639.33,311.37Z" transform="translate(5.35 64.11)"/><path class="cls-9" d="M632.26,318.44a3.75,3.75,0,1,1,5.3,0A3.74,3.74,0,0,1,632.26,318.44Z" transform="translate(5.35 64.11)"/><path class="cls-9" d="M625.19,325.51a3.75,3.75,0,1,1,5.3,0A3.74,3.74,0,0,1,625.19,325.51Z" transform="translate(5.35 64.11)"/><path class="cls-9" d="M618.11,332.58a3.75,3.75,0,1,1,5.31,0A3.75,3.75,0,0,1,618.11,332.58Z" transform="translate(5.35 64.11)"/><path class="cls-9" d="M611,339.66a3.75,3.75,0,1,1,5.31,0A3.77,3.77,0,0,1,611,339.66Z" transform="translate(5.35 64.11)"/><path class="cls-9" d="M604,346.73a3.75,3.75,0,1,1,5.31,0A3.77,3.77,0,0,1,604,346.73Z" transform="translate(5.35 64.11)"/><path class="cls-9" d="M596.9,353.8a3.75,3.75,0,1,1,5.3,0A3.76,3.76,0,0,1,596.9,353.8Z" transform="translate(5.35 64.11)"/><path class="cls-9" d="M589.83,360.87a3.75,3.75,0,1,1,5.3,0A3.74,3.74,0,0,1,589.83,360.87Z" transform="translate(5.35 64.11)"/><path class="cls-9" d="M582.76,367.94a3.75,3.75,0,1,1,5.3,0A3.74,3.74,0,0,1,582.76,367.94Z" transform="translate(5.35 64.11)"/><path class="cls-9" d="M575.68,375a3.75,3.75,0,1,1,5.31,0A3.77,3.77,0,0,1,575.68,375Z" transform="translate(5.35 64.11)"/><path class="cls-9" d="M568.61,382.09a3.75,3.75,0,1,1,5.31,0A3.77,3.77,0,0,1,568.61,382.09Z" transform="translate(5.35 64.11)"/><path class="cls-9" d="M561.54,389.16a3.75,3.75,0,1,1,5.31,0A3.77,3.77,0,0,1,561.54,389.16Z" transform="translate(5.35 64.11)"/><path class="cls-9" d="M554.47,396.23a3.75,3.75,0,1,1,5.3,0A3.75,3.75,0,0,1,554.47,396.23Z" transform="translate(5.35 64.11)"/><path class="cls-9" d="M547.4,403.3a3.75,3.75,0,1,1,5.3,0A3.75,3.75,0,0,1,547.4,403.3Z" transform="translate(5.35 64.11)"/><path class="cls-9" d="M540.33,410.37a3.75,3.75,0,1,1,5.3,0A3.74,3.74,0,0,1,540.33,410.37Z" transform="translate(5.35 64.11)"/><path class="cls-9" d="M533.25,417.44a3.75,3.75,0,1,1,5.31,0A3.75,3.75,0,0,1,533.25,417.44Z" transform="translate(5.35 64.11)"/><path class="cls-9" d="M526.18,424.52a3.75,3.75,0,1,1,5.31,0A3.77,3.77,0,0,1,526.18,424.52Z" transform="translate(5.35 64.11)"/><path class="cls-9" d="M519.11,431.59a3.75,3.75,0,1,1,5.31,0A3.77,3.77,0,0,1,519.11,431.59Z" transform="translate(5.35 64.11)"/><path class="cls-9" d="M512,438.66a3.75,3.75,0,1,1,5.31,0A3.76,3.76,0,0,1,512,438.66Z" transform="translate(5.35 64.11)"/><path class="cls-9" d="M505,445.73a3.75,3.75,0,1,1,5.3,0A3.75,3.75,0,0,1,505,445.73Z" transform="translate(5.35 64.11)"/><path class="cls-9" d="M497.9,452.8a3.75,3.75,0,1,1,5.3,0A3.74,3.74,0,0,1,497.9,452.8Z" transform="translate(5.35 64.11)"/><path class="cls-9" d="M490.83,459.87a3.75,3.75,0,1,1,5.3,0A3.75,3.75,0,0,1,490.83,459.87Z" transform="translate(5.35 64.11)"/><path class="cls-9" d="M483.75,467a3.75,3.75,0,1,1,5.31,0A3.77,3.77,0,0,1,483.75,467Z" transform="translate(5.35 64.11)"/><path class="cls-9" d="M476.68,474a3.75,3.75,0,1,1,5.31,0A3.77,3.77,0,0,1,476.68,474Z" transform="translate(5.35 64.11)"/><path class="cls-9" d="M469.61,481.09a3.75,3.75,0,1,1,5.3,0A3.75,3.75,0,0,1,469.61,481.09Z" transform="translate(5.35 64.11)"/><path class="cls-9" d="M462.54,488.16a3.75,3.75,0,1,1,5.3,0A3.75,3.75,0,0,1,462.54,488.16Z" transform="translate(5.35 64.11)"/><path class="cls-9" d="M455.47,495.23a3.75,3.75,0,1,1,5.3,0A3.74,3.74,0,0,1,455.47,495.23Z" transform="translate(5.35 64.11)"/><path class="cls-9" d="M448.4,502.3a3.75,3.75,0,1,1,5.3,0A3.75,3.75,0,0,1,448.4,502.3Z" transform="translate(5.35 64.11)"/><path class="cls-9" d="M441.32,509.38a3.75,3.75,0,1,1,5.31,0A3.77,3.77,0,0,1,441.32,509.38Z" transform="translate(5.35 64.11)"/><path class="cls-9" d="M434.25,516.45a3.75,3.75,0,1,1,5.3,0A3.77,3.77,0,0,1,434.25,516.45Z" transform="translate(5.35 64.11)"/><path class="cls-9" d="M427.18,523.52a3.75,3.75,0,1,1,5.3,0A3.75,3.75,0,0,1,427.18,523.52Z" transform="translate(5.35 64.11)"/><path class="cls-9" d="M420.11,530.59a3.75,3.75,0,1,1,5.3,0A3.75,3.75,0,0,1,420.11,530.59Z" transform="translate(5.35 64.11)"/><path class="cls-9" d="M413,537.66a3.75,3.75,0,1,1,5.3,0A3.74,3.74,0,0,1,413,537.66Z" transform="translate(5.35 64.11)"/><path class="cls-9" d="M406,544.73a3.75,3.75,0,1,1,5.3,0A3.74,3.74,0,0,1,406,544.73Z" transform="translate(5.35 64.11)"/><path class="cls-9" d="M398.89,551.8a3.75,3.75,0,1,1,5.31,0A3.75,3.75,0,0,1,398.89,551.8Z" transform="translate(5.35 64.11)"/><path class="cls-9" d="M391.82,558.88a3.75,3.75,0,1,1,5.3,0A3.77,3.77,0,0,1,391.82,558.88Z" transform="translate(5.35 64.11)"/><path class="cls-9" d="M384.75,566a3.75,3.75,0,1,1,5.3,0A3.77,3.77,0,0,1,384.75,566Z" transform="translate(5.35 64.11)"/><path class="cls-9" d="M377.68,573a3.75,3.75,0,1,1,5.3,0A3.75,3.75,0,0,1,377.68,573Z" transform="translate(5.35 64.11)"/><path class="cls-9" d="M370.61,580.09a3.75,3.75,0,1,1,5.3,0A3.75,3.75,0,0,1,370.61,580.09Z" transform="translate(5.35 64.11)"/><path class="cls-9" d="M363.53,587.16a3.75,3.75,0,1,1,5.31,0A3.75,3.75,0,0,1,363.53,587.16Z" transform="translate(5.35 64.11)"/><path class="cls-9" d="M356.47,594.24a3.75,3.75,0,1,1,5.3,0A3.75,3.75,0,0,1,356.47,594.24Z" transform="translate(5.35 64.11)"/><path class="cls-9" d="M349.39,601.31a3.75,3.75,0,1,1,5.31,0A3.77,3.77,0,0,1,349.39,601.31Z" transform="translate(5.35 64.11)"/><path class="cls-9" d="M646.4,290.15a3.75,3.75,0,1,1,5.3,0A3.75,3.75,0,0,1,646.4,290.15Z" transform="translate(5.35 64.11)"/><path class="cls-9" d="M639.33,297.23a3.75,3.75,0,1,1,5.31,0A3.77,3.77,0,0,1,639.33,297.23Z" transform="translate(5.35 64.11)"/><path class="cls-9" d="M632.26,304.3a3.75,3.75,0,1,1,5.3,0A3.74,3.74,0,0,1,632.26,304.3Z" transform="translate(5.35 64.11)"/><path class="cls-9" d="M625.19,311.37a3.75,3.75,0,1,1,5.3,0A3.74,3.74,0,0,1,625.19,311.37Z" transform="translate(5.35 64.11)"/><path class="cls-9" d="M618.12,318.44a3.75,3.75,0,1,1,5.3,0A3.74,3.74,0,0,1,618.12,318.44Z" transform="translate(5.35 64.11)"/><path class="cls-9" d="M611,325.51a3.75,3.75,0,1,1,5.31,0A3.75,3.75,0,0,1,611,325.51Z" transform="translate(5.35 64.11)"/><path class="cls-9" d="M604,332.59a3.75,3.75,0,1,1,5.31,0A3.77,3.77,0,0,1,604,332.59Z" transform="translate(5.35 64.11)"/><path class="cls-9" d="M596.9,339.66a3.75,3.75,0,1,1,5.3,0A3.76,3.76,0,0,1,596.9,339.66Z" transform="translate(5.35 64.11)"/><path class="cls-9" d="M589.83,346.73a3.75,3.75,0,1,1,5.3,0A3.77,3.77,0,0,1,589.83,346.73Z" transform="translate(5.35 64.11)"/><path class="cls-9" d="M582.76,353.8a3.75,3.75,0,1,1,5.3,0A3.74,3.74,0,0,1,582.76,353.8Z" transform="translate(5.35 64.11)"/><path class="cls-9" d="M575.69,360.87a3.75,3.75,0,1,1,5.3,0A3.74,3.74,0,0,1,575.69,360.87Z" transform="translate(5.35 64.11)"/><path class="cls-9" d="M568.61,367.94a3.75,3.75,0,1,1,5.31,0A3.75,3.75,0,0,1,568.61,367.94Z" transform="translate(5.35 64.11)"/><path class="cls-9" d="M561.54,375a3.75,3.75,0,1,1,5.31,0A3.77,3.77,0,0,1,561.54,375Z" transform="translate(5.35 64.11)"/><path class="cls-9" d="M554.47,382.09a3.75,3.75,0,1,1,5.3,0A3.77,3.77,0,0,1,554.47,382.09Z" transform="translate(5.35 64.11)"/><path class="cls-9" d="M547.4,389.16a3.75,3.75,0,1,1,5.3,0A3.75,3.75,0,0,1,547.4,389.16Z" transform="translate(5.35 64.11)"/><path class="cls-9" d="M540.33,396.23a3.75,3.75,0,1,1,5.3,0A3.74,3.74,0,0,1,540.33,396.23Z" transform="translate(5.35 64.11)"/><path class="cls-9" d="M533.26,403.3a3.75,3.75,0,1,1,5.3,0A3.74,3.74,0,0,1,533.26,403.3Z" transform="translate(5.35 64.11)"/><path class="cls-9" d="M526.18,410.37a3.75,3.75,0,1,1,5.31,0A3.75,3.75,0,0,1,526.18,410.37Z" transform="translate(5.35 64.11)"/><path class="cls-9" d="M519.11,417.44a3.75,3.75,0,1,1,5.31,0A3.75,3.75,0,0,1,519.11,417.44Z" transform="translate(5.35 64.11)"/><path class="cls-9" d="M512,424.52a3.75,3.75,0,1,1,5.3,0A3.76,3.76,0,0,1,512,424.52Z" transform="translate(5.35 64.11)"/><path class="cls-9" d="M505,431.59a3.75,3.75,0,1,1,5.3,0A3.74,3.74,0,0,1,505,431.59Z" transform="translate(5.35 64.11)"/><path class="cls-9" d="M497.9,438.66a3.75,3.75,0,1,1,5.3,0A3.74,3.74,0,0,1,497.9,438.66Z" transform="translate(5.35 64.11)"/><path class="cls-9" d="M490.83,445.73a3.75,3.75,0,1,1,5.3,0A3.74,3.74,0,0,1,490.83,445.73Z" transform="translate(5.35 64.11)"/><path class="cls-9" d="M483.75,452.8a3.75,3.75,0,1,1,5.31,0A3.75,3.75,0,0,1,483.75,452.8Z" transform="translate(5.35 64.11)"/><path class="cls-9" d="M476.68,459.87a3.75,3.75,0,1,1,5.31,0A3.75,3.75,0,0,1,476.68,459.87Z" transform="translate(5.35 64.11)"/><path class="cls-9" d="M469.61,467a3.75,3.75,0,1,1,5.3,0A3.77,3.77,0,0,1,469.61,467Z" transform="translate(5.35 64.11)"/><path class="cls-9" d="M462.54,474a3.75,3.75,0,1,1,5.3,0A3.76,3.76,0,0,1,462.54,474Z" transform="translate(5.35 64.11)"/><path class="cls-9" d="M455.47,481.09a3.75,3.75,0,1,1,5.3,0A3.74,3.74,0,0,1,455.47,481.09Z" transform="translate(5.35 64.11)"/><path class="cls-9" d="M448.4,488.16a3.75,3.75,0,1,1,5.3,0A3.74,3.74,0,0,1,448.4,488.16Z" transform="translate(5.35 64.11)"/><path class="cls-9" d="M441.32,495.23a3.75,3.75,0,1,1,5.31,0A3.75,3.75,0,0,1,441.32,495.23Z" transform="translate(5.35 64.11)"/><path class="cls-9" d="M434.25,502.3a3.75,3.75,0,1,1,5.31,0A3.75,3.75,0,0,1,434.25,502.3Z" transform="translate(5.35 64.11)"/><path class="cls-9" d="M427.18,509.38a3.75,3.75,0,1,1,5.3,0A3.77,3.77,0,0,1,427.18,509.38Z" transform="translate(5.35 64.11)"/><path class="cls-9" d="M420.11,516.45a3.75,3.75,0,1,1,5.3,0A3.77,3.77,0,0,1,420.11,516.45Z" transform="translate(5.35 64.11)"/><path class="cls-9" d="M413,523.52a3.75,3.75,0,1,1,5.3,0A3.74,3.74,0,0,1,413,523.52Z" transform="translate(5.35 64.11)"/><path class="cls-9" d="M406,530.59a3.75,3.75,0,1,1,5.3,0A3.74,3.74,0,0,1,406,530.59Z" transform="translate(5.35 64.11)"/><path class="cls-9" d="M398.89,537.66a3.75,3.75,0,1,1,5.31,0A3.75,3.75,0,0,1,398.89,537.66Z" transform="translate(5.35 64.11)"/><path class="cls-9" d="M391.82,544.73a3.75,3.75,0,1,1,5.31,0A3.75,3.75,0,0,1,391.82,544.73Z" transform="translate(5.35 64.11)"/><path class="cls-9" d="M384.75,551.8a3.75,3.75,0,1,1,5.3,0A3.75,3.75,0,0,1,384.75,551.8Z" transform="translate(5.35 64.11)"/><path class="cls-9" d="M377.68,558.88a3.75,3.75,0,1,1,5.3,0A3.77,3.77,0,0,1,377.68,558.88Z" transform="translate(5.35 64.11)"/><path class="cls-9" d="M370.61,566a3.75,3.75,0,1,1,5.3,0A3.74,3.74,0,0,1,370.61,566Z" transform="translate(5.35 64.11)"/><path class="cls-9" d="M363.54,573a3.75,3.75,0,1,1,5.3,0A3.74,3.74,0,0,1,363.54,573Z" transform="translate(5.35 64.11)"/><path class="cls-9" d="M356.47,580.09a3.75,3.75,0,1,1,5.3,0A3.74,3.74,0,0,1,356.47,580.09Z" transform="translate(5.35 64.11)"/><path class="cls-9" d="M349.39,587.16a3.75,3.75,0,1,1,5.31,0A3.75,3.75,0,0,1,349.39,587.16Z" transform="translate(5.35 64.11)"/><path class="cls-9" d="M342.32,594.24a3.75,3.75,0,1,1,5.3,0A3.77,3.77,0,0,1,342.32,594.24Z" transform="translate(5.35 64.11)"/><path class="cls-9" d="M639.33,283.08a3.75,3.75,0,1,1,5.3,0A3.75,3.75,0,0,1,639.33,283.08Z" transform="translate(5.35 64.11)"/><path class="cls-9" d="M632.26,290.16a3.75,3.75,0,1,1,5.3,0A3.75,3.75,0,0,1,632.26,290.16Z" transform="translate(5.35 64.11)"/><path class="cls-9" d="M625.19,297.23a3.75,3.75,0,1,1,5.3,0A3.75,3.75,0,0,1,625.19,297.23Z" transform="translate(5.35 64.11)"/><path class="cls-9" d="M618.11,304.3a3.75,3.75,0,1,1,5.31,0A3.76,3.76,0,0,1,618.11,304.3Z" transform="translate(5.35 64.11)"/><path class="cls-9" d="M611,311.37a3.75,3.75,0,1,1,5.31,0A3.75,3.75,0,0,1,611,311.37Z" transform="translate(5.35 64.11)"/><path class="cls-9" d="M604,318.44a3.75,3.75,0,1,1,5.31,0A3.75,3.75,0,0,1,604,318.44Z" transform="translate(5.35 64.11)"/><path class="cls-9" d="M596.9,325.51a3.75,3.75,0,1,1,5.3,0A3.75,3.75,0,0,1,596.9,325.51Z" transform="translate(5.35 64.11)"/><path class="cls-9" d="M589.83,332.59a3.75,3.75,0,1,1,5.3,0A3.76,3.76,0,0,1,589.83,332.59Z" transform="translate(5.35 64.11)"/><path class="cls-9" d="M582.76,339.66a3.75,3.75,0,1,1,5.3,0A3.75,3.75,0,0,1,582.76,339.66Z" transform="translate(5.35 64.11)"/><path class="cls-9" d="M575.69,346.73a3.75,3.75,0,1,1,5.3,0A3.76,3.76,0,0,1,575.69,346.73Z" transform="translate(5.35 64.11)"/><path class="cls-9" d="M568.61,353.8a3.75,3.75,0,1,1,5.31,0A3.75,3.75,0,0,1,568.61,353.8Z" transform="translate(5.35 64.11)"/><path class="cls-9" d="M561.54,360.87a3.75,3.75,0,1,1,5.31,0A3.75,3.75,0,0,1,561.54,360.87Z" transform="translate(5.35 64.11)"/><path class="cls-9" d="M554.47,367.94a3.75,3.75,0,1,1,5.31,0A3.75,3.75,0,0,1,554.47,367.94Z" transform="translate(5.35 64.11)"/><path class="cls-9" d="M547.4,375a3.75,3.75,0,1,1,5.3,0A3.75,3.75,0,0,1,547.4,375Z" transform="translate(5.35 64.11)"/><path class="cls-9" d="M540.33,382.09a3.75,3.75,0,1,1,5.3,0A3.75,3.75,0,0,1,540.33,382.09Z" transform="translate(5.35 64.11)"/><path class="cls-9" d="M533.26,389.16a3.75,3.75,0,1,1,5.3,0A3.75,3.75,0,0,1,533.26,389.16Z" transform="translate(5.35 64.11)"/><path class="cls-9" d="M526.18,396.23a3.75,3.75,0,1,1,5.31,0A3.75,3.75,0,0,1,526.18,396.23Z" transform="translate(5.35 64.11)"/><path class="cls-9" d="M519.11,403.3a3.75,3.75,0,1,1,5.31,0A3.75,3.75,0,0,1,519.11,403.3Z" transform="translate(5.35 64.11)"/><path class="cls-9" d="M512,410.37a3.75,3.75,0,1,1,5.3,0A3.75,3.75,0,0,1,512,410.37Z" transform="translate(5.35 64.11)"/><path class="cls-9" d="M505,417.44a3.75,3.75,0,1,1,5.3,0A3.75,3.75,0,0,1,505,417.44Z" transform="translate(5.35 64.11)"/><path class="cls-9" d="M497.9,424.52a3.75,3.75,0,1,1,5.3,0A3.75,3.75,0,0,1,497.9,424.52Z" transform="translate(5.35 64.11)"/><path class="cls-9" d="M490.83,431.59a3.75,3.75,0,1,1,5.3,0A3.75,3.75,0,0,1,490.83,431.59Z" transform="translate(5.35 64.11)"/><path class="cls-9" d="M483.75,438.66a3.75,3.75,0,1,1,5.31,0A3.77,3.77,0,0,1,483.75,438.66Z" transform="translate(5.35 64.11)"/><path class="cls-9" d="M476.68,445.73a3.75,3.75,0,1,1,5.31,0A3.75,3.75,0,0,1,476.68,445.73Z" transform="translate(5.35 64.11)"/><path class="cls-9" d="M469.61,452.8a3.75,3.75,0,1,1,5.3,0A3.75,3.75,0,0,1,469.61,452.8Z" transform="translate(5.35 64.11)"/><path class="cls-9" d="M462.54,459.88a3.75,3.75,0,1,1,5.3,0A3.77,3.77,0,0,1,462.54,459.88Z" transform="translate(5.35 64.11)"/><path class="cls-9" d="M455.47,467a3.75,3.75,0,1,1,5.3,0A3.75,3.75,0,0,1,455.47,467Z" transform="translate(5.35 64.11)"/><path class="cls-9" d="M448.4,474a3.75,3.75,0,1,1,5.3,0A3.75,3.75,0,0,1,448.4,474Z" transform="translate(5.35 64.11)"/><path class="cls-9" d="M441.32,481.09a3.75,3.75,0,1,1,5.31,0A3.75,3.75,0,0,1,441.32,481.09Z" transform="translate(5.35 64.11)"/><path class="cls-9" d="M434.25,488.16a3.75,3.75,0,1,1,5.31,0A3.75,3.75,0,0,1,434.25,488.16Z" transform="translate(5.35 64.11)"/><path class="cls-9" d="M427.18,495.23a3.75,3.75,0,1,1,5.3,0A3.75,3.75,0,0,1,427.18,495.23Z" transform="translate(5.35 64.11)"/><path class="cls-9" d="M420.11,502.3a3.75,3.75,0,1,1,5.3,0A3.75,3.75,0,0,1,420.11,502.3Z" transform="translate(5.35 64.11)"/><path class="cls-9" d="M413,509.38a3.75,3.75,0,1,1,5.3,0A3.75,3.75,0,0,1,413,509.38Z" transform="translate(5.35 64.11)"/><path class="cls-9" d="M406,516.45a3.75,3.75,0,1,1,5.3,0A3.75,3.75,0,0,1,406,516.45Z" transform="translate(5.35 64.11)"/><path class="cls-9" d="M398.9,523.52a3.75,3.75,0,1,1,5.3,0A3.76,3.76,0,0,1,398.9,523.52Z" transform="translate(5.35 64.11)"/><path class="cls-9" d="M391.82,530.59a3.75,3.75,0,1,1,5.31,0A3.75,3.75,0,0,1,391.82,530.59Z" transform="translate(5.35 64.11)"/><path class="cls-9" d="M384.75,537.66a3.75,3.75,0,1,1,5.3,0A3.75,3.75,0,0,1,384.75,537.66Z" transform="translate(5.35 64.11)"/><path class="cls-9" d="M377.68,544.73a3.75,3.75,0,1,1,5.3,0A3.75,3.75,0,0,1,377.68,544.73Z" transform="translate(5.35 64.11)"/><path class="cls-9" d="M370.61,551.8a3.75,3.75,0,1,1,5.3,0A3.74,3.74,0,0,1,370.61,551.8Z" transform="translate(5.35 64.11)"/><path class="cls-9" d="M363.54,558.88a3.75,3.75,0,1,1,5.3,0A3.75,3.75,0,0,1,363.54,558.88Z" transform="translate(5.35 64.11)"/><path class="cls-9" d="M356.47,566a3.75,3.75,0,1,1,5.3,0A3.75,3.75,0,0,1,356.47,566Z" transform="translate(5.35 64.11)"/><path class="cls-9" d="M349.39,573a3.75,3.75,0,1,1,5.31,0A3.75,3.75,0,0,1,349.39,573Z" transform="translate(5.35 64.11)"/><path class="cls-9" d="M342.32,580.09a3.75,3.75,0,1,1,5.3,0A3.75,3.75,0,0,1,342.32,580.09Z" transform="translate(5.35 64.11)"/><path class="cls-9" d="M335.25,587.16a3.75,3.75,0,1,1,5.3,0A3.75,3.75,0,0,1,335.25,587.16Z" transform="translate(5.35 64.11)"/><path class="cls-9" d="M632.26,276a3.75,3.75,0,1,1,5.3,0A3.74,3.74,0,0,1,632.26,276Z" transform="translate(5.35 64.11)"/><path class="cls-9" d="M625.19,283.08a3.75,3.75,0,1,1,5.3,0A3.74,3.74,0,0,1,625.19,283.08Z" transform="translate(5.35 64.11)"/><path class="cls-9" d="M618.12,290.16a3.75,3.75,0,1,1,5.3,0A3.75,3.75,0,0,1,618.12,290.16Z" transform="translate(5.35 64.11)"/><path class="cls-9" d="M611,297.23a3.75,3.75,0,1,1,5.31,0A3.77,3.77,0,0,1,611,297.23Z" transform="translate(5.35 64.11)"/><path class="cls-9" d="M604,304.3a3.75,3.75,0,1,1,5.31,0A3.77,3.77,0,0,1,604,304.3Z" transform="translate(5.35 64.11)"/><path class="cls-9" d="M596.9,311.37a3.75,3.75,0,1,1,5.3,0A3.75,3.75,0,0,1,596.9,311.37Z" transform="translate(5.35 64.11)"/><path class="cls-9" d="M589.83,318.44a3.75,3.75,0,1,1,5.3,0A3.75,3.75,0,0,1,589.83,318.44Z" transform="translate(5.35 64.11)"/><path class="cls-9" d="M582.76,325.51a3.75,3.75,0,1,1,5.3,0A3.74,3.74,0,0,1,582.76,325.51Z" transform="translate(5.35 64.11)"/><path class="cls-9" d="M575.69,332.59a3.75,3.75,0,1,1,5.3,0A3.76,3.76,0,0,1,575.69,332.59Z" transform="translate(5.35 64.11)"/><path class="cls-9" d="M568.61,339.66a3.75,3.75,0,1,1,5.31,0A3.77,3.77,0,0,1,568.61,339.66Z" transform="translate(5.35 64.11)"/><path class="cls-9" d="M561.54,346.73a3.75,3.75,0,1,1,5.31,0A3.77,3.77,0,0,1,561.54,346.73Z" transform="translate(5.35 64.11)"/><path class="cls-9" d="M554.47,353.8a3.75,3.75,0,1,1,5.31,0A3.76,3.76,0,0,1,554.47,353.8Z" transform="translate(5.35 64.11)"/><path class="cls-9" d="M547.4,360.87a3.75,3.75,0,1,1,5.3,0A3.74,3.74,0,0,1,547.4,360.87Z" transform="translate(5.35 64.11)"/><path class="cls-9" d="M540.33,367.94a3.75,3.75,0,1,1,5.3,0A3.74,3.74,0,0,1,540.33,367.94Z" transform="translate(5.35 64.11)"/><path class="cls-9" d="M533.26,375a3.75,3.75,0,1,1,5.3,0A3.74,3.74,0,0,1,533.26,375Z" transform="translate(5.35 64.11)"/><path class="cls-9" d="M526.18,382.09a3.75,3.75,0,1,1,5.31,0A3.77,3.77,0,0,1,526.18,382.09Z" transform="translate(5.35 64.11)"/><path class="cls-9" d="M519.11,389.16a3.75,3.75,0,1,1,5.31,0A3.77,3.77,0,0,1,519.11,389.16Z" transform="translate(5.35 64.11)"/><path class="cls-9" d="M512,396.23a3.75,3.75,0,1,1,5.3,0A3.75,3.75,0,0,1,512,396.23Z" transform="translate(5.35 64.11)"/><path class="cls-9" d="M505,403.3a3.75,3.75,0,1,1,5.3,0A3.75,3.75,0,0,1,505,403.3Z" transform="translate(5.35 64.11)"/><path class="cls-9" d="M497.9,410.37a3.75,3.75,0,1,1,5.3,0A3.74,3.74,0,0,1,497.9,410.37Z" transform="translate(5.35 64.11)"/><path class="cls-9" d="M490.83,417.44a3.75,3.75,0,1,1,5.3,0A3.74,3.74,0,0,1,490.83,417.44Z" transform="translate(5.35 64.11)"/><path class="cls-9" d="M483.75,424.52a3.75,3.75,0,1,1,5.31,0A3.77,3.77,0,0,1,483.75,424.52Z" transform="translate(5.35 64.11)"/><path class="cls-9" d="M476.68,431.59a3.75,3.75,0,1,1,5.31,0A3.77,3.77,0,0,1,476.68,431.59Z" transform="translate(5.35 64.11)"/><path class="cls-9" d="M469.61,438.66a3.75,3.75,0,1,1,5.3,0A3.77,3.77,0,0,1,469.61,438.66Z" transform="translate(5.35 64.11)"/><path class="cls-9" d="M462.54,445.73a3.75,3.75,0,1,1,5.3,0A3.75,3.75,0,0,1,462.54,445.73Z" transform="translate(5.35 64.11)"/><path class="cls-9" d="M455.47,452.8a3.75,3.75,0,1,1,5.3,0A3.74,3.74,0,0,1,455.47,452.8Z" transform="translate(5.35 64.11)"/><path class="cls-9" d="M448.4,459.88a3.75,3.75,0,1,1,5.3,0A3.75,3.75,0,0,1,448.4,459.88Z" transform="translate(5.35 64.11)"/><path class="cls-9" d="M441.32,467a3.75,3.75,0,1,1,5.31,0A3.77,3.77,0,0,1,441.32,467Z" transform="translate(5.35 64.11)"/><path class="cls-9" d="M434.25,474a3.75,3.75,0,1,1,5.31,0A3.77,3.77,0,0,1,434.25,474Z" transform="translate(5.35 64.11)"/><path class="cls-9" d="M427.18,481.09a3.75,3.75,0,1,1,5.3,0A3.75,3.75,0,0,1,427.18,481.09Z" transform="translate(5.35 64.11)"/><path class="cls-9" d="M420.11,488.16a3.75,3.75,0,1,1,5.3,0A3.75,3.75,0,0,1,420.11,488.16Z" transform="translate(5.35 64.11)"/><path class="cls-9" d="M413,495.23a3.75,3.75,0,1,1,5.3,0A3.74,3.74,0,0,1,413,495.23Z" transform="translate(5.35 64.11)"/><path class="cls-9" d="M406,502.3a3.75,3.75,0,1,1,5.3,0A3.74,3.74,0,0,1,406,502.3Z" transform="translate(5.35 64.11)"/><path class="cls-9" d="M398.89,509.38a3.75,3.75,0,1,1,5.31,0A3.77,3.77,0,0,1,398.89,509.38Z" transform="translate(5.35 64.11)"/><path class="cls-9" d="M391.82,516.45a3.75,3.75,0,1,1,5.31,0A3.77,3.77,0,0,1,391.82,516.45Z" transform="translate(5.35 64.11)"/><path class="cls-9" d="M384.75,523.52a3.75,3.75,0,1,1,5.3,0A3.75,3.75,0,0,1,384.75,523.52Z" transform="translate(5.35 64.11)"/><path class="cls-9" d="M377.68,530.59a3.75,3.75,0,1,1,5.3,0A3.75,3.75,0,0,1,377.68,530.59Z" transform="translate(5.35 64.11)"/><path class="cls-9" d="M370.61,537.66a3.75,3.75,0,1,1,5.3,0A3.75,3.75,0,0,1,370.61,537.66Z" transform="translate(5.35 64.11)"/><path class="cls-9" d="M363.54,544.73a3.75,3.75,0,1,1,5.3,0A3.74,3.74,0,0,1,363.54,544.73Z" transform="translate(5.35 64.11)"/><path class="cls-9" d="M356.47,551.8a3.75,3.75,0,1,1,5.3,0A3.74,3.74,0,0,1,356.47,551.8Z" transform="translate(5.35 64.11)"/><path class="cls-9" d="M349.39,558.88a3.75,3.75,0,1,1,5.31,0A3.77,3.77,0,0,1,349.39,558.88Z" transform="translate(5.35 64.11)"/><path class="cls-9" d="M342.32,566a3.75,3.75,0,1,1,5.3,0A3.75,3.75,0,0,1,342.32,566Z" transform="translate(5.35 64.11)"/><path class="cls-9" d="M335.25,573a3.75,3.75,0,1,1,5.3,0A3.75,3.75,0,0,1,335.25,573Z" transform="translate(5.35 64.11)"/><path class="cls-9" d="M328.18,580.09a3.75,3.75,0,1,1,5.3,0A3.74,3.74,0,0,1,328.18,580.09Z" transform="translate(5.35 64.11)"/><path class="cls-9" d="M625.19,268.94a3.75,3.75,0,1,1,5.3,0A3.74,3.74,0,0,1,625.19,268.94Z" transform="translate(5.35 64.11)"/><path class="cls-9" d="M618.12,276a3.75,3.75,0,1,1,5.3,0A3.74,3.74,0,0,1,618.12,276Z" transform="translate(5.35 64.11)"/><path class="cls-9" d="M611,283.09a3.75,3.75,0,1,1,5.31,0A3.77,3.77,0,0,1,611,283.09Z" transform="translate(5.35 64.11)"/><path class="cls-9" d="M604,290.16a3.75,3.75,0,1,1,5.31,0A3.77,3.77,0,0,1,604,290.16Z" transform="translate(5.35 64.11)"/><path class="cls-9" d="M596.9,297.23a3.75,3.75,0,1,1,5.3,0A3.76,3.76,0,0,1,596.9,297.23Z" transform="translate(5.35 64.11)"/><path class="cls-9" d="M589.83,304.3a3.75,3.75,0,1,1,5.3,0A3.76,3.76,0,0,1,589.83,304.3Z" transform="translate(5.35 64.11)"/><path class="cls-9" d="M582.76,311.37a3.75,3.75,0,1,1,5.3,0A3.74,3.74,0,0,1,582.76,311.37Z" transform="translate(5.35 64.11)"/><path class="cls-9" d="M575.69,318.44a3.75,3.75,0,1,1,5.3,0A3.75,3.75,0,0,1,575.69,318.44Z" transform="translate(5.35 64.11)"/><path class="cls-9" d="M568.61,325.51a3.75,3.75,0,1,1,5.31,0A3.75,3.75,0,0,1,568.61,325.51Z" transform="translate(5.35 64.11)"/><path class="cls-9" d="M561.54,332.59a3.75,3.75,0,1,1,5.31,0A3.77,3.77,0,0,1,561.54,332.59Z" transform="translate(5.35 64.11)"/><path class="cls-9" d="M554.47,339.66a3.75,3.75,0,1,1,5.3,0A3.77,3.77,0,0,1,554.47,339.66Z" transform="translate(5.35 64.11)"/><path class="cls-9" d="M547.4,346.73a3.75,3.75,0,1,1,5.3,0A3.75,3.75,0,0,1,547.4,346.73Z" transform="translate(5.35 64.11)"/><path class="cls-9" d="M540.33,353.8a3.75,3.75,0,1,1,5.3,0A3.75,3.75,0,0,1,540.33,353.8Z" transform="translate(5.35 64.11)"/><path class="cls-9" d="M533.26,360.87a3.75,3.75,0,1,1,5.3,0A3.74,3.74,0,0,1,533.26,360.87Z" transform="translate(5.35 64.11)"/><path class="cls-9" d="M526.18,367.94a3.75,3.75,0,1,1,5.31,0A3.75,3.75,0,0,1,526.18,367.94Z" transform="translate(5.35 64.11)"/><path class="cls-9" d="M519.11,375a3.75,3.75,0,1,1,5.31,0A3.75,3.75,0,0,1,519.11,375Z" transform="translate(5.35 64.11)"/><path class="cls-9" d="M512,382.09a3.75,3.75,0,1,1,5.31,0A3.76,3.76,0,0,1,512,382.09Z" transform="translate(5.35 64.11)"/><path class="cls-9" d="M505,389.16a3.75,3.75,0,1,1,5.3,0A3.76,3.76,0,0,1,505,389.16Z" transform="translate(5.35 64.11)"/><path class="cls-9" d="M497.9,396.23a3.75,3.75,0,1,1,5.3,0A3.74,3.74,0,0,1,497.9,396.23Z" transform="translate(5.35 64.11)"/><path class="cls-9" d="M490.83,403.3a3.75,3.75,0,1,1,5.3,0A3.74,3.74,0,0,1,490.83,403.3Z" transform="translate(5.35 64.11)"/><path class="cls-9" d="M483.75,410.37a3.75,3.75,0,1,1,5.31,0A3.75,3.75,0,0,1,483.75,410.37Z" transform="translate(5.35 64.11)"/><path class="cls-9" d="M476.68,417.44a3.75,3.75,0,1,1,5.31,0A3.75,3.75,0,0,1,476.68,417.44Z" transform="translate(5.35 64.11)"/><path class="cls-9" d="M469.61,424.52a3.75,3.75,0,1,1,5.3,0A3.77,3.77,0,0,1,469.61,424.52Z" transform="translate(5.35 64.11)"/><path class="cls-9" d="M462.54,431.59a3.75,3.75,0,1,1,5.3,0A3.76,3.76,0,0,1,462.54,431.59Z" transform="translate(5.35 64.11)"/><path class="cls-9" d="M455.47,438.66a3.75,3.75,0,1,1,5.3,0A3.75,3.75,0,0,1,455.47,438.66Z" transform="translate(5.35 64.11)"/><path class="cls-9" d="M448.4,445.73a3.75,3.75,0,1,1,5.3,0A3.74,3.74,0,0,1,448.4,445.73Z" transform="translate(5.35 64.11)"/><path class="cls-9" d="M441.32,452.8a3.75,3.75,0,1,1,5.31,0A3.75,3.75,0,0,1,441.32,452.8Z" transform="translate(5.35 64.11)"/><path class="cls-9" d="M434.25,459.87a3.75,3.75,0,1,1,5.31,0A3.75,3.75,0,0,1,434.25,459.87Z" transform="translate(5.35 64.11)"/><path class="cls-9" d="M427.18,467a3.75,3.75,0,1,1,5.3,0A3.77,3.77,0,0,1,427.18,467Z" transform="translate(5.35 64.11)"/><path class="cls-9" d="M420.11,474a3.75,3.75,0,1,1,5.3,0A3.77,3.77,0,0,1,420.11,474Z" transform="translate(5.35 64.11)"/><path class="cls-9" d="M413,481.09a3.75,3.75,0,1,1,5.3,0A3.74,3.74,0,0,1,413,481.09Z" transform="translate(5.35 64.11)"/><path class="cls-9" d="M406,488.16a3.75,3.75,0,1,1,5.3,0A3.74,3.74,0,0,1,406,488.16Z" transform="translate(5.35 64.11)"/><path class="cls-9" d="M398.89,495.23a3.75,3.75,0,1,1,5.31,0A3.75,3.75,0,0,1,398.89,495.23Z" transform="translate(5.35 64.11)"/><path class="cls-9" d="M391.82,502.3a3.75,3.75,0,1,1,5.31,0A3.75,3.75,0,0,1,391.82,502.3Z" transform="translate(5.35 64.11)"/><path class="cls-9" d="M384.75,509.38a3.75,3.75,0,1,1,5.3,0A3.77,3.77,0,0,1,384.75,509.38Z" transform="translate(5.35 64.11)"/><path class="cls-9" d="M377.68,516.45a3.75,3.75,0,1,1,5.3,0A3.77,3.77,0,0,1,377.68,516.45Z" transform="translate(5.35 64.11)"/><path class="cls-9" d="M370.61,523.52a3.75,3.75,0,1,1,5.3,0A3.76,3.76,0,0,1,370.61,523.52Z" transform="translate(5.35 64.11)"/><path class="cls-9" d="M363.53,530.59a3.75,3.75,0,1,1,5.31,0A3.75,3.75,0,0,1,363.53,530.59Z" transform="translate(5.35 64.11)"/><path class="cls-9" d="M356.47,537.66a3.75,3.75,0,1,1,5.3,0A3.74,3.74,0,0,1,356.47,537.66Z" transform="translate(5.35 64.11)"/><path class="cls-9" d="M349.39,544.73a3.75,3.75,0,1,1,5.31,0A3.75,3.75,0,0,1,349.39,544.73Z" transform="translate(5.35 64.11)"/><path class="cls-9" d="M342.32,551.8a3.75,3.75,0,1,1,5.3,0A3.75,3.75,0,0,1,342.32,551.8Z" transform="translate(5.35 64.11)"/><path class="cls-9" d="M335.25,558.88a3.75,3.75,0,1,1,5.3,0A3.77,3.77,0,0,1,335.25,558.88Z" transform="translate(5.35 64.11)"/><path class="cls-9" d="M328.18,566a3.75,3.75,0,1,1,5.3,0A3.76,3.76,0,0,1,328.18,566Z" transform="translate(5.35 64.11)"/><path class="cls-9" d="M321.11,573a3.75,3.75,0,1,1,5.3,0A3.74,3.74,0,0,1,321.11,573Z" transform="translate(5.35 64.11)"/><path class="cls-9" d="M618.12,261.87a3.75,3.75,0,1,1,5.3,0A3.76,3.76,0,0,1,618.12,261.87Z" transform="translate(5.35 64.11)"/><path class="cls-9" d="M611,268.94a3.75,3.75,0,1,1,5.31,0A3.75,3.75,0,0,1,611,268.94Z" transform="translate(5.35 64.11)"/><path class="cls-9" d="M604,276a3.75,3.75,0,1,1,5.31,0A3.75,3.75,0,0,1,604,276Z" transform="translate(5.35 64.11)"/><path class="cls-9" d="M596.9,283.08a3.75,3.75,0,1,1,5.3,0A3.74,3.74,0,0,1,596.9,283.08Z" transform="translate(5.35 64.11)"/><path class="cls-9" d="M589.83,290.16a3.75,3.75,0,1,1,5.3,0A3.76,3.76,0,0,1,589.83,290.16Z" transform="translate(5.35 64.11)"/><path class="cls-9" d="M582.76,297.23a3.75,3.75,0,1,1,5.3,0A3.75,3.75,0,0,1,582.76,297.23Z" transform="translate(5.35 64.11)"/><path class="cls-9" d="M575.68,304.3a3.75,3.75,0,1,1,5.31,0A3.75,3.75,0,0,1,575.68,304.3Z" transform="translate(5.35 64.11)"/><path class="cls-9" d="M568.61,311.37a3.75,3.75,0,1,1,5.31,0A3.75,3.75,0,0,1,568.61,311.37Z" transform="translate(5.35 64.11)"/><path class="cls-9" d="M561.54,318.44a3.75,3.75,0,1,1,5.31,0A3.75,3.75,0,0,1,561.54,318.44Z" transform="translate(5.35 64.11)"/><path class="cls-9" d="M554.47,325.51a3.75,3.75,0,1,1,5.3,0A3.75,3.75,0,0,1,554.47,325.51Z" transform="translate(5.35 64.11)"/><path class="cls-9" d="M547.4,332.58a3.75,3.75,0,1,1,5.3,0A3.74,3.74,0,0,1,547.4,332.58Z" transform="translate(5.35 64.11)"/><path class="cls-9" d="M540.33,339.66a3.75,3.75,0,1,1,5.3,0A3.75,3.75,0,0,1,540.33,339.66Z" transform="translate(5.35 64.11)"/><path class="cls-9" d="M533.25,346.73a3.75,3.75,0,1,1,5.31,0A3.76,3.76,0,0,1,533.25,346.73Z" transform="translate(5.35 64.11)"/><path class="cls-9" d="M526.18,353.8a3.75,3.75,0,1,1,5.31,0A3.77,3.77,0,0,1,526.18,353.8Z" transform="translate(5.35 64.11)"/><path class="cls-9" d="M519.11,360.87a3.75,3.75,0,1,1,5.31,0A3.75,3.75,0,0,1,519.11,360.87Z" transform="translate(5.35 64.11)"/><path class="cls-9" d="M512,367.94a3.75,3.75,0,1,1,5.3,0A3.74,3.74,0,0,1,512,367.94Z" transform="translate(5.35 64.11)"/><path class="cls-9" d="M505,375a3.75,3.75,0,1,1,5.3,0A3.74,3.74,0,0,1,505,375Z" transform="translate(5.35 64.11)"/><path class="cls-9" d="M497.9,382.09a3.75,3.75,0,1,1,5.3,0A3.75,3.75,0,0,1,497.9,382.09Z" transform="translate(5.35 64.11)"/><path class="cls-9" d="M490.83,389.16a3.75,3.75,0,1,1,5.3,0A3.75,3.75,0,0,1,490.83,389.16Z" transform="translate(5.35 64.11)"/><path class="cls-9" d="M483.75,396.23a3.75,3.75,0,1,1,5.31,0A3.75,3.75,0,0,1,483.75,396.23Z" transform="translate(5.35 64.11)"/><path class="cls-9" d="M476.68,403.3a3.75,3.75,0,1,1,5.31,0A3.75,3.75,0,0,1,476.68,403.3Z" transform="translate(5.35 64.11)"/><path class="cls-9" d="M469.61,410.37a3.75,3.75,0,1,1,5.3,0A3.75,3.75,0,0,1,469.61,410.37Z" transform="translate(5.35 64.11)"/><path class="cls-9" d="M462.54,417.44a3.75,3.75,0,1,1,5.3,0A3.75,3.75,0,0,1,462.54,417.44Z" transform="translate(5.35 64.11)"/><path class="cls-9" d="M455.47,424.52a3.75,3.75,0,1,1,5.3,0A3.75,3.75,0,0,1,455.47,424.52Z" transform="translate(5.35 64.11)"/><path class="cls-9" d="M448.4,431.59a3.75,3.75,0,1,1,5.3,0A3.75,3.75,0,0,1,448.4,431.59Z" transform="translate(5.35 64.11)"/><path class="cls-9" d="M441.32,438.66a3.75,3.75,0,1,1,5.31,0A3.75,3.75,0,0,1,441.32,438.66Z" transform="translate(5.35 64.11)"/><path class="cls-9" d="M434.25,445.73a3.75,3.75,0,1,1,5.31,0A3.75,3.75,0,0,1,434.25,445.73Z" transform="translate(5.35 64.11)"/><path class="cls-9" d="M427.18,452.8a3.75,3.75,0,1,1,5.3,0A3.75,3.75,0,0,1,427.18,452.8Z" transform="translate(5.35 64.11)"/><path class="cls-9" d="M420.11,459.88a3.75,3.75,0,1,1,5.3,0A3.75,3.75,0,0,1,420.11,459.88Z" transform="translate(5.35 64.11)"/><path class="cls-9" d="M413,467a3.75,3.75,0,1,1,5.3,0A3.75,3.75,0,0,1,413,467Z" transform="translate(5.35 64.11)"/><path class="cls-9" d="M406,474a3.75,3.75,0,1,1,5.3,0A3.75,3.75,0,0,1,406,474Z" transform="translate(5.35 64.11)"/><path class="cls-9" d="M398.89,481.09a3.75,3.75,0,1,1,5.31,0A3.75,3.75,0,0,1,398.89,481.09Z" transform="translate(5.35 64.11)"/><path class="cls-9" d="M391.82,488.16a3.75,3.75,0,1,1,5.31,0A3.75,3.75,0,0,1,391.82,488.16Z" transform="translate(5.35 64.11)"/><path class="cls-9" d="M384.75,495.23a3.75,3.75,0,1,1,5.3,0A3.75,3.75,0,0,1,384.75,495.23Z" transform="translate(5.35 64.11)"/><path class="cls-9" d="M377.68,502.3a3.75,3.75,0,1,1,5.3,0A3.75,3.75,0,0,1,377.68,502.3Z" transform="translate(5.35 64.11)"/><path class="cls-9" d="M370.61,509.38a3.75,3.75,0,1,1,5.3,0A3.75,3.75,0,0,1,370.61,509.38Z" transform="translate(5.35 64.11)"/><path class="cls-9" d="M363.53,516.45a3.75,3.75,0,1,1,5.31,0A3.76,3.76,0,0,1,363.53,516.45Z" transform="translate(5.35 64.11)"/><path class="cls-9" d="M356.47,523.52a3.75,3.75,0,1,1,5.3,0A3.75,3.75,0,0,1,356.47,523.52Z" transform="translate(5.35 64.11)"/><path class="cls-9" d="M349.39,530.59a3.75,3.75,0,1,1,5.31,0A3.75,3.75,0,0,1,349.39,530.59Z" transform="translate(5.35 64.11)"/><path class="cls-9" d="M342.32,537.66a3.75,3.75,0,1,1,5.31,0A3.75,3.75,0,0,1,342.32,537.66Z" transform="translate(5.35 64.11)"/><path class="cls-9" d="M335.25,544.73a3.75,3.75,0,1,1,5.3,0A3.75,3.75,0,0,1,335.25,544.73Z" transform="translate(5.35 64.11)"/><path class="cls-9" d="M328.18,551.8a3.75,3.75,0,1,1,5.3,0A3.74,3.74,0,0,1,328.18,551.8Z" transform="translate(5.35 64.11)"/><path class="cls-9" d="M321.11,558.88a3.75,3.75,0,1,1,5.3,0A3.75,3.75,0,0,1,321.11,558.88Z" transform="translate(5.35 64.11)"/><path class="cls-9" d="M314,566a3.75,3.75,0,1,1,5.31,0A3.77,3.77,0,0,1,314,566Z" transform="translate(5.35 64.11)"/><path class="cls-9" d="M611,254.8a3.75,3.75,0,1,1,5.31,0A3.77,3.77,0,0,1,611,254.8Z" transform="translate(5.35 64.11)"/><path class="cls-9" d="M604,261.87a3.75,3.75,0,1,1,5.31,0A3.77,3.77,0,0,1,604,261.87Z" transform="translate(5.35 64.11)"/><path class="cls-9" d="M596.9,268.94a3.75,3.75,0,1,1,5.3,0A3.75,3.75,0,0,1,596.9,268.94Z" transform="translate(5.35 64.11)"/><path class="cls-9" d="M589.83,276a3.75,3.75,0,1,1,5.3,0A3.75,3.75,0,0,1,589.83,276Z" transform="translate(5.35 64.11)"/><path class="cls-9" d="M582.76,283.08a3.75,3.75,0,1,1,5.3,0A3.74,3.74,0,0,1,582.76,283.08Z" transform="translate(5.35 64.11)"/><path class="cls-9" d="M575.69,290.15a3.75,3.75,0,1,1,5.3,0A3.75,3.75,0,0,1,575.69,290.15Z" transform="translate(5.35 64.11)"/><path class="cls-9" d="M568.61,297.23a3.75,3.75,0,1,1,5.31,0A3.77,3.77,0,0,1,568.61,297.23Z" transform="translate(5.35 64.11)"/><path class="cls-9" d="M561.54,304.3a3.75,3.75,0,1,1,5.31,0A3.75,3.75,0,0,1,561.54,304.3Z" transform="translate(5.35 64.11)"/><path class="cls-9" d="M554.47,311.37a3.75,3.75,0,1,1,5.3,0A3.75,3.75,0,0,1,554.47,311.37Z" transform="translate(5.35 64.11)"/><path class="cls-9" d="M547.4,318.44a3.75,3.75,0,1,1,5.3,0A3.74,3.74,0,0,1,547.4,318.44Z" transform="translate(5.35 64.11)"/><path class="cls-9" d="M540.33,325.51a3.75,3.75,0,1,1,5.3,0A3.74,3.74,0,0,1,540.33,325.51Z" transform="translate(5.35 64.11)"/><path class="cls-9" d="M533.25,332.59a3.75,3.75,0,1,1,5.31,0A3.76,3.76,0,0,1,533.25,332.59Z" transform="translate(5.35 64.11)"/><path class="cls-9" d="M526.18,339.66a3.75,3.75,0,1,1,5.31,0A3.77,3.77,0,0,1,526.18,339.66Z" transform="translate(5.35 64.11)"/><path class="cls-9" d="M519.11,346.73a3.75,3.75,0,1,1,5.31,0A3.77,3.77,0,0,1,519.11,346.73Z" transform="translate(5.35 64.11)"/><path class="cls-9" d="M512,353.8a3.75,3.75,0,1,1,5.3,0A3.74,3.74,0,0,1,512,353.8Z" transform="translate(5.35 64.11)"/><path class="cls-9" d="M505,360.87a3.75,3.75,0,1,1,5.3,0A3.75,3.75,0,0,1,505,360.87Z" transform="translate(5.35 64.11)"/><path class="cls-9" d="M497.9,367.94a3.75,3.75,0,1,1,5.3,0A3.74,3.74,0,0,1,497.9,367.94Z" transform="translate(5.35 64.11)"/><path class="cls-9" d="M490.83,375a3.75,3.75,0,1,1,5.3,0A3.74,3.74,0,0,1,490.83,375Z" transform="translate(5.35 64.11)"/><path class="cls-9" d="M483.75,382.09a3.75,3.75,0,1,1,5.31,0A3.77,3.77,0,0,1,483.75,382.09Z" transform="translate(5.35 64.11)"/><path class="cls-9" d="M476.68,389.16a3.75,3.75,0,1,1,5.31,0A3.77,3.77,0,0,1,476.68,389.16Z" transform="translate(5.35 64.11)"/><path class="cls-9" d="M469.61,396.23a3.75,3.75,0,1,1,5.3,0A3.75,3.75,0,0,1,469.61,396.23Z" transform="translate(5.35 64.11)"/><path class="cls-9" d="M462.54,403.3a3.75,3.75,0,1,1,5.3,0A3.74,3.74,0,0,1,462.54,403.3Z" transform="translate(5.35 64.11)"/><path class="cls-9" d="M455.47,410.37a3.75,3.75,0,1,1,5.3,0A3.74,3.74,0,0,1,455.47,410.37Z" transform="translate(5.35 64.11)"/><path class="cls-9" d="M448.4,417.44a3.75,3.75,0,1,1,5.3,0A3.74,3.74,0,0,1,448.4,417.44Z" transform="translate(5.35 64.11)"/><path class="cls-9" d="M441.32,424.52a3.75,3.75,0,1,1,5.31,0A3.77,3.77,0,0,1,441.32,424.52Z" transform="translate(5.35 64.11)"/><path class="cls-9" d="M434.25,431.59a3.75,3.75,0,1,1,5.31,0A3.77,3.77,0,0,1,434.25,431.59Z" transform="translate(5.35 64.11)"/><path class="cls-9" d="M427.18,438.66a3.75,3.75,0,1,1,5.31,0A3.77,3.77,0,0,1,427.18,438.66Z" transform="translate(5.35 64.11)"/><path class="cls-9" d="M420.11,445.73a3.75,3.75,0,1,1,5.3,0A3.75,3.75,0,0,1,420.11,445.73Z" transform="translate(5.35 64.11)"/><path class="cls-9" d="M413,452.8a3.75,3.75,0,1,1,5.3,0A3.74,3.74,0,0,1,413,452.8Z" transform="translate(5.35 64.11)"/><path class="cls-9" d="M406,459.88a3.75,3.75,0,1,1,5.3,0A3.75,3.75,0,0,1,406,459.88Z" transform="translate(5.35 64.11)"/><path class="cls-9" d="M398.89,467a3.75,3.75,0,1,1,5.31,0A3.77,3.77,0,0,1,398.89,467Z" transform="translate(5.35 64.11)"/><path class="cls-9" d="M391.82,474a3.75,3.75,0,1,1,5.31,0A3.77,3.77,0,0,1,391.82,474Z" transform="translate(5.35 64.11)"/><path class="cls-9" d="M384.75,481.09a3.75,3.75,0,1,1,5.3,0A3.75,3.75,0,0,1,384.75,481.09Z" transform="translate(5.35 64.11)"/><path class="cls-9" d="M377.68,488.16a3.75,3.75,0,1,1,5.3,0A3.75,3.75,0,0,1,377.68,488.16Z" transform="translate(5.35 64.11)"/><path class="cls-9" d="M370.61,495.23a3.75,3.75,0,1,1,5.3,0A3.74,3.74,0,0,1,370.61,495.23Z" transform="translate(5.35 64.11)"/><path class="cls-9" d="M363.53,502.3a3.75,3.75,0,1,1,5.31,0A3.75,3.75,0,0,1,363.53,502.3Z" transform="translate(5.35 64.11)"/><path class="cls-9" d="M356.47,509.38a3.75,3.75,0,1,1,5.3,0A3.75,3.75,0,0,1,356.47,509.38Z" transform="translate(5.35 64.11)"/><path class="cls-9" d="M349.39,516.45a3.75,3.75,0,1,1,5.31,0A3.77,3.77,0,0,1,349.39,516.45Z" transform="translate(5.35 64.11)"/><path class="cls-9" d="M342.32,523.52a3.75,3.75,0,1,1,5.31,0A3.77,3.77,0,0,1,342.32,523.52Z" transform="translate(5.35 64.11)"/><path class="cls-9" d="M335.25,530.59a3.75,3.75,0,1,1,5.3,0A3.75,3.75,0,0,1,335.25,530.59Z" transform="translate(5.35 64.11)"/><path class="cls-9" d="M328.18,537.66a3.75,3.75,0,1,1,5.3,0A3.74,3.74,0,0,1,328.18,537.66Z" transform="translate(5.35 64.11)"/><path class="cls-9" d="M321.11,544.73a3.75,3.75,0,1,1,5.3,0A3.74,3.74,0,0,1,321.11,544.73Z" transform="translate(5.35 64.11)"/><path class="cls-9" d="M314,551.8a3.75,3.75,0,1,1,5.31,0A3.75,3.75,0,0,1,314,551.8Z" transform="translate(5.35 64.11)"/><path class="cls-9" d="M307,558.88a3.75,3.75,0,1,1,5.31,0A3.77,3.77,0,0,1,307,558.88Z" transform="translate(5.35 64.11)"/><rect class="cls-4" x="187.39" y="315.25" width="501.61" height="81.27" transform="translate(-117.96 478.21) rotate(-45)"/></g><path class="cls-4" d="M618.29,58.58a20.17,20.17,0,0,1,0,28.53l-126,126a20.17,20.17,0,0,1-28.53,0h0a20.19,20.19,0,0,1,0-28.54l126-126a20.17,20.17,0,0,1,28.53,0Z" transform="translate(5.35 64.11)"/><path class="cls-8" d="M686.78,81.87a20.17,20.17,0,0,1,0,28.53l-57.86,57.87a20.19,20.19,0,0,1-28.54,0h0a20.2,20.2,0,0,1,0-28.54l57.86-57.86a20.18,20.18,0,0,1,28.54,0Z" transform="translate(5.35 64.11)"/><path class="cls-9" d="M310.58,87.83a20.17,20.17,0,0,1,0,28.53L211,216a20.17,20.17,0,0,1-28.53,0h0a20.17,20.17,0,0,1,0-28.53l99.6-99.6a20.17,20.17,0,0,1,28.53,0Z" transform="translate(5.35 64.11)"/><path class="cls-10" d="M629.85,391a20.17,20.17,0,0,1,0,28.53l-99.6,99.6a20.18,20.18,0,0,1-28.54,0h0a20.17,20.17,0,0,1,0-28.53l99.6-99.6a20.18,20.18,0,0,1,28.54,0Z" transform="translate(5.35 64.11)"/><path class="cls-5" d="M516.48,22.3a21,21,0,1,1-29.67,0A21,21,0,0,1,516.48,22.3Z" transform="translate(5.35 64.11)"/><path class="cls-11" d="M654.64,21A21,21,0,1,1,625,21,21,21,0,0,1,654.64,21Z" transform="translate(5.35 64.11)"/><path class="cls-12" d="M491,528a21,21,0,1,1-29.66,0A21,21,0,0,1,491,528Z" transform="translate(5.35 64.11)"/><g class="cls-13"><path class="cls-14" d="M560.78,285c11.85,86.31-48.92,164.83-135.77,175.4s-166.87-50.84-178.73-137C234.39,237,295.15,158.48,382,147.92S548.89,198.71,560.78,285Z" transform="translate(5.35 64.11)"/></g><circle class="cls-15" cx="409.24" cy="368.09" r="190.58"/><path class="cls-16" d="M496.51,350.13l-.14-.14V179.92H485.73L406,259.64l-.45-.45-.05.06-79.33-79.33H315.56V385.2l10.63.35V194.81l71.88,71.88,0,.05,87.7,87.7v20.48H348.89V385.2l147.48.35V350.28Zm-84.65-83,72.27-72.28V339.36Z" transform="translate(5.35 64.11)"/><circle class="cls-17" cx="409.78" cy="368.32" r="168.87"/><text class="cls-18" transform="translate(320.46 485.46)">Movie<tspan class="cls-19" x="91.14" y="0"> </tspan><tspan x="99.57" y="0">Night</tspan></text></g></g></svg>